solid CATIA STL
  facet normal  0.000000e+000 -1.000000e+000  0.000000e+000
    outer loop
      vertex  2.000000e+000  3.233973e+001 -4.885128e+000
      vertex  3.357654e+001  3.233973e+001 -4.885128e+000
      vertex  1.388198e+001  3.233973e+001  2.938380e+001
    endloop
  endfacet
  facet normal  0.000000e+000 -1.000000e+000  0.000000e+000
    outer loop
      vertex  1.388198e+001  3.233973e+001  2.938380e+001
      vertex  3.357654e+001  3.233973e+001 -4.885128e+000
      vertex  3.380590e+001  3.233973e+001 -4.700963e+000
    endloop
  endfacet
  facet normal  0.000000e+000 -1.000000e+000  0.000000e+000
    outer loop
      vertex  1.388198e+001  3.233973e+001  2.938380e+001
      vertex  3.380590e+001  3.233973e+001 -4.700963e+000
      vertex  1.756766e+001  3.233973e+001  2.938380e+001
    endloop
  endfacet
  facet normal  0.000000e+000 -1.000000e+000  0.000000e+000
    outer loop
      vertex  1.756766e+001  3.233973e+001  2.938380e+001
      vertex  3.380590e+001  3.233973e+001 -4.700963e+000
      vertex  3.380590e+001  3.233973e+001  1.663950e+001
    endloop
  endfacet
  facet normal  0.000000e+000 -9.999999e-001  0.000000e+000
    outer loop
      vertex  1.756766e+001  3.233973e+001  2.938380e+001
      vertex  3.380590e+001  3.233973e+001  1.663950e+001
      vertex  2.055354e+001  3.233973e+001  2.938380e+001
    endloop
  endfacet
  facet normal  0.000000e+000 -1.000000e+000  -0.000000e+000
    outer loop
      vertex  1.388198e+001  3.233973e+001  2.938380e+001
      vertex  1.388198e+001  3.233973e+001  4.493271e+001
      vertex  2.000000e+000  3.233973e+001 -4.885128e+000
    endloop
  endfacet
  facet normal  0.000000e+000 -1.000000e+000  0.000000e+000
    outer loop
      vertex  2.000000e+000  3.233973e+001 -4.885128e+000
      vertex  1.388198e+001  3.233973e+001  4.493271e+001
      vertex  2.000000e+000  3.233973e+001  4.493271e+001
    endloop
  endfacet
  facet normal  0.000000e+000  1.000000e+000  0.000000e+000
    outer loop
      vertex  2.000000e+000  3.836868e+001  4.493271e+001
      vertex  9.520366e+000  3.836868e+001  4.219118e+001
      vertex  9.176020e+000  3.836868e+001  4.226438e+001
    endloop
  endfacet
  facet normal  0.000000e+000  1.000000e+000  0.000000e+000
    outer loop
      vertex  2.000000e+000  3.836868e+001  4.493271e+001
      vertex  9.176020e+000  3.836868e+001  4.226438e+001
      vertex  8.823980e+000  3.836868e+001  4.226438e+001
    endloop
  endfacet
  facet normal  0.000000e+000  1.000000e+000  0.000000e+000
    outer loop
      vertex  2.000000e+000  3.836868e+001  4.493271e+001
      vertex  8.823980e+000  3.836868e+001  4.226438e+001
      vertex  8.479634e+000  3.836868e+001  4.219118e+001
    endloop
  endfacet
  facet normal  0.000000e+000  1.000000e+000  0.000000e+000
    outer loop
      vertex  2.000000e+000  3.836868e+001  4.493271e+001
      vertex  8.479634e+000  3.836868e+001  4.219118e+001
      vertex  8.158031e+000  3.836868e+001  4.204800e+001
    endloop
  endfacet
  facet normal  0.000000e+000  1.000000e+000  0.000000e+000
    outer loop
      vertex  2.000000e+000  3.836868e+001  4.493271e+001
      vertex  8.158031e+000  3.836868e+001  4.204800e+001
      vertex  7.873224e+000  3.836868e+001  4.184108e+001
    endloop
  endfacet
  facet normal  0.000000e+000  1.000000e+000  0.000000e+000
    outer loop
      vertex  2.000000e+000  3.836868e+001  4.493271e+001
      vertex  7.873224e+000  3.836868e+001  4.184108e+001
      vertex  7.637664e+000  3.836868e+001  4.157946e+001
    endloop
  endfacet
  facet normal  0.000000e+000  1.000000e+000  0.000000e+000
    outer loop
      vertex  2.000000e+000  3.836868e+001  4.493271e+001
      vertex  7.637664e+000  3.836868e+001  4.157946e+001
      vertex  7.461645e+000  3.836868e+001  4.127459e+001
    endloop
  endfacet
  facet normal  0.000000e+000  1.000000e+000  0.000000e+000
    outer loop
      vertex  2.000000e+000  3.836868e+001  4.493271e+001
      vertex  7.461645e+000  3.836868e+001  4.127459e+001
      vertex  7.352859e+000  3.836868e+001  4.093978e+001
    endloop
  endfacet
  facet normal  0.000000e+000  1.000000e+000  0.000000e+000
    outer loop
      vertex  2.000000e+000  3.836868e+001  4.493271e+001
      vertex  7.352859e+000  3.836868e+001  4.093978e+001
      vertex  7.316061e+000  3.836868e+001  4.058966e+001
    endloop
  endfacet
  facet normal  0.000000e+000  1.000000e+000  0.000000e+000
    outer loop
      vertex  2.000000e+000  3.836868e+001  4.493271e+001
      vertex  7.316061e+000  3.836868e+001  4.058966e+001
      vertex  2.000000e+000  3.836868e+001 -4.885128e+000
    endloop
  endfacet
  facet normal  0.000000e+000  1.000000e+000  -0.000000e+000
    outer loop
      vertex  1.388198e+001  3.836868e+001  4.493271e+001
      vertex  1.388198e+001  3.836868e+001  2.938380e+001
      vertex  1.064714e+001  3.836868e+001  4.093978e+001
    endloop
  endfacet
  facet normal  0.000000e+000  9.999999e-001  -0.000000e+000
    outer loop
      vertex  1.388198e+001  3.836868e+001  4.493271e+001
      vertex  1.064714e+001  3.836868e+001  4.093978e+001
      vertex  1.053836e+001  3.836868e+001  4.127459e+001
    endloop
  endfacet
  facet normal  0.000000e+000  1.000000e+000  -0.000000e+000
    outer loop
      vertex  1.388198e+001  3.836868e+001  4.493271e+001
      vertex  1.053836e+001  3.836868e+001  4.127459e+001
      vertex  1.036234e+001  3.836868e+001  4.157946e+001
    endloop
  endfacet
  facet normal  0.000000e+000  1.000000e+000  -0.000000e+000
    outer loop
      vertex  1.388198e+001  3.836868e+001  4.493271e+001
      vertex  1.036234e+001  3.836868e+001  4.157946e+001
      vertex  1.012678e+001  3.836868e+001  4.184108e+001
    endloop
  endfacet
  facet normal  0.000000e+000  9.999999e-001  -0.000000e+000
    outer loop
      vertex  1.388198e+001  3.836868e+001  4.493271e+001
      vertex  1.012678e+001  3.836868e+001  4.184108e+001
      vertex  9.841969e+000  3.836868e+001  4.204800e+001
    endloop
  endfacet
  facet normal  0.000000e+000  1.000000e+000  -0.000000e+000
    outer loop
      vertex  1.388198e+001  3.836868e+001  4.493271e+001
      vertex  9.841969e+000  3.836868e+001  4.204800e+001
      vertex  9.520366e+000  3.836868e+001  4.219118e+001
    endloop
  endfacet
  facet normal  0.000000e+000  1.000000e+000  -0.000000e+000
    outer loop
      vertex  1.388198e+001  3.836868e+001  4.493271e+001
      vertex  9.520366e+000  3.836868e+001  4.219118e+001
      vertex  2.000000e+000  3.836868e+001  4.493271e+001
    endloop
  endfacet
  facet normal  0.000000e+000  1.000000e+000  0.000000e+000
    outer loop
      vertex  2.000000e+000  3.836868e+001 -4.885128e+000
      vertex  7.316061e+000  3.836868e+001  4.058966e+001
      vertex  7.352859e+000  3.836868e+001  4.023956e+001
    endloop
  endfacet
  facet normal  0.000000e+000  1.000000e+000  0.000000e+000
    outer loop
      vertex  2.000000e+000  3.836868e+001 -4.885128e+000
      vertex  7.352859e+000  3.836868e+001  4.023956e+001
      vertex  7.461645e+000  3.836868e+001  3.990474e+001
    endloop
  endfacet
  facet normal  0.000000e+000  1.000000e+000  0.000000e+000
    outer loop
      vertex  2.000000e+000  3.836868e+001 -4.885128e+000
      vertex  7.461645e+000  3.836868e+001  3.990474e+001
      vertex  7.637664e+000  3.836868e+001  3.959987e+001
    endloop
  endfacet
  facet normal  0.000000e+000  1.000000e+000  0.000000e+000
    outer loop
      vertex  2.000000e+000  3.836868e+001 -4.885128e+000
      vertex  7.637664e+000  3.836868e+001  3.959987e+001
      vertex  7.873224e+000  3.836868e+001  3.933825e+001
    endloop
  endfacet
  facet normal  0.000000e+000  1.000000e+000  0.000000e+000
    outer loop
      vertex  2.000000e+000  3.836868e+001 -4.885128e+000
      vertex  7.873224e+000  3.836868e+001  3.933825e+001
      vertex  8.158031e+000  3.836868e+001  3.913133e+001
    endloop
  endfacet
  facet normal  0.000000e+000  9.999999e-001  0.000000e+000
    outer loop
      vertex  2.000000e+000  3.836868e+001 -4.885128e+000
      vertex  8.158031e+000  3.836868e+001  3.913133e+001
      vertex  8.479634e+000  3.836868e+001  3.898814e+001
    endloop
  endfacet
  facet normal  0.000000e+000  1.000000e+000  0.000000e+000
    outer loop
      vertex  2.000000e+000  3.836868e+001 -4.885128e+000
      vertex  8.479634e+000  3.836868e+001  3.898814e+001
      vertex  8.823980e+000  3.836868e+001  3.891495e+001
    endloop
  endfacet
  facet normal  -0.000000e+000  9.999999e-001  0.000000e+000
    outer loop
      vertex  2.000000e+000  3.836868e+001 -4.885128e+000
      vertex  8.823980e+000  3.836868e+001  3.891495e+001
      vertex  9.176020e+000  3.836868e+001  3.891495e+001
    endloop
  endfacet
  facet normal  0.000000e+000  1.000000e+000  0.000000e+000
    outer loop
      vertex  2.000000e+000  3.836868e+001 -4.885128e+000
      vertex  9.176020e+000  3.836868e+001  3.891495e+001
      vertex  1.388198e+001  3.836868e+001  2.938380e+001
    endloop
  endfacet
  facet normal  -0.000000e+000  1.000000e+000  0.000000e+000
    outer loop
      vertex  2.000000e+000  3.836868e+001 -4.885128e+000
      vertex  1.388198e+001  3.836868e+001  2.938380e+001
      vertex  1.756766e+001  3.836868e+001  2.938380e+001
    endloop
  endfacet
  facet normal  -0.000000e+000  1.000000e+000  0.000000e+000
    outer loop
      vertex  1.388198e+001  3.836868e+001  2.938380e+001
      vertex  9.176020e+000  3.836868e+001  3.891495e+001
      vertex  9.520366e+000  3.836868e+001  3.898814e+001
    endloop
  endfacet
  facet normal  -0.000000e+000  1.000000e+000  0.000000e+000
    outer loop
      vertex  1.388198e+001  3.836868e+001  2.938380e+001
      vertex  9.520366e+000  3.836868e+001  3.898814e+001
      vertex  9.841969e+000  3.836868e+001  3.913133e+001
    endloop
  endfacet
  facet normal  -0.000000e+000  1.000000e+000  0.000000e+000
    outer loop
      vertex  1.388198e+001  3.836868e+001  2.938380e+001
      vertex  9.841969e+000  3.836868e+001  3.913133e+001
      vertex  1.012678e+001  3.836868e+001  3.933825e+001
    endloop
  endfacet
  facet normal  -0.000000e+000  1.000000e+000  0.000000e+000
    outer loop
      vertex  1.388198e+001  3.836868e+001  2.938380e+001
      vertex  1.012678e+001  3.836868e+001  3.933825e+001
      vertex  1.036234e+001  3.836868e+001  3.959987e+001
    endloop
  endfacet
  facet normal  -0.000000e+000  1.000000e+000  0.000000e+000
    outer loop
      vertex  1.388198e+001  3.836868e+001  2.938380e+001
      vertex  1.036234e+001  3.836868e+001  3.959987e+001
      vertex  1.053836e+001  3.836868e+001  3.990474e+001
    endloop
  endfacet
  facet normal  -0.000000e+000  1.000000e+000  0.000000e+000
    outer loop
      vertex  1.388198e+001  3.836868e+001  2.938380e+001
      vertex  1.053836e+001  3.836868e+001  3.990474e+001
      vertex  1.064714e+001  3.836868e+001  4.023956e+001
    endloop
  endfacet
  facet normal  -0.000000e+000  1.000000e+000  0.000000e+000
    outer loop
      vertex  1.388198e+001  3.836868e+001  2.938380e+001
      vertex  1.064714e+001  3.836868e+001  4.023956e+001
      vertex  1.068394e+001  3.836868e+001  4.058966e+001
    endloop
  endfacet
  facet normal  -0.000000e+000  9.999999e-001  -0.000000e+000
    outer loop
      vertex  1.388198e+001  3.836868e+001  2.938380e+001
      vertex  1.068394e+001  3.836868e+001  4.058966e+001
      vertex  1.064714e+001  3.836868e+001  4.093978e+001
    endloop
  endfacet
  facet normal  0.000000e+000  1.000000e+000  -0.000000e+000
    outer loop
      vertex  3.380590e+001  3.836868e+001  1.663950e+001
      vertex  3.380590e+001  3.836868e+001 -4.700963e+000
      vertex  2.055354e+001  3.836868e+001  2.938380e+001
    endloop
  endfacet
  facet normal  0.000000e+000  1.000000e+000  0.000000e+000
    outer loop
      vertex  2.055354e+001  3.836868e+001  2.938380e+001
      vertex  3.380590e+001  3.836868e+001 -4.700963e+000
      vertex  3.357654e+001  3.836868e+001 -4.885128e+000
    endloop
  endfacet
  facet normal  0.000000e+000  9.999999e-001  0.000000e+000
    outer loop
      vertex  2.055354e+001  3.836868e+001  2.938380e+001
      vertex  3.357654e+001  3.836868e+001 -4.885128e+000
      vertex  1.756766e+001  3.836868e+001  2.938380e+001
    endloop
  endfacet
  facet normal  0.000000e+000  1.000000e+000  0.000000e+000
    outer loop
      vertex  1.756766e+001  3.836868e+001  2.938380e+001
      vertex  3.357654e+001  3.836868e+001 -4.885128e+000
      vertex  2.000000e+000  3.836868e+001 -4.885128e+000
    endloop
  endfacet
  facet normal -9.945219e-001  0.000000e+000  1.045275e-001
    outer loop
      vertex  7.316061e+000  4.733973e+001  4.058966e+001
      vertex  7.316061e+000  3.836868e+001  4.058966e+001
      vertex  7.352859e+000  4.733973e+001  4.093978e+001
    endloop
  endfacet
  facet normal -9.945219e-001  0.000000e+000  1.045275e-001
    outer loop
      vertex  7.352859e+000  4.733973e+001  4.093978e+001
      vertex  7.316061e+000  3.836868e+001  4.058966e+001
      vertex  7.352859e+000  3.836868e+001  4.093978e+001
    endloop
  endfacet
  facet normal -9.510563e-001  0.000000e+000  3.090177e-001
    outer loop
      vertex  7.352859e+000  4.733973e+001  4.093978e+001
      vertex  7.352859e+000  3.836868e+001  4.093978e+001
      vertex  7.461645e+000  4.733973e+001  4.127459e+001
    endloop
  endfacet
  facet normal -9.510563e-001  0.000000e+000  3.090177e-001
    outer loop
      vertex  7.461645e+000  4.733973e+001  4.127459e+001
      vertex  7.352859e+000  3.836868e+001  4.093978e+001
      vertex  7.461645e+000  3.836868e+001  4.127459e+001
    endloop
  endfacet
  facet normal -8.660250e-001  0.000000e+000  5.000007e-001
    outer loop
      vertex  7.461645e+000  4.733973e+001  4.127459e+001
      vertex  7.461645e+000  3.836868e+001  4.127459e+001
      vertex  7.637664e+000  4.733973e+001  4.157946e+001
    endloop
  endfacet
  facet normal -8.660250e-001  0.000000e+000  5.000007e-001
    outer loop
      vertex  7.637664e+000  4.733973e+001  4.157946e+001
      vertex  7.461645e+000  3.836868e+001  4.127459e+001
      vertex  7.637664e+000  3.836868e+001  4.157946e+001
    endloop
  endfacet
  facet normal -7.431448e-001  0.000000e+000  6.691307e-001
    outer loop
      vertex  7.637664e+000  4.733973e+001  4.157946e+001
      vertex  7.637664e+000  3.836868e+001  4.157946e+001
      vertex  7.873224e+000  4.733973e+001  4.184108e+001
    endloop
  endfacet
  facet normal -7.431448e-001  0.000000e+000  6.691307e-001
    outer loop
      vertex  7.873224e+000  4.733973e+001  4.184108e+001
      vertex  7.637664e+000  3.836868e+001  4.157946e+001
      vertex  7.873224e+000  3.836868e+001  4.184108e+001
    endloop
  endfacet
  facet normal -5.877864e-001  0.000000e+000  8.090162e-001
    outer loop
      vertex  7.873224e+000  4.733973e+001  4.184108e+001
      vertex  7.873224e+000  3.836868e+001  4.184108e+001
      vertex  8.158031e+000  4.733973e+001  4.204800e+001
    endloop
  endfacet
  facet normal -5.877864e-001  0.000000e+000  8.090162e-001
    outer loop
      vertex  8.158031e+000  4.733973e+001  4.204800e+001
      vertex  7.873224e+000  3.836868e+001  4.184108e+001
      vertex  8.158031e+000  3.836868e+001  4.204800e+001
    endloop
  endfacet
  facet normal -4.067305e-001  0.000000e+000  9.135481e-001
    outer loop
      vertex  8.158031e+000  4.733973e+001  4.204800e+001
      vertex  8.158031e+000  3.836868e+001  4.204800e+001
      vertex  8.479634e+000  4.733973e+001  4.219118e+001
    endloop
  endfacet
  facet normal -4.067305e-001  0.000000e+000  9.135481e-001
    outer loop
      vertex  8.479634e+000  4.733973e+001  4.219118e+001
      vertex  8.158031e+000  3.836868e+001  4.204800e+001
      vertex  8.479634e+000  3.836868e+001  4.219118e+001
    endloop
  endfacet
  facet normal -2.079209e-001  0.000000e+000  9.781456e-001
    outer loop
      vertex  8.479634e+000  4.733973e+001  4.219118e+001
      vertex  8.479634e+000  3.836868e+001  4.219118e+001
      vertex  8.823980e+000  4.733973e+001  4.226438e+001
    endloop
  endfacet
  facet normal -2.079209e-001  0.000000e+000  9.781456e-001
    outer loop
      vertex  8.823980e+000  4.733973e+001  4.226438e+001
      vertex  8.479634e+000  3.836868e+001  4.219118e+001
      vertex  8.823980e+000  3.836868e+001  4.226438e+001
    endloop
  endfacet
  facet normal  0.000000e+000  0.000000e+000  1.000000e+000
    outer loop
      vertex  8.823980e+000  4.733973e+001  4.226438e+001
      vertex  8.823980e+000  3.836868e+001  4.226438e+001
      vertex  9.176020e+000  4.733973e+001  4.226438e+001
    endloop
  endfacet
  facet normal  0.000000e+000  0.000000e+000  1.000000e+000
    outer loop
      vertex  9.176020e+000  4.733973e+001  4.226438e+001
      vertex  8.823980e+000  3.836868e+001  4.226438e+001
      vertex  9.176020e+000  3.836868e+001  4.226438e+001
    endloop
  endfacet
  facet normal  2.079209e-001  -0.000000e+000  9.781456e-001
    outer loop
      vertex  9.176020e+000  4.733973e+001  4.226438e+001
      vertex  9.176020e+000  3.836868e+001  4.226438e+001
      vertex  9.520366e+000  4.733973e+001  4.219118e+001
    endloop
  endfacet
  facet normal  2.079209e-001  0.000000e+000  9.781456e-001
    outer loop
      vertex  9.520366e+000  4.733973e+001  4.219118e+001
      vertex  9.176020e+000  3.836868e+001  4.226438e+001
      vertex  9.520366e+000  3.836868e+001  4.219118e+001
    endloop
  endfacet
  facet normal  4.067305e-001  -0.000000e+000  9.135481e-001
    outer loop
      vertex  9.520366e+000  4.733973e+001  4.219118e+001
      vertex  9.520366e+000  3.836868e+001  4.219118e+001
      vertex  9.841969e+000  4.733973e+001  4.204800e+001
    endloop
  endfacet
  facet normal  4.067305e-001  0.000000e+000  9.135481e-001
    outer loop
      vertex  9.841969e+000  4.733973e+001  4.204800e+001
      vertex  9.520366e+000  3.836868e+001  4.219118e+001
      vertex  9.841969e+000  3.836868e+001  4.204800e+001
    endloop
  endfacet
  facet normal  5.877864e-001  -0.000000e+000  8.090162e-001
    outer loop
      vertex  9.841969e+000  4.733973e+001  4.204800e+001
      vertex  9.841969e+000  3.836868e+001  4.204800e+001
      vertex  1.012678e+001  4.733973e+001  4.184108e+001
    endloop
  endfacet
  facet normal  5.877864e-001  0.000000e+000  8.090162e-001
    outer loop
      vertex  1.012678e+001  4.733973e+001  4.184108e+001
      vertex  9.841969e+000  3.836868e+001  4.204800e+001
      vertex  1.012678e+001  3.836868e+001  4.184108e+001
    endloop
  endfacet
  facet normal  7.431441e-001  -0.000000e+000  6.691315e-001
    outer loop
      vertex  1.012678e+001  4.733973e+001  4.184108e+001
      vertex  1.012678e+001  3.836868e+001  4.184108e+001
      vertex  1.036234e+001  4.733973e+001  4.157946e+001
    endloop
  endfacet
  facet normal  7.431441e-001  0.000000e+000  6.691315e-001
    outer loop
      vertex  1.036234e+001  4.733973e+001  4.157946e+001
      vertex  1.012678e+001  3.836868e+001  4.184108e+001
      vertex  1.036234e+001  3.836868e+001  4.157946e+001
    endloop
  endfacet
  facet normal  8.660250e-001  -0.000000e+000  5.000007e-001
    outer loop
      vertex  1.036234e+001  4.733973e+001  4.157946e+001
      vertex  1.036234e+001  3.836868e+001  4.157946e+001
      vertex  1.053836e+001  4.733973e+001  4.127459e+001
    endloop
  endfacet
  facet normal  8.660250e-001  0.000000e+000  5.000007e-001
    outer loop
      vertex  1.053836e+001  4.733973e+001  4.127459e+001
      vertex  1.036234e+001  3.836868e+001  4.157946e+001
      vertex  1.053836e+001  3.836868e+001  4.127459e+001
    endloop
  endfacet
  facet normal  9.510567e-001  -0.000000e+000  3.090165e-001
    outer loop
      vertex  1.053836e+001  4.733973e+001  4.127459e+001
      vertex  1.053836e+001  3.836868e+001  4.127459e+001
      vertex  1.064714e+001  4.733973e+001  4.093978e+001
    endloop
  endfacet
  facet normal  9.510567e-001  0.000000e+000  3.090165e-001
    outer loop
      vertex  1.064714e+001  4.733973e+001  4.093978e+001
      vertex  1.053836e+001  3.836868e+001  4.127459e+001
      vertex  1.064714e+001  3.836868e+001  4.093978e+001
    endloop
  endfacet
  facet normal  9.945219e-001  -0.000000e+000  1.045288e-001
    outer loop
      vertex  1.064714e+001  4.733973e+001  4.093978e+001
      vertex  1.064714e+001  3.836868e+001  4.093978e+001
      vertex  1.068394e+001  4.733973e+001  4.058966e+001
    endloop
  endfacet
  facet normal  9.945219e-001  0.000000e+000  1.045288e-001
    outer loop
      vertex  1.068394e+001  4.733973e+001  4.058966e+001
      vertex  1.064714e+001  3.836868e+001  4.093978e+001
      vertex  1.068394e+001  3.836868e+001  4.058966e+001
    endloop
  endfacet
  facet normal  9.945217e-001  0.000000e+000 -1.045299e-001
    outer loop
      vertex  1.068394e+001  4.733973e+001  4.058966e+001
      vertex  1.068394e+001  3.836868e+001  4.058966e+001
      vertex  1.064714e+001  4.733973e+001  4.023956e+001
    endloop
  endfacet
  facet normal  9.945217e-001  0.000000e+000 -1.045299e-001
    outer loop
      vertex  1.064714e+001  4.733973e+001  4.023956e+001
      vertex  1.068394e+001  3.836868e+001  4.058966e+001
      vertex  1.064714e+001  3.836868e+001  4.023956e+001
    endloop
  endfacet
  facet normal  9.510577e-001  0.000000e+000 -3.090133e-001
    outer loop
      vertex  1.064714e+001  4.733973e+001  4.023956e+001
      vertex  1.064714e+001  3.836868e+001  4.023956e+001
      vertex  1.053836e+001  4.733973e+001  3.990474e+001
    endloop
  endfacet
  facet normal  9.510577e-001  0.000000e+000 -3.090133e-001
    outer loop
      vertex  1.053836e+001  4.733973e+001  3.990474e+001
      vertex  1.064714e+001  3.836868e+001  4.023956e+001
      vertex  1.053836e+001  3.836868e+001  3.990474e+001
    endloop
  endfacet
  facet normal  8.660250e-001  0.000000e+000 -5.000007e-001
    outer loop
      vertex  1.053836e+001  4.733973e+001  3.990474e+001
      vertex  1.053836e+001  3.836868e+001  3.990474e+001
      vertex  1.036234e+001  4.733973e+001  3.959987e+001
    endloop
  endfacet
  facet normal  8.660250e-001  0.000000e+000 -5.000007e-001
    outer loop
      vertex  1.036234e+001  4.733973e+001  3.959987e+001
      vertex  1.053836e+001  3.836868e+001  3.990474e+001
      vertex  1.036234e+001  3.836868e+001  3.959987e+001
    endloop
  endfacet
  facet normal  7.431441e-001  0.000000e+000 -6.691315e-001
    outer loop
      vertex  1.036234e+001  4.733973e+001  3.959987e+001
      vertex  1.036234e+001  3.836868e+001  3.959987e+001
      vertex  1.012678e+001  4.733973e+001  3.933825e+001
    endloop
  endfacet
  facet normal  7.431441e-001  0.000000e+000 -6.691315e-001
    outer loop
      vertex  1.012678e+001  4.733973e+001  3.933825e+001
      vertex  1.036234e+001  3.836868e+001  3.959987e+001
      vertex  1.012678e+001  3.836868e+001  3.933825e+001
    endloop
  endfacet
  facet normal  5.877792e-001  0.000000e+000 -8.090214e-001
    outer loop
      vertex  1.012678e+001  4.733973e+001  3.933825e+001
      vertex  1.012678e+001  3.836868e+001  3.933825e+001
      vertex  9.841969e+000  4.733973e+001  3.913133e+001
    endloop
  endfacet
  facet normal  5.877792e-001  0.000000e+000 -8.090214e-001
    outer loop
      vertex  9.841969e+000  4.733973e+001  3.913133e+001
      vertex  1.012678e+001  3.836868e+001  3.933825e+001
      vertex  9.841969e+000  3.836868e+001  3.913133e+001
    endloop
  endfacet
  facet normal  4.067396e-001  0.000000e+000 -9.135442e-001
    outer loop
      vertex  9.841969e+000  4.733973e+001  3.913133e+001
      vertex  9.841969e+000  3.836868e+001  3.913133e+001
      vertex  9.520366e+000  4.733973e+001  3.898814e+001
    endloop
  endfacet
  facet normal  4.067396e-001  0.000000e+000 -9.135442e-001
    outer loop
      vertex  9.520366e+000  4.733973e+001  3.898814e+001
      vertex  9.841969e+000  3.836868e+001  3.913133e+001
      vertex  9.520366e+000  3.836868e+001  3.898814e+001
    endloop
  endfacet
  facet normal  2.079106e-001  0.000000e+000 -9.781478e-001
    outer loop
      vertex  9.520366e+000  4.733973e+001  3.898814e+001
      vertex  9.520366e+000  3.836868e+001  3.898814e+001
      vertex  9.176020e+000  4.733973e+001  3.891495e+001
    endloop
  endfacet
  facet normal  2.079106e-001  0.000000e+000 -9.781478e-001
    outer loop
      vertex  9.176020e+000  4.733973e+001  3.891495e+001
      vertex  9.520366e+000  3.836868e+001  3.898814e+001
      vertex  9.176020e+000  3.836868e+001  3.891495e+001
    endloop
  endfacet
  facet normal  0.000000e+000  0.000000e+000 -1.000000e+000
    outer loop
      vertex  9.176020e+000  4.733973e+001  3.891495e+001
      vertex  9.176020e+000  3.836868e+001  3.891495e+001
      vertex  8.823980e+000  4.733973e+001  3.891495e+001
    endloop
  endfacet
  facet normal  0.000000e+000  0.000000e+000 -1.000000e+000
    outer loop
      vertex  8.823980e+000  4.733973e+001  3.891495e+001
      vertex  9.176020e+000  3.836868e+001  3.891495e+001
      vertex  8.823980e+000  3.836868e+001  3.891495e+001
    endloop
  endfacet
  facet normal -2.079106e-001  0.000000e+000 -9.781478e-001
    outer loop
      vertex  8.823980e+000  4.733973e+001  3.891495e+001
      vertex  8.823980e+000  3.836868e+001  3.891495e+001
      vertex  8.479634e+000  4.733973e+001  3.898814e+001
    endloop
  endfacet
  facet normal -2.079106e-001  -0.000000e+000 -9.781478e-001
    outer loop
      vertex  8.479634e+000  4.733973e+001  3.898814e+001
      vertex  8.823980e+000  3.836868e+001  3.891495e+001
      vertex  8.479634e+000  3.836868e+001  3.898814e+001
    endloop
  endfacet
  facet normal -4.067396e-001  0.000000e+000 -9.135442e-001
    outer loop
      vertex  8.479634e+000  4.733973e+001  3.898814e+001
      vertex  8.479634e+000  3.836868e+001  3.898814e+001
      vertex  8.158031e+000  4.733973e+001  3.913133e+001
    endloop
  endfacet
  facet normal -4.067396e-001  -0.000000e+000 -9.135442e-001
    outer loop
      vertex  8.158031e+000  4.733973e+001  3.913133e+001
      vertex  8.479634e+000  3.836868e+001  3.898814e+001
      vertex  8.158031e+000  3.836868e+001  3.913133e+001
    endloop
  endfacet
  facet normal -5.877792e-001  0.000000e+000 -8.090214e-001
    outer loop
      vertex  8.158031e+000  4.733973e+001  3.913133e+001
      vertex  8.158031e+000  3.836868e+001  3.913133e+001
      vertex  7.873224e+000  4.733973e+001  3.933825e+001
    endloop
  endfacet
  facet normal -5.877792e-001  -0.000000e+000 -8.090214e-001
    outer loop
      vertex  7.873224e+000  4.733973e+001  3.933825e+001
      vertex  8.158031e+000  3.836868e+001  3.913133e+001
      vertex  7.873224e+000  3.836868e+001  3.933825e+001
    endloop
  endfacet
  facet normal -7.431448e-001  0.000000e+000 -6.691307e-001
    outer loop
      vertex  7.873224e+000  4.733973e+001  3.933825e+001
      vertex  7.873224e+000  3.836868e+001  3.933825e+001
      vertex  7.637664e+000  4.733973e+001  3.959987e+001
    endloop
  endfacet
  facet normal -7.431448e-001  -0.000000e+000 -6.691307e-001
    outer loop
      vertex  7.637664e+000  4.733973e+001  3.959987e+001
      vertex  7.873224e+000  3.836868e+001  3.933825e+001
      vertex  7.637664e+000  3.836868e+001  3.959987e+001
    endloop
  endfacet
  facet normal -8.660250e-001  0.000000e+000 -5.000007e-001
    outer loop
      vertex  7.637664e+000  4.733973e+001  3.959987e+001
      vertex  7.637664e+000  3.836868e+001  3.959987e+001
      vertex  7.461645e+000  4.733973e+001  3.990474e+001
    endloop
  endfacet
  facet normal -8.660250e-001  -0.000000e+000 -5.000007e-001
    outer loop
      vertex  7.461645e+000  4.733973e+001  3.990474e+001
      vertex  7.637664e+000  3.836868e+001  3.959987e+001
      vertex  7.461645e+000  3.836868e+001  3.990474e+001
    endloop
  endfacet
  facet normal -9.510573e-001  0.000000e+000 -3.090145e-001
    outer loop
      vertex  7.461645e+000  4.733973e+001  3.990474e+001
      vertex  7.461645e+000  3.836868e+001  3.990474e+001
      vertex  7.352859e+000  4.733973e+001  4.023956e+001
    endloop
  endfacet
  facet normal -9.510573e-001  -0.000000e+000 -3.090145e-001
    outer loop
      vertex  7.352859e+000  4.733973e+001  4.023956e+001
      vertex  7.461645e+000  3.836868e+001  3.990474e+001
      vertex  7.352859e+000  3.836868e+001  4.023956e+001
    endloop
  endfacet
  facet normal -9.945219e-001  0.000000e+000 -1.045286e-001
    outer loop
      vertex  7.352859e+000  4.733973e+001  4.023956e+001
      vertex  7.352859e+000  3.836868e+001  4.023956e+001
      vertex  7.316061e+000  4.733973e+001  4.058966e+001
    endloop
  endfacet
  facet normal -9.945219e-001  -0.000000e+000 -1.045286e-001
    outer loop
      vertex  7.316061e+000  4.733973e+001  4.058966e+001
      vertex  7.352859e+000  3.836868e+001  4.023956e+001
      vertex  7.316061e+000  3.836868e+001  4.058966e+001
    endloop
  endfacet
  facet normal  -0.000000e+000  1.000000e+000  0.000000e+000
    outer loop
      vertex  1.068394e+001  4.733973e+001  4.058966e+001
      vertex  7.352859e+000  4.733973e+001  4.093978e+001
      vertex  1.064714e+001  4.733973e+001  4.093978e+001
    endloop
  endfacet
  facet normal  0.000000e+000  9.999999e-001  0.000000e+000
    outer loop
      vertex  1.064714e+001  4.733973e+001  4.093978e+001
      vertex  7.352859e+000  4.733973e+001  4.093978e+001
      vertex  7.461645e+000  4.733973e+001  4.127459e+001
    endloop
  endfacet
  facet normal  -0.000000e+000  1.000000e+000  0.000000e+000
    outer loop
      vertex  1.064714e+001  4.733973e+001  4.093978e+001
      vertex  7.461645e+000  4.733973e+001  4.127459e+001
      vertex  1.053836e+001  4.733973e+001  4.127459e+001
    endloop
  endfacet
  facet normal  0.000000e+000  1.000000e+000  0.000000e+000
    outer loop
      vertex  1.053836e+001  4.733973e+001  4.127459e+001
      vertex  7.461645e+000  4.733973e+001  4.127459e+001
      vertex  7.637664e+000  4.733973e+001  4.157946e+001
    endloop
  endfacet
  facet normal  -0.000000e+000  1.000000e+000  0.000000e+000
    outer loop
      vertex  1.053836e+001  4.733973e+001  4.127459e+001
      vertex  7.637664e+000  4.733973e+001  4.157946e+001
      vertex  1.036234e+001  4.733973e+001  4.157946e+001
    endloop
  endfacet
  facet normal  0.000000e+000  1.000000e+000  0.000000e+000
    outer loop
      vertex  1.036234e+001  4.733973e+001  4.157946e+001
      vertex  7.637664e+000  4.733973e+001  4.157946e+001
      vertex  7.873224e+000  4.733973e+001  4.184108e+001
    endloop
  endfacet
  facet normal  -0.000000e+000  1.000000e+000  0.000000e+000
    outer loop
      vertex  1.036234e+001  4.733973e+001  4.157946e+001
      vertex  7.873224e+000  4.733973e+001  4.184108e+001
      vertex  1.012678e+001  4.733973e+001  4.184108e+001
    endloop
  endfacet
  facet normal  0.000000e+000  1.000000e+000  0.000000e+000
    outer loop
      vertex  1.012678e+001  4.733973e+001  4.184108e+001
      vertex  7.873224e+000  4.733973e+001  4.184108e+001
      vertex  8.158031e+000  4.733973e+001  4.204800e+001
    endloop
  endfacet
  facet normal  -0.000000e+000  1.000000e+000  0.000000e+000
    outer loop
      vertex  1.012678e+001  4.733973e+001  4.184108e+001
      vertex  8.158031e+000  4.733973e+001  4.204800e+001
      vertex  9.841969e+000  4.733973e+001  4.204800e+001
    endloop
  endfacet
  facet normal  0.000000e+000  1.000000e+000  0.000000e+000
    outer loop
      vertex  9.841969e+000  4.733973e+001  4.204800e+001
      vertex  8.158031e+000  4.733973e+001  4.204800e+001
      vertex  8.479634e+000  4.733973e+001  4.219118e+001
    endloop
  endfacet
  facet normal  -0.000000e+000  9.999999e-001  0.000000e+000
    outer loop
      vertex  9.841969e+000  4.733973e+001  4.204800e+001
      vertex  8.479634e+000  4.733973e+001  4.219118e+001
      vertex  9.520366e+000  4.733973e+001  4.219118e+001
    endloop
  endfacet
  facet normal  0.000000e+000  1.000000e+000  0.000000e+000
    outer loop
      vertex  9.520366e+000  4.733973e+001  4.219118e+001
      vertex  8.479634e+000  4.733973e+001  4.219118e+001
      vertex  8.823980e+000  4.733973e+001  4.226438e+001
    endloop
  endfacet
  facet normal  -0.000000e+000  1.000000e+000  0.000000e+000
    outer loop
      vertex  9.520366e+000  4.733973e+001  4.219118e+001
      vertex  8.823980e+000  4.733973e+001  4.226438e+001
      vertex  9.176020e+000  4.733973e+001  4.226438e+001
    endloop
  endfacet
  facet normal  0.000000e+000  1.000000e+000  0.000000e+000
    outer loop
      vertex  7.352859e+000  4.733973e+001  4.093978e+001
      vertex  1.068394e+001  4.733973e+001  4.058966e+001
      vertex  7.316061e+000  4.733973e+001  4.058966e+001
    endloop
  endfacet
  facet normal  -0.000000e+000  1.000000e+000  0.000000e+000
    outer loop
      vertex  7.316061e+000  4.733973e+001  4.058966e+001
      vertex  1.068394e+001  4.733973e+001  4.058966e+001
      vertex  1.064714e+001  4.733973e+001  4.023956e+001
    endloop
  endfacet
  facet normal  0.000000e+000  1.000000e+000  0.000000e+000
    outer loop
      vertex  7.316061e+000  4.733973e+001  4.058966e+001
      vertex  1.064714e+001  4.733973e+001  4.023956e+001
      vertex  7.352859e+000  4.733973e+001  4.023956e+001
    endloop
  endfacet
  facet normal  -0.000000e+000  1.000000e+000  0.000000e+000
    outer loop
      vertex  7.352859e+000  4.733973e+001  4.023956e+001
      vertex  1.064714e+001  4.733973e+001  4.023956e+001
      vertex  1.053836e+001  4.733973e+001  3.990474e+001
    endloop
  endfacet
  facet normal  0.000000e+000  1.000000e+000  0.000000e+000
    outer loop
      vertex  7.352859e+000  4.733973e+001  4.023956e+001
      vertex  1.053836e+001  4.733973e+001  3.990474e+001
      vertex  7.461645e+000  4.733973e+001  3.990474e+001
    endloop
  endfacet
  facet normal  -0.000000e+000  1.000000e+000  0.000000e+000
    outer loop
      vertex  7.461645e+000  4.733973e+001  3.990474e+001
      vertex  1.053836e+001  4.733973e+001  3.990474e+001
      vertex  1.036234e+001  4.733973e+001  3.959987e+001
    endloop
  endfacet
  facet normal  0.000000e+000  1.000000e+000  0.000000e+000
    outer loop
      vertex  7.461645e+000  4.733973e+001  3.990474e+001
      vertex  1.036234e+001  4.733973e+001  3.959987e+001
      vertex  7.637664e+000  4.733973e+001  3.959987e+001
    endloop
  endfacet
  facet normal  -0.000000e+000  1.000000e+000  0.000000e+000
    outer loop
      vertex  7.637664e+000  4.733973e+001  3.959987e+001
      vertex  1.036234e+001  4.733973e+001  3.959987e+001
      vertex  1.012678e+001  4.733973e+001  3.933825e+001
    endloop
  endfacet
  facet normal  0.000000e+000  1.000000e+000  0.000000e+000
    outer loop
      vertex  7.637664e+000  4.733973e+001  3.959987e+001
      vertex  1.012678e+001  4.733973e+001  3.933825e+001
      vertex  7.873224e+000  4.733973e+001  3.933825e+001
    endloop
  endfacet
  facet normal  -0.000000e+000  1.000000e+000  0.000000e+000
    outer loop
      vertex  7.873224e+000  4.733973e+001  3.933825e+001
      vertex  1.012678e+001  4.733973e+001  3.933825e+001
      vertex  9.841969e+000  4.733973e+001  3.913133e+001
    endloop
  endfacet
  facet normal  0.000000e+000  1.000000e+000  0.000000e+000
    outer loop
      vertex  7.873224e+000  4.733973e+001  3.933825e+001
      vertex  9.841969e+000  4.733973e+001  3.913133e+001
      vertex  8.158031e+000  4.733973e+001  3.913133e+001
    endloop
  endfacet
  facet normal  -0.000000e+000  9.999999e-001  0.000000e+000
    outer loop
      vertex  8.158031e+000  4.733973e+001  3.913133e+001
      vertex  9.841969e+000  4.733973e+001  3.913133e+001
      vertex  9.520366e+000  4.733973e+001  3.898814e+001
    endloop
  endfacet
  facet normal  0.000000e+000  1.000000e+000  0.000000e+000
    outer loop
      vertex  8.158031e+000  4.733973e+001  3.913133e+001
      vertex  9.520366e+000  4.733973e+001  3.898814e+001
      vertex  8.479634e+000  4.733973e+001  3.898814e+001
    endloop
  endfacet
  facet normal  -0.000000e+000  1.000000e+000  0.000000e+000
    outer loop
      vertex  8.479634e+000  4.733973e+001  3.898814e+001
      vertex  9.520366e+000  4.733973e+001  3.898814e+001
      vertex  9.176020e+000  4.733973e+001  3.891495e+001
    endloop
  endfacet
  facet normal  0.000000e+000  1.000000e+000  0.000000e+000
    outer loop
      vertex  8.479634e+000  4.733973e+001  3.898814e+001
      vertex  9.176020e+000  4.733973e+001  3.891495e+001
      vertex  8.823980e+000  4.733973e+001  3.891495e+001
    endloop
  endfacet
  facet normal  1.000000e+000  0.000000e+000  -0.000000e+000
    outer loop
      vertex  2.442297e+000  3.267352e+001 -9.520083e+000
      vertex  2.442297e+000  3.284942e+001 -1.043707e+001
      vertex  2.442297e+000  3.797626e+001 -9.520083e+000
    endloop
  endfacet
  facet normal  1.000000e+000  0.000000e+000  0.000000e+000
    outer loop
      vertex  2.442297e+000  3.797626e+001 -9.520083e+000
      vertex  2.442297e+000  3.284942e+001 -1.043707e+001
      vertex  2.442297e+000  3.801992e+001 -1.043707e+001
    endloop
  endfacet
  facet normal  1.101748e-004  9.999509e-001 -9.918945e-003
    outer loop
      vertex  2.820329e+001  3.797041e+001 -9.199411e+000
      vertex  2.000000e+000  3.797208e+001 -9.322409e+000
      vertex  2.000000e+000  3.798315e+001 -8.206777e+000
    endloop
  endfacet
  facet normal  -0.000000e+000  9.997761e-001  2.116500e-002
    outer loop
      vertex  1.554123e+001  3.797626e+001 -9.520083e+000
      vertex  2.442297e+000  3.797626e+001 -9.520083e+000
      vertex  2.000000e+000  3.797208e+001 -9.322409e+000
    endloop
  endfacet
  facet normal -2.704742e-005  9.998134e-001  1.931297e-002
    outer loop
      vertex  1.554123e+001  3.797626e+001 -9.520083e+000
      vertex  2.000000e+000  3.797208e+001 -9.322409e+000
      vertex  2.820329e+001  3.797041e+001 -9.199411e+000
    endloop
  endfacet
  facet normal -5.882324e-004  9.991400e-001  4.145965e-002
    outer loop
      vertex  1.554123e+001  3.797626e+001 -9.520083e+000
      vertex  2.820329e+001  3.797041e+001 -9.199411e+000
      vertex  2.662211e+001  3.802216e+001 -1.046898e+001
    endloop
  endfacet
  facet normal  3.474825e-004  9.986281e-001  5.236186e-002
    outer loop
      vertex  1.554123e+001  3.797626e+001 -9.520083e+000
      vertex  2.662211e+001  3.802216e+001 -1.046898e+001
      vertex  1.554123e+001  3.803497e+001 -1.063975e+001
    endloop
  endfacet
  facet normal  1.180346e-002  9.987988e-001  4.755453e-002
    outer loop
      vertex  2.442297e+000  3.797626e+001 -9.520083e+000
      vertex  2.442297e+000  3.801992e+001 -1.043707e+001
      vertex  2.000000e+000  3.797208e+001 -9.322409e+000
    endloop
  endfacet
  facet normal  0.000000e+000  9.990801e-001  4.288299e-002
    outer loop
      vertex  2.000000e+000  3.797208e+001 -9.322409e+000
      vertex  2.442297e+000  3.801992e+001 -1.043707e+001
      vertex  2.000000e+000  3.801992e+001 -1.043707e+001
    endloop
  endfacet
  facet normal -2.376722e-004  9.998176e-001 -1.909960e-002
    outer loop
      vertex  2.820329e+001  3.797041e+001 -9.199411e+000
      vertex  2.000000e+000  3.798315e+001 -8.206777e+000
      vertex  2.978492e+001  3.799505e+001 -7.929494e+000
    endloop
  endfacet
  facet normal  1.981418e-004  9.980328e-001 -6.269351e-002
    outer loop
      vertex  2.978492e+001  3.799505e+001 -7.929494e+000
      vertex  2.000000e+000  3.798315e+001 -8.206777e+000
      vertex  2.000000e+000  3.805309e+001 -7.093285e+000
    endloop
  endfacet
  facet normal -1.250046e-004  9.973040e-001 -7.338018e-002
    outer loop
      vertex  2.978492e+001  3.799505e+001 -7.929494e+000
      vertex  2.000000e+000  3.805309e+001 -7.093285e+000
      vertex  3.105157e+001  3.807004e+001 -6.912478e+000
    endloop
  endfacet
  facet normal  1.381461e-004  9.933318e-001 -1.152903e-001
    outer loop
      vertex  3.105157e+001  3.807004e+001 -6.912478e+000
      vertex  2.000000e+000  3.805309e+001 -7.093285e+000
      vertex  2.000000e+000  3.818172e+001 -5.985039e+000
    endloop
  endfacet
  facet normal -6.485790e-005  9.925842e-001 -1.215593e-001
    outer loop
      vertex  3.105157e+001  3.807004e+001 -6.912478e+000
      vertex  2.000000e+000  3.818172e+001 -5.985039e+000
      vertex  3.231584e+001  3.819444e+001 -5.897364e+000
    endloop
  endfacet
  facet normal  7.102487e-005  9.858604e-001 -1.675690e-001
    outer loop
      vertex  3.231584e+001  3.819444e+001 -5.897364e+000
      vertex  2.000000e+000  3.818172e+001 -5.985039e+000
      vertex  2.000000e+000  3.836868e+001 -4.885128e+000
    endloop
  endfacet
  facet normal  0.000000e+000  9.855068e-001 -1.696353e-001
    outer loop
      vertex  3.231584e+001  3.819444e+001 -5.897364e+000
      vertex  2.000000e+000  3.836868e+001 -4.885128e+000
      vertex  3.357654e+001  3.836868e+001 -4.885128e+000
    endloop
  endfacet
  facet normal -3.422326e-004  9.555061e-001  2.949709e-001
    outer loop
      vertex  2.111937e+001  3.881359e+001 -1.488724e+001
      vertex  2.034795e+001  3.900453e+001 -1.550663e+001
      vertex  1.554123e+001  3.885882e+001 -1.504020e+001
    endloop
  endfacet
  facet normal  2.534659e-003  9.467735e-001  3.218905e-001
    outer loop
      vertex  1.554123e+001  3.885882e+001 -1.504020e+001
      vertex  2.034795e+001  3.900453e+001 -1.550663e+001
      vertex  1.994667e+001  3.920913e+001 -1.610527e+001
    endloop
  endfacet
  facet normal  0.000000e+000  9.499354e-001  3.124464e-001
    outer loop
      vertex  1.554123e+001  3.885882e+001 -1.504020e+001
      vertex  1.994667e+001  3.920913e+001 -1.610527e+001
      vertex  1.554123e+001  3.920913e+001 -1.610527e+001
    endloop
  endfacet
  facet normal -3.712782e-004  9.717602e-001  2.359699e-001
    outer loop
      vertex  2.268076e+001  3.848944e+001 -1.363357e+001
      vertex  2.189362e+001  3.864260e+001 -1.426558e+001
      vertex  1.554123e+001  3.856550e+001 -1.395805e+001
    endloop
  endfacet
  facet normal  1.071578e-003  9.645326e-001  2.639621e-001
    outer loop
      vertex  1.554123e+001  3.856550e+001 -1.395805e+001
      vertex  2.189362e+001  3.864260e+001 -1.426558e+001
      vertex  2.111937e+001  3.881359e+001 -1.488724e+001
    endloop
  endfacet
  facet normal  6.510126e-004  9.651738e-001  2.616086e-001
    outer loop
      vertex  1.554123e+001  3.856550e+001 -1.395805e+001
      vertex  2.111937e+001  3.881359e+001 -1.488724e+001
      vertex  1.554123e+001  3.885882e+001 -1.504020e+001
    endloop
  endfacet
  facet normal  8.705835e-004  9.776932e-001  2.100362e-001
    outer loop
      vertex  1.554123e+001  3.833001e+001 -1.286186e+001
      vertex  2.268076e+001  3.848944e+001 -1.363357e+001
      vertex  1.554123e+001  3.856550e+001 -1.395805e+001
    endloop
  endfacet
  facet normal  3.232772e-004  9.787230e-001  2.051855e-001
    outer loop
      vertex  2.268076e+001  3.848944e+001 -1.363357e+001
      vertex  1.554123e+001  3.833001e+001 -1.286186e+001
      vertex  2.347009e+001  3.835631e+001 -1.299979e+001
    endloop
  endfacet
  facet normal -5.287376e-004  9.874590e-001  1.578749e-001
    outer loop
      vertex  2.347009e+001  3.835631e+001 -1.299979e+001
      vertex  1.554123e+001  3.833001e+001 -1.286186e+001
      vertex  1.554123e+001  3.815300e+001 -1.175472e+001
    endloop
  endfacet
  facet normal -5.821502e-005  9.869879e-001  1.607944e-001
    outer loop
      vertex  2.347009e+001  3.835631e+001 -1.299979e+001
      vertex  1.554123e+001  3.815300e+001 -1.175472e+001
      vertex  2.504361e+001  3.815057e+001 -1.173639e+001
    endloop
  endfacet
  facet normal  5.081281e-005  9.944439e-001  1.052681e-001
    outer loop
      vertex  2.504361e+001  3.815057e+001 -1.173639e+001
      vertex  1.554123e+001  3.815300e+001 -1.175472e+001
      vertex  1.554123e+001  3.803497e+001 -1.063975e+001
    endloop
  endfacet
  facet normal -4.111957e-004  9.948550e-001  1.013081e-001
    outer loop
      vertex  2.504361e+001  3.815057e+001 -1.173639e+001
      vertex  1.554123e+001  3.803497e+001 -1.063975e+001
      vertex  2.662211e+001  3.802216e+001 -1.046898e+001
    endloop
  endfacet
  facet normal  -0.000000e+000 -9.999708e-001 -7.639113e-003
    outer loop
      vertex  3.203310e+001  3.233973e+001 -6.124385e+000
      vertex  3.512027e+001  3.233973e+001 -6.124385e+000
      vertex  3.612811e+001  3.233303e+001 -5.248027e+000
    endloop
  endfacet
  facet normal  0.000000e+000 -9.999709e-001 -7.639114e-003
    outer loop
      vertex  3.203310e+001  3.233973e+001 -6.124385e+000
      vertex  3.612811e+001  3.233303e+001 -5.248027e+000
      vertex  2.000000e+000  3.233973e+001 -6.124385e+000
    endloop
  endfacet
  facet normal  0.000000e+000 -9.988008e-001 -4.895848e-002
    outer loop
      vertex  3.203310e+001  3.233973e+001 -6.124385e+000
      vertex  2.000000e+000  3.233973e+001 -6.124385e+000
      vertex  2.000000e+000  3.239295e+001 -7.210179e+000
    endloop
  endfacet
  facet normal -1.501526e-004 -9.989952e-001 -4.481480e-002
    outer loop
      vertex  3.203310e+001  3.233973e+001 -6.124385e+000
      vertex  2.000000e+000  3.239295e+001 -7.210179e+000
      vertex  3.091471e+001  3.238018e+001 -7.022358e+000
    endloop
  endfacet
  facet normal -3.402424e-004 -9.811891e-001 -1.930487e-001
    outer loop
      vertex  1.554123e+001  3.267352e+001 -9.520083e+000
      vertex  1.554123e+001  3.289722e+001 -1.065711e+001
      vertex  2.661104e+001  3.285812e+001 -1.047787e+001
    endloop
  endfacet
  facet normal  5.414175e-004 -9.830715e-001 -1.832215e-001
    outer loop
      vertex  1.554123e+001  3.267352e+001 -9.520083e+000
      vertex  2.661104e+001  3.285812e+001 -1.047787e+001
      vertex  2.820148e+001  3.262099e+001 -9.200873e+000
    endloop
  endfacet
  facet normal -3.858813e-004 -9.890723e-001 -1.474310e-001
    outer loop
      vertex  1.554123e+001  3.267352e+001 -9.520083e+000
      vertex  2.820148e+001  3.262099e+001 -9.200873e+000
      vertex  2.000000e+000  3.249580e+001 -8.292400e+000
    endloop
  endfacet
  facet normal  2.960469e-004 -9.901423e-001 -1.400643e-001
    outer loop
      vertex  1.554123e+001  3.267352e+001 -9.520083e+000
      vertex  2.000000e+000  3.249580e+001 -8.292400e+000
      vertex  2.000000e+000  3.264806e+001 -9.368782e+000
    endloop
  endfacet
  facet normal  0.000000e+000 -9.861447e-001 -1.658876e-001
    outer loop
      vertex  1.554123e+001  3.267352e+001 -9.520083e+000
      vertex  2.000000e+000  3.264806e+001 -9.368782e+000
      vertex  2.442297e+000  3.267352e+001 -9.520083e+000
    endloop
  endfacet
  facet normal -7.932962e-003 -9.820620e-001 -1.883911e-001
    outer loop
      vertex  2.442297e+000  3.267352e+001 -9.520083e+000
      vertex  2.000000e+000  3.264806e+001 -9.368782e+000
      vertex  2.442297e+000  3.284942e+001 -1.043707e+001
    endloop
  endfacet
  facet normal  -0.000000e+000 -9.826959e-001 -1.852261e-001
    outer loop
      vertex  2.442297e+000  3.284942e+001 -1.043707e+001
      vertex  2.000000e+000  3.264806e+001 -9.368782e+000
      vertex  2.000000e+000  3.284942e+001 -1.043707e+001
    endloop
  endfacet
  facet normal  9.841449e-005 -9.965565e-001 -8.291546e-002
    outer loop
      vertex  3.091471e+001  3.238018e+001 -7.022358e+000
      vertex  2.000000e+000  3.239295e+001 -7.210179e+000
      vertex  2.979740e+001  3.245471e+001 -7.919476e+000
    endloop
  endfacet
  facet normal -2.023439e-004 -9.955143e-001 -9.461145e-002
    outer loop
      vertex  2.979740e+001  3.245471e+001 -7.919476e+000
      vertex  2.000000e+000  3.239295e+001 -7.210179e+000
      vertex  2.000000e+000  3.249580e+001 -8.292400e+000
    endloop
  endfacet
  facet normal  2.649313e-004 -9.916425e-001 -1.290150e-001
    outer loop
      vertex  2.979740e+001  3.245471e+001 -7.919476e+000
      vertex  2.000000e+000  3.249580e+001 -8.292400e+000
      vertex  2.820148e+001  3.262099e+001 -9.200873e+000
    endloop
  endfacet
  facet normal  0.000000e+000 -1.000000e+000  0.000000e+000
    outer loop
      vertex  2.000000e+000  3.233973e+001 -4.885128e+000
      vertex  2.000000e+000  3.233973e+001 -6.124385e+000
      vertex  3.357654e+001  3.233973e+001 -4.885128e+000
    endloop
  endfacet
  facet normal -5.673763e-004 -9.998953e-001  1.445686e-002
    outer loop
      vertex  3.357654e+001  3.233973e+001 -4.885128e+000
      vertex  2.000000e+000  3.233973e+001 -6.124385e+000
      vertex  3.612811e+001  3.233303e+001 -5.248027e+000
    endloop
  endfacet
  facet normal  0.000000e+000 -9.998299e-001  1.844491e-002
    outer loop
      vertex  3.357654e+001  3.233973e+001 -4.885128e+000
      vertex  3.612811e+001  3.233303e+001 -5.248027e+000
      vertex  3.612811e+001  3.233973e+001 -4.885128e+000
    endloop
  endfacet
  facet normal  -0.000000e+000 -9.054973e-001 -4.243521e-001
    outer loop
      vertex  1.554123e+001  3.482846e+001 -1.610527e+001
      vertex  1.994667e+001  3.482846e+001 -1.610527e+001
      vertex  1.554123e+001  3.433672e+001 -1.505596e+001
    endloop
  endfacet
  facet normal -2.363699e-003 -9.016449e-001 -4.324706e-001
    outer loop
      vertex  1.554123e+001  3.433672e+001 -1.505596e+001
      vertex  1.994667e+001  3.482846e+001 -1.610527e+001
      vertex  2.034795e+001  3.454028e+001 -1.550663e+001
    endloop
  endfacet
  facet normal  3.560233e-004 -9.127648e-001 -4.084853e-001
    outer loop
      vertex  1.554123e+001  3.433672e+001 -1.505596e+001
      vertex  2.034795e+001  3.454028e+001 -1.550663e+001
      vertex  2.111894e+001  3.426354e+001 -1.488758e+001
    endloop
  endfacet
  facet normal -6.755573e-004 -9.251171e-001 -3.796812e-001
    outer loop
      vertex  1.554123e+001  3.433672e+001 -1.505596e+001
      vertex  2.111894e+001  3.426354e+001 -1.488758e+001
      vertex  1.554123e+001  3.389673e+001 -1.398391e+001
    endloop
  endfacet
  facet normal -9.252662e-004 -9.245738e-001 -3.810019e-001
    outer loop
      vertex  1.554123e+001  3.389673e+001 -1.398391e+001
      vertex  2.111894e+001  3.426354e+001 -1.488758e+001
      vertex  2.189402e+001  3.400631e+001 -1.426525e+001
    endloop
  endfacet
  facet normal  9.783951e-004 -9.390901e-001 -3.436698e-001
    outer loop
      vertex  1.554123e+001  3.389673e+001 -1.398391e+001
      vertex  2.189402e+001  3.400631e+001 -1.426525e+001
      vertex  2.345500e+001  3.354926e+001 -1.301191e+001
    endloop
  endfacet
  facet normal  4.004731e-004 -9.715830e-001 -2.366988e-001
    outer loop
      vertex  2.661104e+001  3.285812e+001 -1.047787e+001
      vertex  1.554123e+001  3.289722e+001 -1.065711e+001
      vertex  2.502815e+001  3.316710e+001 -1.174880e+001
    endloop
  endfacet
  facet normal -8.572420e-005 -9.706040e-001 -2.406819e-001
    outer loop
      vertex  2.502815e+001  3.316710e+001 -1.174880e+001
      vertex  1.554123e+001  3.289722e+001 -1.065711e+001
      vertex  1.554123e+001  3.317613e+001 -1.178187e+001
    endloop
  endfacet
  facet normal  9.799454e-005 -9.571152e-001 -2.897075e-001
    outer loop
      vertex  2.502815e+001  3.316710e+001 -1.174880e+001
      vertex  1.554123e+001  3.317613e+001 -1.178187e+001
      vertex  2.345500e+001  3.354926e+001 -1.301191e+001
    endloop
  endfacet
  facet normal  4.329981e-004 -9.577106e-001 -2.877328e-001
    outer loop
      vertex  2.345500e+001  3.354926e+001 -1.301191e+001
      vertex  1.554123e+001  3.317613e+001 -1.178187e+001
      vertex  1.554123e+001  3.350956e+001 -1.289168e+001
    endloop
  endfacet
  facet normal -3.476406e-004 -9.425356e-001 -3.341053e-001
    outer loop
      vertex  2.345500e+001  3.354926e+001 -1.301191e+001
      vertex  1.554123e+001  3.350956e+001 -1.289168e+001
      vertex  1.554123e+001  3.389673e+001 -1.398391e+001
    endloop
  endfacet
  facet normal -1.000000e+000  0.000000e+000  0.000000e+000
    outer loop
      vertex  2.000000e+000  3.233973e+001 -4.885128e+000
      vertex  2.000000e+000  3.239295e+001 -7.210179e+000
      vertex  2.000000e+000  3.233973e+001 -6.124385e+000
    endloop
  endfacet
  facet normal -1.000000e+000  0.000000e+000  0.000000e+000
    outer loop
      vertex  2.000000e+000  3.801992e+001 -1.043707e+001
      vertex  2.000000e+000  3.284942e+001 -1.043707e+001
      vertex  2.000000e+000  3.797208e+001 -9.322409e+000
    endloop
  endfacet
  facet normal -1.000000e+000  -0.000000e+000  -0.000000e+000
    outer loop
      vertex  2.000000e+000  3.233973e+001  4.493271e+001
      vertex  2.000000e+000  3.836868e+001  4.493271e+001
      vertex  2.000000e+000  3.836868e+001 -4.885128e+000
    endloop
  endfacet
  facet normal -1.000000e+000  -0.000000e+000  0.000000e+000
    outer loop
      vertex  2.000000e+000  3.233973e+001  4.493271e+001
      vertex  2.000000e+000  3.836868e+001 -4.885128e+000
      vertex  2.000000e+000  3.818172e+001 -5.985039e+000
    endloop
  endfacet
  facet normal -1.000000e+000  -0.000000e+000  0.000000e+000
    outer loop
      vertex  2.000000e+000  3.233973e+001  4.493271e+001
      vertex  2.000000e+000  3.818172e+001 -5.985039e+000
      vertex  2.000000e+000  3.805309e+001 -7.093285e+000
    endloop
  endfacet
  facet normal -1.000000e+000  -0.000000e+000  0.000000e+000
    outer loop
      vertex  2.000000e+000  3.233973e+001  4.493271e+001
      vertex  2.000000e+000  3.805309e+001 -7.093285e+000
      vertex  2.000000e+000  3.798315e+001 -8.206777e+000
    endloop
  endfacet
  facet normal -1.000000e+000  -0.000000e+000  0.000000e+000
    outer loop
      vertex  2.000000e+000  3.233973e+001  4.493271e+001
      vertex  2.000000e+000  3.798315e+001 -8.206777e+000
      vertex  2.000000e+000  3.797208e+001 -9.322409e+000
    endloop
  endfacet
  facet normal -1.000000e+000  -0.000000e+000  0.000000e+000
    outer loop
      vertex  2.000000e+000  3.233973e+001  4.493271e+001
      vertex  2.000000e+000  3.797208e+001 -9.322409e+000
      vertex  2.000000e+000  3.284942e+001 -1.043707e+001
    endloop
  endfacet
  facet normal -9.999999e-001  0.000000e+000  0.000000e+000
    outer loop
      vertex  2.000000e+000  3.233973e+001  4.493271e+001
      vertex  2.000000e+000  3.284942e+001 -1.043707e+001
      vertex  2.000000e+000  3.264806e+001 -9.368782e+000
    endloop
  endfacet
  facet normal -9.999999e-001  0.000000e+000  0.000000e+000
    outer loop
      vertex  2.000000e+000  3.233973e+001  4.493271e+001
      vertex  2.000000e+000  3.264806e+001 -9.368782e+000
      vertex  2.000000e+000  3.249580e+001 -8.292400e+000
    endloop
  endfacet
  facet normal -1.000000e+000  0.000000e+000  0.000000e+000
    outer loop
      vertex  2.000000e+000  3.233973e+001  4.493271e+001
      vertex  2.000000e+000  3.249580e+001 -8.292400e+000
      vertex  2.000000e+000  3.239295e+001 -7.210179e+000
    endloop
  endfacet
  facet normal -1.000000e+000  0.000000e+000  0.000000e+000
    outer loop
      vertex  2.000000e+000  3.233973e+001  4.493271e+001
      vertex  2.000000e+000  3.239295e+001 -7.210179e+000
      vertex  2.000000e+000  3.233973e+001 -4.885128e+000
    endloop
  endfacet
  facet normal  -0.000000e+000  0.000000e+000 -1.000000e+000
    outer loop
      vertex  2.000000e+000  3.801992e+001 -1.043707e+001
      vertex  2.442297e+000  3.801992e+001 -1.043707e+001
      vertex  2.000000e+000  3.284942e+001 -1.043707e+001
    endloop
  endfacet
  facet normal  0.000000e+000  0.000000e+000 -1.000000e+000
    outer loop
      vertex  2.000000e+000  3.284942e+001 -1.043707e+001
      vertex  2.442297e+000  3.801992e+001 -1.043707e+001
      vertex  2.442297e+000  3.284942e+001 -1.043707e+001
    endloop
  endfacet
  facet normal  0.000000e+000  1.000000e+000  -0.000000e+000
    outer loop
      vertex  3.612811e+001  3.233973e+001 -4.885128e+000
      vertex  3.612811e+001  3.233973e+001 -5.248027e+000
      vertex  3.357654e+001  3.233973e+001 -4.885128e+000
    endloop
  endfacet
  facet normal  0.000000e+000  1.000000e+000  0.000000e+000
    outer loop
      vertex  3.357654e+001  3.233973e+001 -4.885128e+000
      vertex  3.612811e+001  3.233973e+001 -5.248027e+000
      vertex  3.512027e+001  3.233973e+001 -6.124385e+000
    endloop
  endfacet
  facet normal  0.000000e+000  9.999999e-001  0.000000e+000
    outer loop
      vertex  3.357654e+001  3.233973e+001 -4.885128e+000
      vertex  3.512027e+001  3.233973e+001 -6.124385e+000
      vertex  3.203310e+001  3.233973e+001 -6.124385e+000
    endloop
  endfacet
  facet normal  1.000000e+000  0.000000e+000  -0.000000e+000
    outer loop
      vertex  3.612811e+001  3.233303e+001 -5.248027e+000
      vertex  3.612811e+001  3.233973e+001 -5.248027e+000
      vertex  3.612811e+001  3.233973e+001 -4.885128e+000
    endloop
  endfacet
  facet normal  6.561685e-001  0.000000e+000 -7.546144e-001
    outer loop
      vertex  3.512027e+001  3.233973e+001 -6.124385e+000
      vertex  3.612811e+001  3.233973e+001 -5.248027e+000
      vertex  3.612811e+001  3.233303e+001 -5.248027e+000
    endloop
  endfacet
  facet normal  0.000000e+000  0.000000e+000  1.000000e+000
    outer loop
      vertex  2.000000e+000  3.233973e+001  4.493271e+001
      vertex  1.388198e+001  3.233973e+001  4.493271e+001
      vertex  2.000000e+000  3.836868e+001  4.493271e+001
    endloop
  endfacet
  facet normal  -0.000000e+000  0.000000e+000  1.000000e+000
    outer loop
      vertex  2.000000e+000  3.836868e+001  4.493271e+001
      vertex  1.388198e+001  3.233973e+001  4.493271e+001
      vertex  1.388198e+001  3.836868e+001  4.493271e+001
    endloop
  endfacet
  facet normal  1.000000e+000  0.000000e+000  0.000000e+000
    outer loop
      vertex  1.388198e+001  3.233973e+001  4.493271e+001
      vertex  1.388198e+001  3.233973e+001  2.938380e+001
      vertex  1.388198e+001  3.836868e+001  4.493271e+001
    endloop
  endfacet
  facet normal  1.000000e+000  0.000000e+000  0.000000e+000
    outer loop
      vertex  1.388198e+001  3.836868e+001  4.493271e+001
      vertex  1.388198e+001  3.233973e+001  2.938380e+001
      vertex  1.388198e+001  3.836868e+001  2.938380e+001
    endloop
  endfacet
  facet normal  0.000000e+000  0.000000e+000  1.000000e+000
    outer loop
      vertex  1.388198e+001  3.233973e+001  2.938380e+001
      vertex  1.756766e+001  3.233973e+001  2.938380e+001
      vertex  1.388198e+001  3.836868e+001  2.938380e+001
    endloop
  endfacet
  facet normal  -0.000000e+000  0.000000e+000  1.000000e+000
    outer loop
      vertex  1.388198e+001  3.836868e+001  2.938380e+001
      vertex  1.756766e+001  3.233973e+001  2.938380e+001
      vertex  1.756766e+001  3.836868e+001  2.938380e+001
    endloop
  endfacet
  facet normal  0.000000e+000  0.000000e+000  1.000000e+000
    outer loop
      vertex  1.756766e+001  3.233973e+001  2.938380e+001
      vertex  2.055354e+001  3.233973e+001  2.938380e+001
      vertex  1.756766e+001  3.836868e+001  2.938380e+001
    endloop
  endfacet
  facet normal  -0.000000e+000  0.000000e+000  1.000000e+000
    outer loop
      vertex  1.756766e+001  3.836868e+001  2.938380e+001
      vertex  2.055354e+001  3.233973e+001  2.938380e+001
      vertex  2.055354e+001  3.836868e+001  2.938380e+001
    endloop
  endfacet
  facet normal  6.931551e-001  0.000000e+000  7.207884e-001
    outer loop
      vertex  2.055354e+001  3.233973e+001  2.938380e+001
      vertex  3.380590e+001  3.233973e+001  1.663950e+001
      vertex  2.055354e+001  3.836868e+001  2.938380e+001
    endloop
  endfacet
  facet normal  6.931551e-001  0.000000e+000  7.207884e-001
    outer loop
      vertex  2.055354e+001  3.836868e+001  2.938380e+001
      vertex  3.380590e+001  3.233973e+001  1.663950e+001
      vertex  3.380590e+001  3.836868e+001  1.663950e+001
    endloop
  endfacet
  facet normal  1.000000e+000  0.000000e+000  0.000000e+000
    outer loop
      vertex  3.380590e+001  3.233973e+001  1.663950e+001
      vertex  3.380590e+001  3.233973e+001 -4.700963e+000
      vertex  3.380590e+001  3.836868e+001  1.663950e+001
    endloop
  endfacet
  facet normal  1.000000e+000  0.000000e+000  0.000000e+000
    outer loop
      vertex  3.380590e+001  3.836868e+001  1.663950e+001
      vertex  3.380590e+001  3.233973e+001 -4.700963e+000
      vertex  3.380590e+001  3.836868e+001 -4.700963e+000
    endloop
  endfacet
  facet normal  6.260870e-001  1.427201e-004 -7.797533e-001
    outer loop
      vertex  3.380590e+001  3.233973e+001 -4.700963e+000
      vertex  3.357654e+001  3.233973e+001 -4.885128e+000
      vertex  2.820148e+001  3.262099e+001 -9.200873e+000
    endloop
  endfacet
  facet normal  6.260827e-001  4.751737e-006 -7.797565e-001
    outer loop
      vertex  3.380590e+001  3.233973e+001 -4.700963e+000
      vertex  2.820148e+001  3.262099e+001 -9.200873e+000
      vertex  2.661104e+001  3.285812e+001 -1.047787e+001
    endloop
  endfacet
  facet normal  6.260825e-001 -1.208198e-006 -7.797568e-001
    outer loop
      vertex  3.380590e+001  3.233973e+001 -4.700963e+000
      vertex  2.661104e+001  3.285812e+001 -1.047787e+001
      vertex  2.502815e+001  3.316710e+001 -1.174880e+001
    endloop
  endfacet
  facet normal  6.260827e-001  1.590675e-006 -7.797567e-001
    outer loop
      vertex  3.380590e+001  3.233973e+001 -4.700963e+000
      vertex  2.502815e+001  3.316710e+001 -1.174880e+001
      vertex  2.345500e+001  3.354926e+001 -1.301191e+001
    endloop
  endfacet
  facet normal  6.260827e-001  2.940003e-006 -7.797566e-001
    outer loop
      vertex  3.380590e+001  3.233973e+001 -4.700963e+000
      vertex  2.345500e+001  3.354926e+001 -1.301191e+001
      vertex  2.189402e+001  3.400631e+001 -1.426525e+001
    endloop
  endfacet
  facet normal  6.260821e-001 -4.367800e-006 -7.797571e-001
    outer loop
      vertex  3.380590e+001  3.233973e+001 -4.700963e+000
      vertex  2.189402e+001  3.400631e+001 -1.426525e+001
      vertex  2.111894e+001  3.426354e+001 -1.488758e+001
    endloop
  endfacet
  facet normal  6.260823e-001 -2.322839e-006 -7.797570e-001
    outer loop
      vertex  3.380590e+001  3.233973e+001 -4.700963e+000
      vertex  2.111894e+001  3.426354e+001 -1.488758e+001
      vertex  2.034795e+001  3.454028e+001 -1.550663e+001
    endloop
  endfacet
  facet normal  6.260825e-001  8.109563e-008 -7.797568e-001
    outer loop
      vertex  3.380590e+001  3.233973e+001 -4.700963e+000
      vertex  2.034795e+001  3.454028e+001 -1.550663e+001
      vertex  2.820329e+001  3.797041e+001 -9.199411e+000
    endloop
  endfacet
  facet normal  6.260824e-001 -1.060036e-007 -7.797568e-001
    outer loop
      vertex  3.380590e+001  3.233973e+001 -4.700963e+000
      vertex  2.820329e+001  3.797041e+001 -9.199411e+000
      vertex  2.978492e+001  3.799505e+001 -7.929494e+000
    endloop
  endfacet
  facet normal  6.260822e-001 -4.033658e-007 -7.797570e-001
    outer loop
      vertex  3.380590e+001  3.233973e+001 -4.700963e+000
      vertex  2.978492e+001  3.799505e+001 -7.929494e+000
      vertex  3.105157e+001  3.807004e+001 -6.912478e+000
    endloop
  endfacet
  facet normal  6.260829e-001  1.594642e-007 -7.797564e-001
    outer loop
      vertex  3.380590e+001  3.233973e+001 -4.700963e+000
      vertex  3.105157e+001  3.807004e+001 -6.912478e+000
      vertex  3.231584e+001  3.819444e+001 -5.897364e+000
    endloop
  endfacet
  facet normal  6.260817e-001 -3.256168e-007 -7.797573e-001
    outer loop
      vertex  3.380590e+001  3.233973e+001 -4.700963e+000
      vertex  3.231584e+001  3.819444e+001 -5.897364e+000
      vertex  3.357654e+001  3.836868e+001 -4.885128e+000
    endloop
  endfacet
  facet normal  6.260870e-001  0.000000e+000 -7.797532e-001
    outer loop
      vertex  3.380590e+001  3.233973e+001 -4.700963e+000
      vertex  3.357654e+001  3.836868e+001 -4.885128e+000
      vertex  3.380590e+001  3.836868e+001 -4.700963e+000
    endloop
  endfacet
  facet normal  6.260826e-001  2.538006e-005 -7.797568e-001
    outer loop
      vertex  3.357654e+001  3.233973e+001 -4.885128e+000
      vertex  3.203310e+001  3.233973e+001 -6.124385e+000
      vertex  3.091471e+001  3.238018e+001 -7.022358e+000
    endloop
  endfacet
  facet normal  6.260824e-001  8.218784e-006 -7.797568e-001
    outer loop
      vertex  3.357654e+001  3.233973e+001 -4.885128e+000
      vertex  3.091471e+001  3.238018e+001 -7.022358e+000
      vertex  2.979740e+001  3.245471e+001 -7.919476e+000
    endloop
  endfacet
  facet normal  6.260820e-001 -1.125123e-005 -7.797571e-001
    outer loop
      vertex  3.357654e+001  3.233973e+001 -4.885128e+000
      vertex  2.979740e+001  3.245471e+001 -7.919476e+000
      vertex  2.820148e+001  3.262099e+001 -9.200873e+000
    endloop
  endfacet
  facet normal  6.260833e-001  0.000000e+000 -7.797562e-001
    outer loop
      vertex  2.034795e+001  3.454028e+001 -1.550663e+001
      vertex  2.034795e+001  3.900453e+001 -1.550663e+001
      vertex  2.111937e+001  3.881359e+001 -1.488724e+001
    endloop
  endfacet
  facet normal  6.260825e-001  2.140050e-007 -7.797568e-001
    outer loop
      vertex  2.034795e+001  3.454028e+001 -1.550663e+001
      vertex  2.111937e+001  3.881359e+001 -1.488724e+001
      vertex  2.189362e+001  3.864260e+001 -1.426558e+001
    endloop
  endfacet
  facet normal  6.260821e-001  4.965377e-007 -7.797572e-001
    outer loop
      vertex  2.034795e+001  3.454028e+001 -1.550663e+001
      vertex  2.189362e+001  3.864260e+001 -1.426558e+001
      vertex  2.268076e+001  3.848944e+001 -1.363357e+001
    endloop
  endfacet
  facet normal  6.260825e-001  6.692409e-008 -7.797568e-001
    outer loop
      vertex  2.034795e+001  3.454028e+001 -1.550663e+001
      vertex  2.268076e+001  3.848944e+001 -1.363357e+001
      vertex  2.347009e+001  3.835631e+001 -1.299979e+001
    endloop
  endfacet
  facet normal  6.260827e-001 -2.100568e-007 -7.797567e-001
    outer loop
      vertex  2.034795e+001  3.454028e+001 -1.550663e+001
      vertex  2.347009e+001  3.835631e+001 -1.299979e+001
      vertex  2.504361e+001  3.815057e+001 -1.173639e+001
    endloop
  endfacet
  facet normal  6.260824e-001  3.670538e-007 -7.797568e-001
    outer loop
      vertex  2.034795e+001  3.454028e+001 -1.550663e+001
      vertex  2.504361e+001  3.815057e+001 -1.173639e+001
      vertex  2.662211e+001  3.802216e+001 -1.046898e+001
    endloop
  endfacet
  facet normal  6.260825e-001  1.002898e-007 -7.797567e-001
    outer loop
      vertex  2.034795e+001  3.454028e+001 -1.550663e+001
      vertex  2.662211e+001  3.802216e+001 -1.046898e+001
      vertex  2.820329e+001  3.797041e+001 -9.199411e+000
    endloop
  endfacet
  facet normal  8.306490e-001  0.000000e+000 -5.567963e-001
    outer loop
      vertex  2.034795e+001  3.454028e+001 -1.550663e+001
      vertex  1.994667e+001  3.482846e+001 -1.610527e+001
      vertex  2.034795e+001  3.900453e+001 -1.550663e+001
    endloop
  endfacet
  facet normal  8.306490e-001  0.000000e+000 -5.567963e-001
    outer loop
      vertex  2.034795e+001  3.900453e+001 -1.550663e+001
      vertex  1.994667e+001  3.482846e+001 -1.610527e+001
      vertex  1.994667e+001  3.920913e+001 -1.610527e+001
    endloop
  endfacet
  facet normal  0.000000e+000  0.000000e+000 -1.000000e+000
    outer loop
      vertex  1.994667e+001  3.482846e+001 -1.610527e+001
      vertex  1.554123e+001  3.482846e+001 -1.610527e+001
      vertex  1.994667e+001  3.920913e+001 -1.610527e+001
    endloop
  endfacet
  facet normal  -0.000000e+000  0.000000e+000 -1.000000e+000
    outer loop
      vertex  1.994667e+001  3.920913e+001 -1.610527e+001
      vertex  1.554123e+001  3.482846e+001 -1.610527e+001
      vertex  1.554123e+001  3.920913e+001 -1.610527e+001
    endloop
  endfacet
  facet normal -1.000000e+000  0.000000e+000  0.000000e+000
    outer loop
      vertex  1.554123e+001  3.482846e+001 -1.610527e+001
      vertex  1.554123e+001  3.267352e+001 -9.520083e+000
      vertex  1.554123e+001  3.797626e+001 -9.520083e+000
    endloop
  endfacet
  facet normal -1.000000e+000  0.000000e+000  -0.000000e+000
    outer loop
      vertex  1.554123e+001  3.482846e+001 -1.610527e+001
      vertex  1.554123e+001  3.797626e+001 -9.520083e+000
      vertex  1.554123e+001  3.803497e+001 -1.063975e+001
    endloop
  endfacet
  facet normal -1.000000e+000  0.000000e+000  -0.000000e+000
    outer loop
      vertex  1.554123e+001  3.482846e+001 -1.610527e+001
      vertex  1.554123e+001  3.803497e+001 -1.063975e+001
      vertex  1.554123e+001  3.815300e+001 -1.175472e+001
    endloop
  endfacet
  facet normal -1.000000e+000  0.000000e+000  -0.000000e+000
    outer loop
      vertex  1.554123e+001  3.482846e+001 -1.610527e+001
      vertex  1.554123e+001  3.815300e+001 -1.175472e+001
      vertex  1.554123e+001  3.833001e+001 -1.286186e+001
    endloop
  endfacet
  facet normal -1.000000e+000  0.000000e+000  -0.000000e+000
    outer loop
      vertex  1.554123e+001  3.482846e+001 -1.610527e+001
      vertex  1.554123e+001  3.833001e+001 -1.286186e+001
      vertex  1.554123e+001  3.856550e+001 -1.395805e+001
    endloop
  endfacet
  facet normal -1.000000e+000  0.000000e+000  -0.000000e+000
    outer loop
      vertex  1.554123e+001  3.482846e+001 -1.610527e+001
      vertex  1.554123e+001  3.856550e+001 -1.395805e+001
      vertex  1.554123e+001  3.885882e+001 -1.504020e+001
    endloop
  endfacet
  facet normal -1.000000e+000  0.000000e+000  -0.000000e+000
    outer loop
      vertex  1.554123e+001  3.482846e+001 -1.610527e+001
      vertex  1.554123e+001  3.885882e+001 -1.504020e+001
      vertex  1.554123e+001  3.920913e+001 -1.610527e+001
    endloop
  endfacet
  facet normal -1.000000e+000  0.000000e+000  0.000000e+000
    outer loop
      vertex  1.554123e+001  3.267352e+001 -9.520083e+000
      vertex  1.554123e+001  3.482846e+001 -1.610527e+001
      vertex  1.554123e+001  3.433672e+001 -1.505596e+001
    endloop
  endfacet
  facet normal -1.000000e+000  0.000000e+000  0.000000e+000
    outer loop
      vertex  1.554123e+001  3.267352e+001 -9.520083e+000
      vertex  1.554123e+001  3.433672e+001 -1.505596e+001
      vertex  1.554123e+001  3.389673e+001 -1.398391e+001
    endloop
  endfacet
  facet normal -1.000000e+000  0.000000e+000  0.000000e+000
    outer loop
      vertex  1.554123e+001  3.267352e+001 -9.520083e+000
      vertex  1.554123e+001  3.389673e+001 -1.398391e+001
      vertex  1.554123e+001  3.350956e+001 -1.289168e+001
    endloop
  endfacet
  facet normal -1.000000e+000  0.000000e+000  0.000000e+000
    outer loop
      vertex  1.554123e+001  3.267352e+001 -9.520083e+000
      vertex  1.554123e+001  3.350956e+001 -1.289168e+001
      vertex  1.554123e+001  3.317613e+001 -1.178187e+001
    endloop
  endfacet
  facet normal -1.000000e+000  0.000000e+000  0.000000e+000
    outer loop
      vertex  1.554123e+001  3.267352e+001 -9.520083e+000
      vertex  1.554123e+001  3.317613e+001 -1.178187e+001
      vertex  1.554123e+001  3.289722e+001 -1.065711e+001
    endloop
  endfacet
  facet normal  0.000000e+000  0.000000e+000 -1.000000e+000
    outer loop
      vertex  2.442297e+000  3.267352e+001 -9.520083e+000
      vertex  2.442297e+000  3.797626e+001 -9.520083e+000
      vertex  1.554123e+001  3.267352e+001 -9.520083e+000
    endloop
  endfacet
  facet normal  0.000000e+000  0.000000e+000 -1.000000e+000
    outer loop
      vertex  1.554123e+001  3.267352e+001 -9.520083e+000
      vertex  2.442297e+000  3.797626e+001 -9.520083e+000
      vertex  1.554123e+001  3.797626e+001 -9.520083e+000
    endloop
  endfacet
endsolid CATIA STL
