solid CATIA STL
  facet normal  0.000000e+000  0.000000e+000 -1.000000e+000
    outer loop
      vertex  1.000000e+001  8.674284e+001 -3.846672e+001
      vertex  1.000000e+001  7.944765e+001 -3.846672e+001
      vertex  5.883883e+000  8.512672e+001 -3.846672e+001
    endloop
  endfacet
  facet normal  0.000000e+000  0.000000e+000 -1.000000e+000
    outer loop
      vertex  1.000000e+001  8.674284e+001 -3.846672e+001
      vertex  5.883883e+000  8.512672e+001 -3.846672e+001
      vertex  5.478354e+000  8.539769e+001 -3.846672e+001
    endloop
  endfacet
  facet normal  0.000000e+000  0.000000e+000 -1.000000e+000
    outer loop
      vertex  1.000000e+001  8.674284e+001 -3.846672e+001
      vertex  5.478354e+000  8.539769e+001 -3.846672e+001
      vertex  5.000000e+000  8.549284e+001 -3.846672e+001
    endloop
  endfacet
  facet normal  0.000000e+000  0.000000e+000 -1.000000e+000
    outer loop
      vertex  1.000000e+001  8.674284e+001 -3.846672e+001
      vertex  5.000000e+000  8.549284e+001 -3.846672e+001
      vertex  0.000000e+000  8.674284e+001 -3.846672e+001
    endloop
  endfacet
  facet normal  0.000000e+000  0.000000e+000 -1.000000e+000
    outer loop
      vertex  0.000000e+000  7.944765e+001 -3.846672e+001
      vertex  4.116117e+000  8.512672e+001 -3.846672e+001
      vertex  3.845150e+000  8.472120e+001 -3.846672e+001
    endloop
  endfacet
  facet normal  0.000000e+000  0.000000e+000 -1.000000e+000
    outer loop
      vertex  0.000000e+000  7.944765e+001 -3.846672e+001
      vertex  3.845150e+000  8.472120e+001 -3.846672e+001
      vertex  3.750000e+000  8.424284e+001 -3.846672e+001
    endloop
  endfacet
  facet normal  0.000000e+000  -0.000000e+000 -1.000000e+000
    outer loop
      vertex  0.000000e+000  7.944765e+001 -3.846672e+001
      vertex  3.750000e+000  8.424284e+001 -3.846672e+001
      vertex  3.845150e+000  8.376449e+001 -3.846672e+001
    endloop
  endfacet
  facet normal  0.000000e+000  -0.000000e+000 -1.000000e+000
    outer loop
      vertex  0.000000e+000  7.944765e+001 -3.846672e+001
      vertex  3.845150e+000  8.376449e+001 -3.846672e+001
      vertex  4.116117e+000  8.335896e+001 -3.846672e+001
    endloop
  endfacet
  facet normal  0.000000e+000  -0.000000e+000 -9.999999e-001
    outer loop
      vertex  0.000000e+000  7.944765e+001 -3.846672e+001
      vertex  4.116117e+000  8.335896e+001 -3.846672e+001
      vertex  4.521646e+000  8.308799e+001 -3.846672e+001
    endloop
  endfacet
  facet normal  0.000000e+000  -0.000000e+000 -1.000000e+000
    outer loop
      vertex  0.000000e+000  7.944765e+001 -3.846672e+001
      vertex  4.521646e+000  8.308799e+001 -3.846672e+001
      vertex  5.000000e+000  8.299284e+001 -3.846672e+001
    endloop
  endfacet
  facet normal  0.000000e+000  -0.000000e+000 -1.000000e+000
    outer loop
      vertex  0.000000e+000  7.944765e+001 -3.846672e+001
      vertex  5.000000e+000  8.299284e+001 -3.846672e+001
      vertex  1.000000e+001  7.944765e+001 -3.846672e+001
    endloop
  endfacet
  facet normal  -0.000000e+000  0.000000e+000 -1.000000e+000
    outer loop
      vertex  0.000000e+000  8.674284e+001 -3.846672e+001
      vertex  5.000000e+000  8.549284e+001 -3.846672e+001
      vertex  4.521646e+000  8.539769e+001 -3.846672e+001
    endloop
  endfacet
  facet normal  -0.000000e+000  0.000000e+000 -1.000000e+000
    outer loop
      vertex  0.000000e+000  8.674284e+001 -3.846672e+001
      vertex  4.521646e+000  8.539769e+001 -3.846672e+001
      vertex  4.116117e+000  8.512672e+001 -3.846672e+001
    endloop
  endfacet
  facet normal  -0.000000e+000  0.000000e+000 -1.000000e+000
    outer loop
      vertex  0.000000e+000  8.674284e+001 -3.846672e+001
      vertex  4.116117e+000  8.512672e+001 -3.846672e+001
      vertex  0.000000e+000  7.944765e+001 -3.846672e+001
    endloop
  endfacet
  facet normal  0.000000e+000  0.000000e+000 -1.000000e+000
    outer loop
      vertex  1.000000e+001  7.944765e+001 -3.846672e+001
      vertex  5.000000e+000  8.299284e+001 -3.846672e+001
      vertex  5.478354e+000  8.308799e+001 -3.846672e+001
    endloop
  endfacet
  facet normal  0.000000e+000  0.000000e+000 -9.999999e-001
    outer loop
      vertex  1.000000e+001  7.944765e+001 -3.846672e+001
      vertex  5.478354e+000  8.308799e+001 -3.846672e+001
      vertex  5.883883e+000  8.335896e+001 -3.846672e+001
    endloop
  endfacet
  facet normal  0.000000e+000  0.000000e+000 -1.000000e+000
    outer loop
      vertex  1.000000e+001  7.944765e+001 -3.846672e+001
      vertex  5.883883e+000  8.335896e+001 -3.846672e+001
      vertex  6.154850e+000  8.376449e+001 -3.846672e+001
    endloop
  endfacet
  facet normal  0.000000e+000  0.000000e+000 -1.000000e+000
    outer loop
      vertex  1.000000e+001  7.944765e+001 -3.846672e+001
      vertex  6.154850e+000  8.376449e+001 -3.846672e+001
      vertex  6.250000e+000  8.424284e+001 -3.846672e+001
    endloop
  endfacet
  facet normal  0.000000e+000  0.000000e+000 -1.000000e+000
    outer loop
      vertex  1.000000e+001  7.944765e+001 -3.846672e+001
      vertex  6.250000e+000  8.424284e+001 -3.846672e+001
      vertex  6.154850e+000  8.472120e+001 -3.846672e+001
    endloop
  endfacet
  facet normal  0.000000e+000  0.000000e+000 -1.000000e+000
    outer loop
      vertex  1.000000e+001  7.944765e+001 -3.846672e+001
      vertex  6.154850e+000  8.472120e+001 -3.846672e+001
      vertex  5.883883e+000  8.512672e+001 -3.846672e+001
    endloop
  endfacet
  facet normal  0.000000e+000  0.000000e+000 -1.000000e+000
    outer loop
      vertex  1.000000e+001  1.044476e+002 -3.846672e+001
      vertex  1.000000e+001  9.715245e+001 -3.846672e+001
      vertex  5.883883e+000  1.005363e+002 -3.846672e+001
    endloop
  endfacet
  facet normal  0.000000e+000  0.000000e+000 -9.999999e-001
    outer loop
      vertex  1.000000e+001  1.044476e+002 -3.846672e+001
      vertex  5.883883e+000  1.005363e+002 -3.846672e+001
      vertex  5.478354e+000  1.008073e+002 -3.846672e+001
    endloop
  endfacet
  facet normal  0.000000e+000  0.000000e+000 -1.000000e+000
    outer loop
      vertex  1.000000e+001  1.044476e+002 -3.846672e+001
      vertex  5.478354e+000  1.008073e+002 -3.846672e+001
      vertex  5.000000e+000  1.009025e+002 -3.846672e+001
    endloop
  endfacet
  facet normal  0.000000e+000  0.000000e+000 -1.000000e+000
    outer loop
      vertex  1.000000e+001  1.044476e+002 -3.846672e+001
      vertex  5.000000e+000  1.009025e+002 -3.846672e+001
      vertex  0.000000e+000  1.044476e+002 -3.846672e+001
    endloop
  endfacet
  facet normal  0.000000e+000  0.000000e+000 -1.000000e+000
    outer loop
      vertex  0.000000e+000  9.715245e+001 -3.846672e+001
      vertex  4.116117e+000  1.005363e+002 -3.846672e+001
      vertex  3.845150e+000  1.001308e+002 -3.846672e+001
    endloop
  endfacet
  facet normal  0.000000e+000  0.000000e+000 -1.000000e+000
    outer loop
      vertex  0.000000e+000  9.715245e+001 -3.846672e+001
      vertex  3.845150e+000  1.001308e+002 -3.846672e+001
      vertex  3.750000e+000  9.965245e+001 -3.846672e+001
    endloop
  endfacet
  facet normal  0.000000e+000  -0.000000e+000 -1.000000e+000
    outer loop
      vertex  0.000000e+000  9.715245e+001 -3.846672e+001
      vertex  3.750000e+000  9.965245e+001 -3.846672e+001
      vertex  3.845150e+000  9.917410e+001 -3.846672e+001
    endloop
  endfacet
  facet normal  0.000000e+000  -0.000000e+000 -1.000000e+000
    outer loop
      vertex  0.000000e+000  9.715245e+001 -3.846672e+001
      vertex  3.845150e+000  9.917410e+001 -3.846672e+001
      vertex  4.116117e+000  9.876857e+001 -3.846672e+001
    endloop
  endfacet
  facet normal  0.000000e+000  -0.000000e+000 -1.000000e+000
    outer loop
      vertex  0.000000e+000  9.715245e+001 -3.846672e+001
      vertex  4.116117e+000  9.876857e+001 -3.846672e+001
      vertex  4.521646e+000  9.849760e+001 -3.846672e+001
    endloop
  endfacet
  facet normal  0.000000e+000  -0.000000e+000 -1.000000e+000
    outer loop
      vertex  0.000000e+000  9.715245e+001 -3.846672e+001
      vertex  4.521646e+000  9.849760e+001 -3.846672e+001
      vertex  5.000000e+000  9.840245e+001 -3.846672e+001
    endloop
  endfacet
  facet normal  0.000000e+000  -0.000000e+000 -1.000000e+000
    outer loop
      vertex  0.000000e+000  9.715245e+001 -3.846672e+001
      vertex  5.000000e+000  9.840245e+001 -3.846672e+001
      vertex  1.000000e+001  9.715245e+001 -3.846672e+001
    endloop
  endfacet
  facet normal  -0.000000e+000  0.000000e+000 -1.000000e+000
    outer loop
      vertex  0.000000e+000  1.044476e+002 -3.846672e+001
      vertex  5.000000e+000  1.009025e+002 -3.846672e+001
      vertex  4.521646e+000  1.008073e+002 -3.846672e+001
    endloop
  endfacet
  facet normal  -0.000000e+000  0.000000e+000 -9.999999e-001
    outer loop
      vertex  0.000000e+000  1.044476e+002 -3.846672e+001
      vertex  4.521646e+000  1.008073e+002 -3.846672e+001
      vertex  4.116117e+000  1.005363e+002 -3.846672e+001
    endloop
  endfacet
  facet normal  -0.000000e+000  0.000000e+000 -1.000000e+000
    outer loop
      vertex  0.000000e+000  1.044476e+002 -3.846672e+001
      vertex  4.116117e+000  1.005363e+002 -3.846672e+001
      vertex  0.000000e+000  9.715245e+001 -3.846672e+001
    endloop
  endfacet
  facet normal  0.000000e+000  0.000000e+000 -1.000000e+000
    outer loop
      vertex  1.000000e+001  9.715245e+001 -3.846672e+001
      vertex  5.000000e+000  9.840245e+001 -3.846672e+001
      vertex  5.478354e+000  9.849760e+001 -3.846672e+001
    endloop
  endfacet
  facet normal  0.000000e+000  0.000000e+000 -1.000000e+000
    outer loop
      vertex  1.000000e+001  9.715245e+001 -3.846672e+001
      vertex  5.478354e+000  9.849760e+001 -3.846672e+001
      vertex  5.883883e+000  9.876857e+001 -3.846672e+001
    endloop
  endfacet
  facet normal  0.000000e+000  0.000000e+000 -1.000000e+000
    outer loop
      vertex  1.000000e+001  9.715245e+001 -3.846672e+001
      vertex  5.883883e+000  9.876857e+001 -3.846672e+001
      vertex  6.154850e+000  9.917410e+001 -3.846672e+001
    endloop
  endfacet
  facet normal  0.000000e+000  0.000000e+000 -1.000000e+000
    outer loop
      vertex  1.000000e+001  9.715245e+001 -3.846672e+001
      vertex  6.154850e+000  9.917410e+001 -3.846672e+001
      vertex  6.250000e+000  9.965245e+001 -3.846672e+001
    endloop
  endfacet
  facet normal  0.000000e+000  0.000000e+000 -1.000000e+000
    outer loop
      vertex  1.000000e+001  9.715245e+001 -3.846672e+001
      vertex  6.250000e+000  9.965245e+001 -3.846672e+001
      vertex  6.154850e+000  1.001308e+002 -3.846672e+001
    endloop
  endfacet
  facet normal  0.000000e+000  0.000000e+000 -1.000000e+000
    outer loop
      vertex  1.000000e+001  9.715245e+001 -3.846672e+001
      vertex  6.154850e+000  1.001308e+002 -3.846672e+001
      vertex  5.883883e+000  1.005363e+002 -3.846672e+001
    endloop
  endfacet
  facet normal  0.000000e+000  0.000000e+000  1.000000e+000
    outer loop
      vertex  4.521646e+000  8.539769e+001 -3.046672e+001
      vertex  5.000000e+000  9.840245e+001 -3.046672e+001
      vertex  4.116117e+000  8.512672e+001 -3.046672e+001
    endloop
  endfacet
  facet normal  0.000000e+000  0.000000e+000  1.000000e+000
    outer loop
      vertex  5.000000e+000  8.549284e+001 -3.046672e+001
      vertex  5.000000e+000  9.840245e+001 -3.046672e+001
      vertex  4.521646e+000  8.539769e+001 -3.046672e+001
    endloop
  endfacet
  facet normal  -0.000000e+000  -0.000000e+000  1.000000e+000
    outer loop
      vertex  5.000000e+000  9.840245e+001 -3.046672e+001
      vertex  5.478354e+000  8.539769e+001 -3.046672e+001
      vertex  5.883883e+000  8.512672e+001 -3.046672e+001
    endloop
  endfacet
  facet normal  -0.000000e+000  0.000000e+000  1.000000e+000
    outer loop
      vertex  5.000000e+000  9.840245e+001 -3.046672e+001
      vertex  5.000000e+000  8.549284e+001 -3.046672e+001
      vertex  5.478354e+000  8.539769e+001 -3.046672e+001
    endloop
  endfacet
  facet normal  0.000000e+000  0.000000e+000  1.000000e+000
    outer loop
      vertex  0.000000e+000  8.244765e+001 -3.046672e+001
      vertex  1.000000e+001  8.244765e+001 -3.046672e+001
      vertex  5.000000e+000  8.299284e+001 -3.046672e+001
    endloop
  endfacet
  facet normal  0.000000e+000  0.000000e+000  1.000000e+000
    outer loop
      vertex  0.000000e+000  8.244765e+001 -3.046672e+001
      vertex  5.000000e+000  8.299284e+001 -3.046672e+001
      vertex  4.521646e+000  8.308799e+001 -3.046672e+001
    endloop
  endfacet
  facet normal  0.000000e+000  0.000000e+000  1.000000e+000
    outer loop
      vertex  0.000000e+000  8.244765e+001 -3.046672e+001
      vertex  4.521646e+000  8.308799e+001 -3.046672e+001
      vertex  4.116117e+000  8.335896e+001 -3.046672e+001
    endloop
  endfacet
  facet normal  0.000000e+000  0.000000e+000  1.000000e+000
    outer loop
      vertex  0.000000e+000  8.244765e+001 -3.046672e+001
      vertex  4.116117e+000  8.335896e+001 -3.046672e+001
      vertex  3.845150e+000  8.376449e+001 -3.046672e+001
    endloop
  endfacet
  facet normal  0.000000e+000  0.000000e+000  9.999999e-001
    outer loop
      vertex  0.000000e+000  8.244765e+001 -3.046672e+001
      vertex  3.845150e+000  8.376449e+001 -3.046672e+001
      vertex  3.750000e+000  8.424284e+001 -3.046672e+001
    endloop
  endfacet
  facet normal  0.000000e+000  -0.000000e+000  9.999999e-001
    outer loop
      vertex  0.000000e+000  8.244765e+001 -3.046672e+001
      vertex  3.750000e+000  8.424284e+001 -3.046672e+001
      vertex  3.845150e+000  8.472120e+001 -3.046672e+001
    endloop
  endfacet
  facet normal  0.000000e+000  -0.000000e+000  9.999999e-001
    outer loop
      vertex  0.000000e+000  8.244765e+001 -3.046672e+001
      vertex  3.845150e+000  8.472120e+001 -3.046672e+001
      vertex  4.116117e+000  8.512672e+001 -3.046672e+001
    endloop
  endfacet
  facet normal  0.000000e+000  -0.000000e+000  1.000000e+000
    outer loop
      vertex  0.000000e+000  8.244765e+001 -3.046672e+001
      vertex  4.116117e+000  8.512672e+001 -3.046672e+001
      vertex  5.000000e+000  9.840245e+001 -3.046672e+001
    endloop
  endfacet
  facet normal  0.000000e+000  0.000000e+000  1.000000e+000
    outer loop
      vertex  0.000000e+000  8.244765e+001 -3.046672e+001
      vertex  5.000000e+000  9.840245e+001 -3.046672e+001
      vertex  4.521646e+000  9.849760e+001 -3.046672e+001
    endloop
  endfacet
  facet normal  0.000000e+000  0.000000e+000  9.999999e-001
    outer loop
      vertex  0.000000e+000  8.244765e+001 -3.046672e+001
      vertex  4.521646e+000  9.849760e+001 -3.046672e+001
      vertex  4.116117e+000  9.876857e+001 -3.046672e+001
    endloop
  endfacet
  facet normal  0.000000e+000  0.000000e+000  1.000000e+000
    outer loop
      vertex  0.000000e+000  8.244765e+001 -3.046672e+001
      vertex  4.116117e+000  9.876857e+001 -3.046672e+001
      vertex  3.845150e+000  9.917410e+001 -3.046672e+001
    endloop
  endfacet
  facet normal  0.000000e+000  0.000000e+000  1.000000e+000
    outer loop
      vertex  0.000000e+000  8.244765e+001 -3.046672e+001
      vertex  3.845150e+000  9.917410e+001 -3.046672e+001
      vertex  3.750000e+000  9.965245e+001 -3.046672e+001
    endloop
  endfacet
  facet normal  0.000000e+000  0.000000e+000  1.000000e+000
    outer loop
      vertex  0.000000e+000  1.104476e+002 -3.046672e+001
      vertex  0.000000e+000  8.244765e+001 -3.046672e+001
      vertex  3.750000e+000  9.965245e+001 -3.046672e+001
    endloop
  endfacet
  facet normal  0.000000e+000  -0.000000e+000  9.999999e-001
    outer loop
      vertex  0.000000e+000  1.104476e+002 -3.046672e+001
      vertex  3.750000e+000  9.965245e+001 -3.046672e+001
      vertex  3.845150e+000  1.001308e+002 -3.046672e+001
    endloop
  endfacet
  facet normal  0.000000e+000  -0.000000e+000  1.000000e+000
    outer loop
      vertex  0.000000e+000  1.104476e+002 -3.046672e+001
      vertex  3.845150e+000  1.001308e+002 -3.046672e+001
      vertex  4.116117e+000  1.005363e+002 -3.046672e+001
    endloop
  endfacet
  facet normal  0.000000e+000  -0.000000e+000  1.000000e+000
    outer loop
      vertex  0.000000e+000  1.104476e+002 -3.046672e+001
      vertex  4.116117e+000  1.005363e+002 -3.046672e+001
      vertex  4.521646e+000  1.008073e+002 -3.046672e+001
    endloop
  endfacet
  facet normal  0.000000e+000  -0.000000e+000  1.000000e+000
    outer loop
      vertex  0.000000e+000  1.104476e+002 -3.046672e+001
      vertex  4.521646e+000  1.008073e+002 -3.046672e+001
      vertex  5.000000e+000  1.009025e+002 -3.046672e+001
    endloop
  endfacet
  facet normal  0.000000e+000  0.000000e+000  9.999999e-001
    outer loop
      vertex  0.000000e+000  1.104476e+002 -3.046672e+001
      vertex  5.000000e+000  1.009025e+002 -3.046672e+001
      vertex  2.000000e+000  1.124476e+002 -3.046672e+001
    endloop
  endfacet
  facet normal  0.000000e+000  0.000000e+000  1.000000e+000
    outer loop
      vertex  1.000000e+001  8.244765e+001 -3.046672e+001
      vertex  6.250000e+000  9.965245e+001 -3.046672e+001
      vertex  6.154850e+000  9.917410e+001 -3.046672e+001
    endloop
  endfacet
  facet normal  0.000000e+000  0.000000e+000  1.000000e+000
    outer loop
      vertex  1.000000e+001  8.244765e+001 -3.046672e+001
      vertex  6.154850e+000  9.917410e+001 -3.046672e+001
      vertex  5.883883e+000  9.876857e+001 -3.046672e+001
    endloop
  endfacet
  facet normal  0.000000e+000  0.000000e+000  9.999999e-001
    outer loop
      vertex  1.000000e+001  8.244765e+001 -3.046672e+001
      vertex  5.883883e+000  9.876857e+001 -3.046672e+001
      vertex  5.478354e+000  9.849760e+001 -3.046672e+001
    endloop
  endfacet
  facet normal  0.000000e+000  0.000000e+000  1.000000e+000
    outer loop
      vertex  1.000000e+001  8.244765e+001 -3.046672e+001
      vertex  5.478354e+000  9.849760e+001 -3.046672e+001
      vertex  5.000000e+000  9.840245e+001 -3.046672e+001
    endloop
  endfacet
  facet normal  0.000000e+000  0.000000e+000  1.000000e+000
    outer loop
      vertex  1.000000e+001  8.244765e+001 -3.046672e+001
      vertex  5.000000e+000  9.840245e+001 -3.046672e+001
      vertex  5.883883e+000  8.512672e+001 -3.046672e+001
    endloop
  endfacet
  facet normal  0.000000e+000  0.000000e+000  9.999999e-001
    outer loop
      vertex  1.000000e+001  8.244765e+001 -3.046672e+001
      vertex  5.883883e+000  8.512672e+001 -3.046672e+001
      vertex  6.154850e+000  8.472120e+001 -3.046672e+001
    endloop
  endfacet
  facet normal  0.000000e+000  0.000000e+000  9.999999e-001
    outer loop
      vertex  1.000000e+001  8.244765e+001 -3.046672e+001
      vertex  6.154850e+000  8.472120e+001 -3.046672e+001
      vertex  6.250000e+000  8.424284e+001 -3.046672e+001
    endloop
  endfacet
  facet normal  0.000000e+000  0.000000e+000  9.999999e-001
    outer loop
      vertex  1.000000e+001  8.244765e+001 -3.046672e+001
      vertex  6.250000e+000  8.424284e+001 -3.046672e+001
      vertex  6.154850e+000  8.376449e+001 -3.046672e+001
    endloop
  endfacet
  facet normal  0.000000e+000  0.000000e+000  1.000000e+000
    outer loop
      vertex  1.000000e+001  8.244765e+001 -3.046672e+001
      vertex  6.154850e+000  8.376449e+001 -3.046672e+001
      vertex  5.883883e+000  8.335896e+001 -3.046672e+001
    endloop
  endfacet
  facet normal  0.000000e+000  0.000000e+000  1.000000e+000
    outer loop
      vertex  1.000000e+001  8.244765e+001 -3.046672e+001
      vertex  5.883883e+000  8.335896e+001 -3.046672e+001
      vertex  5.478354e+000  8.308799e+001 -3.046672e+001
    endloop
  endfacet
  facet normal  0.000000e+000  0.000000e+000  1.000000e+000
    outer loop
      vertex  1.000000e+001  8.244765e+001 -3.046672e+001
      vertex  5.478354e+000  8.308799e+001 -3.046672e+001
      vertex  5.000000e+000  8.299284e+001 -3.046672e+001
    endloop
  endfacet
  facet normal  0.000000e+000  0.000000e+000  1.000000e+000
    outer loop
      vertex  1.000000e+001  1.104476e+002 -3.046672e+001
      vertex  8.000000e+000  1.124476e+002 -3.046672e+001
      vertex  2.000000e+000  1.124476e+002 -3.046672e+001
    endloop
  endfacet
  facet normal  0.000000e+000  0.000000e+000  1.000000e+000
    outer loop
      vertex  1.000000e+001  1.104476e+002 -3.046672e+001
      vertex  2.000000e+000  1.124476e+002 -3.046672e+001
      vertex  5.000000e+000  1.009025e+002 -3.046672e+001
    endloop
  endfacet
  facet normal  -0.000000e+000  0.000000e+000  1.000000e+000
    outer loop
      vertex  1.000000e+001  1.104476e+002 -3.046672e+001
      vertex  5.000000e+000  1.009025e+002 -3.046672e+001
      vertex  5.478354e+000  1.008073e+002 -3.046672e+001
    endloop
  endfacet
  facet normal  -0.000000e+000  0.000000e+000  1.000000e+000
    outer loop
      vertex  1.000000e+001  1.104476e+002 -3.046672e+001
      vertex  5.478354e+000  1.008073e+002 -3.046672e+001
      vertex  5.883883e+000  1.005363e+002 -3.046672e+001
    endloop
  endfacet
  facet normal  -0.000000e+000  0.000000e+000  1.000000e+000
    outer loop
      vertex  1.000000e+001  1.104476e+002 -3.046672e+001
      vertex  5.883883e+000  1.005363e+002 -3.046672e+001
      vertex  6.154850e+000  1.001308e+002 -3.046672e+001
    endloop
  endfacet
  facet normal  -0.000000e+000  0.000000e+000  9.999999e-001
    outer loop
      vertex  1.000000e+001  1.104476e+002 -3.046672e+001
      vertex  6.154850e+000  1.001308e+002 -3.046672e+001
      vertex  6.250000e+000  9.965245e+001 -3.046672e+001
    endloop
  endfacet
  facet normal  -0.000000e+000  0.000000e+000  1.000000e+000
    outer loop
      vertex  1.000000e+001  1.104476e+002 -3.046672e+001
      vertex  6.250000e+000  9.965245e+001 -3.046672e+001
      vertex  1.000000e+001  8.244765e+001 -3.046672e+001
    endloop
  endfacet
  facet normal  1.950816e-001  9.807870e-001  -0.000000e+000
    outer loop
      vertex  5.000000e+000  8.299284e+001 -3.046672e+001
      vertex  4.521646e+000  8.308799e+001 -3.846672e+001
      vertex  4.521646e+000  8.308799e+001 -3.046672e+001
    endloop
  endfacet
  facet normal  5.555699e-001  8.314698e-001  0.000000e+000
    outer loop
      vertex  4.521646e+000  8.308799e+001 -3.046672e+001
      vertex  4.521646e+000  8.308799e+001 -3.846672e+001
      vertex  4.116117e+000  8.335896e+001 -3.846672e+001
    endloop
  endfacet
  facet normal  5.555699e-001  8.314698e-001  -0.000000e+000
    outer loop
      vertex  4.521646e+000  8.308799e+001 -3.046672e+001
      vertex  4.116117e+000  8.335896e+001 -3.846672e+001
      vertex  4.116117e+000  8.335896e+001 -3.046672e+001
    endloop
  endfacet
  facet normal  8.314719e-001  5.555670e-001  0.000000e+000
    outer loop
      vertex  4.116117e+000  8.335896e+001 -3.046672e+001
      vertex  4.116117e+000  8.335896e+001 -3.846672e+001
      vertex  3.845150e+000  8.376449e+001 -3.846672e+001
    endloop
  endfacet
  facet normal  8.314719e-001  5.555670e-001  -0.000000e+000
    outer loop
      vertex  4.116117e+000  8.335896e+001 -3.046672e+001
      vertex  3.845150e+000  8.376449e+001 -3.846672e+001
      vertex  3.845150e+000  8.376449e+001 -3.046672e+001
    endloop
  endfacet
  facet normal  9.807854e-001  1.950897e-001  0.000000e+000
    outer loop
      vertex  3.845150e+000  8.376449e+001 -3.046672e+001
      vertex  3.845150e+000  8.376449e+001 -3.846672e+001
      vertex  3.750000e+000  8.424284e+001 -3.846672e+001
    endloop
  endfacet
  facet normal  9.807854e-001  1.950897e-001  -0.000000e+000
    outer loop
      vertex  3.845150e+000  8.376449e+001 -3.046672e+001
      vertex  3.750000e+000  8.424284e+001 -3.846672e+001
      vertex  3.750000e+000  8.424284e+001 -3.046672e+001
    endloop
  endfacet
  facet normal  1.950816e-001  9.807870e-001  0.000000e+000
    outer loop
      vertex  4.521646e+000  8.308799e+001 -3.846672e+001
      vertex  5.000000e+000  8.299284e+001 -3.046672e+001
      vertex  5.000000e+000  8.299284e+001 -3.846672e+001
    endloop
  endfacet
  facet normal -1.950816e-001  9.807870e-001  0.000000e+000
    outer loop
      vertex  5.000000e+000  8.299284e+001 -3.846672e+001
      vertex  5.000000e+000  8.299284e+001 -3.046672e+001
      vertex  5.478354e+000  8.308799e+001 -3.046672e+001
    endloop
  endfacet
  facet normal -1.950816e-001  9.807870e-001  0.000000e+000
    outer loop
      vertex  5.000000e+000  8.299284e+001 -3.846672e+001
      vertex  5.478354e+000  8.308799e+001 -3.046672e+001
      vertex  5.478354e+000  8.308799e+001 -3.846672e+001
    endloop
  endfacet
  facet normal -5.555699e-001  8.314698e-001  0.000000e+000
    outer loop
      vertex  5.478354e+000  8.308799e+001 -3.846672e+001
      vertex  5.478354e+000  8.308799e+001 -3.046672e+001
      vertex  5.883883e+000  8.335896e+001 -3.046672e+001
    endloop
  endfacet
  facet normal -5.555699e-001  8.314698e-001  0.000000e+000
    outer loop
      vertex  5.478354e+000  8.308799e+001 -3.846672e+001
      vertex  5.883883e+000  8.335896e+001 -3.046672e+001
      vertex  5.883883e+000  8.335896e+001 -3.846672e+001
    endloop
  endfacet
  facet normal -8.314719e-001  5.555670e-001  0.000000e+000
    outer loop
      vertex  5.883883e+000  8.335896e+001 -3.846672e+001
      vertex  5.883883e+000  8.335896e+001 -3.046672e+001
      vertex  6.154850e+000  8.376449e+001 -3.046672e+001
    endloop
  endfacet
  facet normal -8.314719e-001  5.555670e-001  0.000000e+000
    outer loop
      vertex  5.883883e+000  8.335896e+001 -3.846672e+001
      vertex  6.154850e+000  8.376449e+001 -3.046672e+001
      vertex  6.154850e+000  8.376449e+001 -3.846672e+001
    endloop
  endfacet
  facet normal -9.807854e-001  1.950897e-001  0.000000e+000
    outer loop
      vertex  6.154850e+000  8.376449e+001 -3.846672e+001
      vertex  6.154850e+000  8.376449e+001 -3.046672e+001
      vertex  6.250000e+000  8.424284e+001 -3.046672e+001
    endloop
  endfacet
  facet normal -9.807854e-001  1.950897e-001  0.000000e+000
    outer loop
      vertex  6.154850e+000  8.376449e+001 -3.846672e+001
      vertex  6.250000e+000  8.424284e+001 -3.046672e+001
      vertex  6.250000e+000  8.424284e+001 -3.846672e+001
    endloop
  endfacet
  facet normal -1.950966e-001 -9.807840e-001  0.000000e+000
    outer loop
      vertex  5.000000e+000  8.549284e+001 -3.046672e+001
      vertex  5.478354e+000  8.539769e+001 -3.846672e+001
      vertex  5.478354e+000  8.539769e+001 -3.046672e+001
    endloop
  endfacet
  facet normal -5.555699e-001 -8.314698e-001  -0.000000e+000
    outer loop
      vertex  5.478354e+000  8.539769e+001 -3.046672e+001
      vertex  5.478354e+000  8.539769e+001 -3.846672e+001
      vertex  5.883883e+000  8.512672e+001 -3.846672e+001
    endloop
  endfacet
  facet normal -5.555699e-001 -8.314698e-001  0.000000e+000
    outer loop
      vertex  5.478354e+000  8.539769e+001 -3.046672e+001
      vertex  5.883883e+000  8.512672e+001 -3.846672e+001
      vertex  5.883883e+000  8.512672e+001 -3.046672e+001
    endloop
  endfacet
  facet normal -8.314670e-001 -5.555741e-001  -0.000000e+000
    outer loop
      vertex  5.883883e+000  8.512672e+001 -3.046672e+001
      vertex  5.883883e+000  8.512672e+001 -3.846672e+001
      vertex  6.154850e+000  8.472120e+001 -3.846672e+001
    endloop
  endfacet
  facet normal -8.314670e-001 -5.555741e-001  0.000000e+000
    outer loop
      vertex  5.883883e+000  8.512672e+001 -3.046672e+001
      vertex  6.154850e+000  8.472120e+001 -3.846672e+001
      vertex  6.154850e+000  8.472120e+001 -3.046672e+001
    endloop
  endfacet
  facet normal -9.807854e-001 -1.950897e-001  -0.000000e+000
    outer loop
      vertex  6.154850e+000  8.472120e+001 -3.046672e+001
      vertex  6.154850e+000  8.472120e+001 -3.846672e+001
      vertex  6.250000e+000  8.424284e+001 -3.846672e+001
    endloop
  endfacet
  facet normal -9.807854e-001 -1.950897e-001  0.000000e+000
    outer loop
      vertex  6.154850e+000  8.472120e+001 -3.046672e+001
      vertex  6.250000e+000  8.424284e+001 -3.846672e+001
      vertex  6.250000e+000  8.424284e+001 -3.046672e+001
    endloop
  endfacet
  facet normal -1.950966e-001 -9.807840e-001  -0.000000e+000
    outer loop
      vertex  5.478354e+000  8.539769e+001 -3.846672e+001
      vertex  5.000000e+000  8.549284e+001 -3.046672e+001
      vertex  5.000000e+000  8.549284e+001 -3.846672e+001
    endloop
  endfacet
  facet normal  1.950966e-001 -9.807840e-001  0.000000e+000
    outer loop
      vertex  5.000000e+000  8.549284e+001 -3.846672e+001
      vertex  5.000000e+000  8.549284e+001 -3.046672e+001
      vertex  4.521646e+000  8.539769e+001 -3.046672e+001
    endloop
  endfacet
  facet normal  1.950966e-001 -9.807840e-001  0.000000e+000
    outer loop
      vertex  5.000000e+000  8.549284e+001 -3.846672e+001
      vertex  4.521646e+000  8.539769e+001 -3.046672e+001
      vertex  4.521646e+000  8.539769e+001 -3.846672e+001
    endloop
  endfacet
  facet normal  5.555699e-001 -8.314698e-001  0.000000e+000
    outer loop
      vertex  4.521646e+000  8.539769e+001 -3.846672e+001
      vertex  4.521646e+000  8.539769e+001 -3.046672e+001
      vertex  4.116117e+000  8.512672e+001 -3.046672e+001
    endloop
  endfacet
  facet normal  5.555699e-001 -8.314698e-001  0.000000e+000
    outer loop
      vertex  4.521646e+000  8.539769e+001 -3.846672e+001
      vertex  4.116117e+000  8.512672e+001 -3.046672e+001
      vertex  4.116117e+000  8.512672e+001 -3.846672e+001
    endloop
  endfacet
  facet normal  8.314670e-001 -5.555741e-001  0.000000e+000
    outer loop
      vertex  4.116117e+000  8.512672e+001 -3.846672e+001
      vertex  4.116117e+000  8.512672e+001 -3.046672e+001
      vertex  3.845150e+000  8.472120e+001 -3.046672e+001
    endloop
  endfacet
  facet normal  8.314670e-001 -5.555741e-001  0.000000e+000
    outer loop
      vertex  4.116117e+000  8.512672e+001 -3.846672e+001
      vertex  3.845150e+000  8.472120e+001 -3.046672e+001
      vertex  3.845150e+000  8.472120e+001 -3.846672e+001
    endloop
  endfacet
  facet normal  9.807854e-001 -1.950897e-001  0.000000e+000
    outer loop
      vertex  3.845150e+000  8.472120e+001 -3.846672e+001
      vertex  3.845150e+000  8.472120e+001 -3.046672e+001
      vertex  3.750000e+000  8.424284e+001 -3.046672e+001
    endloop
  endfacet
  facet normal  9.807854e-001 -1.950897e-001  0.000000e+000
    outer loop
      vertex  3.845150e+000  8.472120e+001 -3.846672e+001
      vertex  3.750000e+000  8.424284e+001 -3.046672e+001
      vertex  3.750000e+000  8.424284e+001 -3.846672e+001
    endloop
  endfacet
  facet normal  1.950966e-001  9.807840e-001  -0.000000e+000
    outer loop
      vertex  5.000000e+000  9.840245e+001 -3.046672e+001
      vertex  4.521646e+000  9.849760e+001 -3.846672e+001
      vertex  4.521646e+000  9.849760e+001 -3.046672e+001
    endloop
  endfacet
  facet normal  5.555699e-001  8.314698e-001  0.000000e+000
    outer loop
      vertex  4.521646e+000  9.849760e+001 -3.046672e+001
      vertex  4.521646e+000  9.849760e+001 -3.846672e+001
      vertex  4.116117e+000  9.876857e+001 -3.846672e+001
    endloop
  endfacet
  facet normal  5.555699e-001  8.314698e-001  -0.000000e+000
    outer loop
      vertex  4.521646e+000  9.849760e+001 -3.046672e+001
      vertex  4.116117e+000  9.876857e+001 -3.846672e+001
      vertex  4.116117e+000  9.876857e+001 -3.046672e+001
    endloop
  endfacet
  facet normal  8.314670e-001  5.555741e-001  0.000000e+000
    outer loop
      vertex  4.116117e+000  9.876857e+001 -3.046672e+001
      vertex  4.116117e+000  9.876857e+001 -3.846672e+001
      vertex  3.845150e+000  9.917410e+001 -3.846672e+001
    endloop
  endfacet
  facet normal  8.314670e-001  5.555741e-001  -0.000000e+000
    outer loop
      vertex  4.116117e+000  9.876857e+001 -3.046672e+001
      vertex  3.845150e+000  9.917410e+001 -3.846672e+001
      vertex  3.845150e+000  9.917410e+001 -3.046672e+001
    endloop
  endfacet
  facet normal  9.807854e-001  1.950897e-001  0.000000e+000
    outer loop
      vertex  3.845150e+000  9.917410e+001 -3.046672e+001
      vertex  3.845150e+000  9.917410e+001 -3.846672e+001
      vertex  3.750000e+000  9.965245e+001 -3.846672e+001
    endloop
  endfacet
  facet normal  9.807854e-001  1.950897e-001  -0.000000e+000
    outer loop
      vertex  3.845150e+000  9.917410e+001 -3.046672e+001
      vertex  3.750000e+000  9.965245e+001 -3.846672e+001
      vertex  3.750000e+000  9.965245e+001 -3.046672e+001
    endloop
  endfacet
  facet normal  1.950966e-001  9.807840e-001  0.000000e+000
    outer loop
      vertex  4.521646e+000  9.849760e+001 -3.846672e+001
      vertex  5.000000e+000  9.840245e+001 -3.046672e+001
      vertex  5.000000e+000  9.840245e+001 -3.846672e+001
    endloop
  endfacet
  facet normal -1.950966e-001  9.807840e-001  0.000000e+000
    outer loop
      vertex  5.000000e+000  9.840245e+001 -3.846672e+001
      vertex  5.000000e+000  9.840245e+001 -3.046672e+001
      vertex  5.478354e+000  9.849760e+001 -3.046672e+001
    endloop
  endfacet
  facet normal -1.950966e-001  9.807840e-001  0.000000e+000
    outer loop
      vertex  5.000000e+000  9.840245e+001 -3.846672e+001
      vertex  5.478354e+000  9.849760e+001 -3.046672e+001
      vertex  5.478354e+000  9.849760e+001 -3.846672e+001
    endloop
  endfacet
  facet normal -5.555699e-001  8.314698e-001  0.000000e+000
    outer loop
      vertex  5.478354e+000  9.849760e+001 -3.846672e+001
      vertex  5.478354e+000  9.849760e+001 -3.046672e+001
      vertex  5.883883e+000  9.876857e+001 -3.046672e+001
    endloop
  endfacet
  facet normal -5.555699e-001  8.314698e-001  0.000000e+000
    outer loop
      vertex  5.478354e+000  9.849760e+001 -3.846672e+001
      vertex  5.883883e+000  9.876857e+001 -3.046672e+001
      vertex  5.883883e+000  9.876857e+001 -3.846672e+001
    endloop
  endfacet
  facet normal -8.314670e-001  5.555741e-001  0.000000e+000
    outer loop
      vertex  5.883883e+000  9.876857e+001 -3.846672e+001
      vertex  5.883883e+000  9.876857e+001 -3.046672e+001
      vertex  6.154850e+000  9.917410e+001 -3.046672e+001
    endloop
  endfacet
  facet normal -8.314670e-001  5.555741e-001  0.000000e+000
    outer loop
      vertex  5.883883e+000  9.876857e+001 -3.846672e+001
      vertex  6.154850e+000  9.917410e+001 -3.046672e+001
      vertex  6.154850e+000  9.917410e+001 -3.846672e+001
    endloop
  endfacet
  facet normal -9.807854e-001  1.950897e-001  0.000000e+000
    outer loop
      vertex  6.154850e+000  9.917410e+001 -3.846672e+001
      vertex  6.154850e+000  9.917410e+001 -3.046672e+001
      vertex  6.250000e+000  9.965245e+001 -3.046672e+001
    endloop
  endfacet
  facet normal -9.807854e-001  1.950897e-001  0.000000e+000
    outer loop
      vertex  6.154850e+000  9.917410e+001 -3.846672e+001
      vertex  6.250000e+000  9.965245e+001 -3.046672e+001
      vertex  6.250000e+000  9.965245e+001 -3.846672e+001
    endloop
  endfacet
  facet normal -1.950816e-001 -9.807870e-001  0.000000e+000
    outer loop
      vertex  5.000000e+000  1.009025e+002 -3.046672e+001
      vertex  5.478354e+000  1.008073e+002 -3.846672e+001
      vertex  5.478354e+000  1.008073e+002 -3.046672e+001
    endloop
  endfacet
  facet normal -5.555699e-001 -8.314698e-001  -0.000000e+000
    outer loop
      vertex  5.478354e+000  1.008073e+002 -3.046672e+001
      vertex  5.478354e+000  1.008073e+002 -3.846672e+001
      vertex  5.883883e+000  1.005363e+002 -3.846672e+001
    endloop
  endfacet
  facet normal -5.555699e-001 -8.314698e-001  0.000000e+000
    outer loop
      vertex  5.478354e+000  1.008073e+002 -3.046672e+001
      vertex  5.883883e+000  1.005363e+002 -3.846672e+001
      vertex  5.883883e+000  1.005363e+002 -3.046672e+001
    endloop
  endfacet
  facet normal -8.314719e-001 -5.555670e-001  -0.000000e+000
    outer loop
      vertex  5.883883e+000  1.005363e+002 -3.046672e+001
      vertex  5.883883e+000  1.005363e+002 -3.846672e+001
      vertex  6.154850e+000  1.001308e+002 -3.846672e+001
    endloop
  endfacet
  facet normal -8.314719e-001 -5.555670e-001  0.000000e+000
    outer loop
      vertex  5.883883e+000  1.005363e+002 -3.046672e+001
      vertex  6.154850e+000  1.001308e+002 -3.846672e+001
      vertex  6.154850e+000  1.001308e+002 -3.046672e+001
    endloop
  endfacet
  facet normal -9.807854e-001 -1.950897e-001  -0.000000e+000
    outer loop
      vertex  6.154850e+000  1.001308e+002 -3.046672e+001
      vertex  6.154850e+000  1.001308e+002 -3.846672e+001
      vertex  6.250000e+000  9.965245e+001 -3.846672e+001
    endloop
  endfacet
  facet normal -9.807854e-001 -1.950897e-001  0.000000e+000
    outer loop
      vertex  6.154850e+000  1.001308e+002 -3.046672e+001
      vertex  6.250000e+000  9.965245e+001 -3.846672e+001
      vertex  6.250000e+000  9.965245e+001 -3.046672e+001
    endloop
  endfacet
  facet normal -1.950816e-001 -9.807870e-001  -0.000000e+000
    outer loop
      vertex  5.478354e+000  1.008073e+002 -3.846672e+001
      vertex  5.000000e+000  1.009025e+002 -3.046672e+001
      vertex  5.000000e+000  1.009025e+002 -3.846672e+001
    endloop
  endfacet
  facet normal  1.950816e-001 -9.807870e-001  0.000000e+000
    outer loop
      vertex  5.000000e+000  1.009025e+002 -3.846672e+001
      vertex  5.000000e+000  1.009025e+002 -3.046672e+001
      vertex  4.521646e+000  1.008073e+002 -3.046672e+001
    endloop
  endfacet
  facet normal  1.950816e-001 -9.807870e-001  0.000000e+000
    outer loop
      vertex  5.000000e+000  1.009025e+002 -3.846672e+001
      vertex  4.521646e+000  1.008073e+002 -3.046672e+001
      vertex  4.521646e+000  1.008073e+002 -3.846672e+001
    endloop
  endfacet
  facet normal  5.555699e-001 -8.314698e-001  0.000000e+000
    outer loop
      vertex  4.521646e+000  1.008073e+002 -3.846672e+001
      vertex  4.521646e+000  1.008073e+002 -3.046672e+001
      vertex  4.116117e+000  1.005363e+002 -3.046672e+001
    endloop
  endfacet
  facet normal  5.555699e-001 -8.314698e-001  0.000000e+000
    outer loop
      vertex  4.521646e+000  1.008073e+002 -3.846672e+001
      vertex  4.116117e+000  1.005363e+002 -3.046672e+001
      vertex  4.116117e+000  1.005363e+002 -3.846672e+001
    endloop
  endfacet
  facet normal  8.314719e-001 -5.555670e-001  0.000000e+000
    outer loop
      vertex  4.116117e+000  1.005363e+002 -3.846672e+001
      vertex  4.116117e+000  1.005363e+002 -3.046672e+001
      vertex  3.845150e+000  1.001308e+002 -3.046672e+001
    endloop
  endfacet
  facet normal  8.314719e-001 -5.555670e-001  0.000000e+000
    outer loop
      vertex  4.116117e+000  1.005363e+002 -3.846672e+001
      vertex  3.845150e+000  1.001308e+002 -3.046672e+001
      vertex  3.845150e+000  1.001308e+002 -3.846672e+001
    endloop
  endfacet
  facet normal  9.807854e-001 -1.950897e-001  0.000000e+000
    outer loop
      vertex  3.845150e+000  1.001308e+002 -3.846672e+001
      vertex  3.845150e+000  1.001308e+002 -3.046672e+001
      vertex  3.750000e+000  9.965245e+001 -3.046672e+001
    endloop
  endfacet
  facet normal  9.807854e-001 -1.950897e-001  0.000000e+000
    outer loop
      vertex  3.845150e+000  1.001308e+002 -3.846672e+001
      vertex  3.750000e+000  9.965245e+001 -3.046672e+001
      vertex  3.750000e+000  9.965245e+001 -3.846672e+001
    endloop
  endfacet
  facet normal  -0.000000e+000  -0.000000e+000 -1.000000e+000
    outer loop
      vertex  8.000000e+000  1.124476e+002 -3.246672e+001
      vertex  1.000000e+001  1.104476e+002 -3.246672e+001
      vertex  1.000000e+001  1.054476e+002 -3.246672e+001
    endloop
  endfacet
  facet normal  0.000000e+000  0.000000e+000 -1.000000e+000
    outer loop
      vertex  5.329071e-015  1.104476e+002 -3.246672e+001
      vertex  2.000000e+000  1.124476e+002 -3.246672e+001
      vertex  5.329071e-015  1.054476e+002 -3.246672e+001
    endloop
  endfacet
  facet normal  0.000000e+000  0.000000e+000 -1.000000e+000
    outer loop
      vertex  5.329071e-015  1.054476e+002 -3.246672e+001
      vertex  2.000000e+000  1.124476e+002 -3.246672e+001
      vertex  8.000000e+000  1.124476e+002 -3.246672e+001
    endloop
  endfacet
  facet normal  0.000000e+000  -0.000000e+000 -1.000000e+000
    outer loop
      vertex  5.329071e-015  1.054476e+002 -3.246672e+001
      vertex  8.000000e+000  1.124476e+002 -3.246672e+001
      vertex  1.000000e+001  1.054476e+002 -3.246672e+001
    endloop
  endfacet
  facet normal  0.000000e+000  1.000000e+000  0.000000e+000
    outer loop
      vertex  0.000000e+000  1.044476e+002 -3.846672e+001
      vertex  0.000000e+000  1.044476e+002 -3.346672e+001
      vertex  1.000000e+001  1.044476e+002 -3.846672e+001
    endloop
  endfacet
  facet normal  0.000000e+000  1.000000e+000  -0.000000e+000
    outer loop
      vertex  1.000000e+001  1.044476e+002 -3.846672e+001
      vertex  0.000000e+000  1.044476e+002 -3.346672e+001
      vertex  1.000000e+001  1.044476e+002 -3.346672e+001
    endloop
  endfacet
  facet normal  1.000000e+000  0.000000e+000  0.000000e+000
    outer loop
      vertex  1.000000e+001  1.104476e+002 -3.046672e+001
      vertex  1.000000e+001  1.054476e+002 -3.246672e+001
      vertex  1.000000e+001  1.104476e+002 -3.246672e+001
    endloop
  endfacet
  facet normal  1.000000e+000  0.000000e+000  0.000000e+000
    outer loop
      vertex  1.000000e+001  1.044476e+002 -3.346672e+001
      vertex  1.000000e+001  9.138569e+001 -3.419660e+001
      vertex  1.000000e+001  9.250961e+001 -3.419660e+001
    endloop
  endfacet
  facet normal  1.000000e+000  -0.000000e+000  0.000000e+000
    outer loop
      vertex  1.000000e+001  1.044476e+002 -3.346672e+001
      vertex  1.000000e+001  9.250961e+001 -3.419660e+001
      vertex  1.000000e+001  9.360825e+001 -3.443359e+001
    endloop
  endfacet
  facet normal  1.000000e+000  -0.000000e+000  0.000000e+000
    outer loop
      vertex  1.000000e+001  1.044476e+002 -3.346672e+001
      vertex  1.000000e+001  9.360825e+001 -3.443359e+001
      vertex  1.000000e+001  1.044476e+002 -3.846672e+001
    endloop
  endfacet
  facet normal  1.000000e+000  0.000000e+000  0.000000e+000
    outer loop
      vertex  1.000000e+001  7.944765e+001 -3.346672e+001
      vertex  1.000000e+001  7.944765e+001 -3.846672e+001
      vertex  1.000000e+001  9.028705e+001 -3.443359e+001
    endloop
  endfacet
  facet normal  1.000000e+000  0.000000e+000  -0.000000e+000
    outer loop
      vertex  1.000000e+001  7.944765e+001 -3.346672e+001
      vertex  1.000000e+001  9.028705e+001 -3.443359e+001
      vertex  1.000000e+001  9.138569e+001 -3.419660e+001
    endloop
  endfacet
  facet normal  1.000000e+000  0.000000e+000  -0.000000e+000
    outer loop
      vertex  1.000000e+001  7.944765e+001 -3.346672e+001
      vertex  1.000000e+001  9.138569e+001 -3.419660e+001
      vertex  1.000000e+001  1.044476e+002 -3.346672e+001
    endloop
  endfacet
  facet normal  1.000000e+000  0.000000e+000  -0.000000e+000
    outer loop
      vertex  1.000000e+001  7.944765e+001 -3.346672e+001
      vertex  1.000000e+001  1.044476e+002 -3.346672e+001
      vertex  1.000000e+001  1.045238e+002 -3.308404e+001
    endloop
  endfacet
  facet normal  1.000000e+000  0.000000e+000  -0.000000e+000
    outer loop
      vertex  1.000000e+001  7.944765e+001 -3.346672e+001
      vertex  1.000000e+001  1.045238e+002 -3.308404e+001
      vertex  1.000000e+001  1.047405e+002 -3.275962e+001
    endloop
  endfacet
  facet normal  1.000000e+000  0.000000e+000  -0.000000e+000
    outer loop
      vertex  1.000000e+001  7.944765e+001 -3.346672e+001
      vertex  1.000000e+001  1.047405e+002 -3.275962e+001
      vertex  1.000000e+001  1.050650e+002 -3.254285e+001
    endloop
  endfacet
  facet normal  9.999999e-001  0.000000e+000  -0.000000e+000
    outer loop
      vertex  1.000000e+001  7.944765e+001 -3.346672e+001
      vertex  1.000000e+001  1.050650e+002 -3.254285e+001
      vertex  1.000000e+001  1.054476e+002 -3.246672e+001
    endloop
  endfacet
  facet normal  9.999999e-001  0.000000e+000  -0.000000e+000
    outer loop
      vertex  1.000000e+001  7.944765e+001 -3.346672e+001
      vertex  1.000000e+001  1.054476e+002 -3.246672e+001
      vertex  1.000000e+001  1.104476e+002 -3.046672e+001
    endloop
  endfacet
  facet normal  1.000000e+000  0.000000e+000  0.000000e+000
    outer loop
      vertex  1.000000e+001  7.944765e+001 -3.346672e+001
      vertex  1.000000e+001  1.104476e+002 -3.046672e+001
      vertex  1.000000e+001  8.244765e+001 -3.046672e+001
    endloop
  endfacet
  facet normal  1.000000e+000  0.000000e+000  -0.000000e+000
    outer loop
      vertex  1.000000e+001  7.944765e+001 -3.846672e+001
      vertex  1.000000e+001  8.674284e+001 -3.846672e+001
      vertex  1.000000e+001  8.707073e+001 -3.739170e+001
    endloop
  endfacet
  facet normal  1.000000e+000  0.000000e+000  -0.000000e+000
    outer loop
      vertex  1.000000e+001  7.944765e+001 -3.846672e+001
      vertex  1.000000e+001  8.707073e+001 -3.739170e+001
      vertex  1.000000e+001  8.761794e+001 -3.641000e+001
    endloop
  endfacet
  facet normal  1.000000e+000  0.000000e+000  -0.000000e+000
    outer loop
      vertex  1.000000e+001  7.944765e+001 -3.846672e+001
      vertex  1.000000e+001  8.761794e+001 -3.641000e+001
      vertex  1.000000e+001  8.835984e+001 -3.556575e+001
    endloop
  endfacet
  facet normal  1.000000e+000  0.000000e+000  -0.000000e+000
    outer loop
      vertex  1.000000e+001  7.944765e+001 -3.846672e+001
      vertex  1.000000e+001  8.835984e+001 -3.556575e+001
      vertex  1.000000e+001  8.926308e+001 -3.489692e+001
    endloop
  endfacet
  facet normal  9.999999e-001  0.000000e+000  -0.000000e+000
    outer loop
      vertex  1.000000e+001  7.944765e+001 -3.846672e+001
      vertex  1.000000e+001  8.926308e+001 -3.489692e+001
      vertex  1.000000e+001  9.028705e+001 -3.443359e+001
    endloop
  endfacet
  facet normal  9.999999e-001  0.000000e+000  0.000000e+000
    outer loop
      vertex  1.000000e+001  1.044476e+002 -3.846672e+001
      vertex  1.000000e+001  9.360825e+001 -3.443359e+001
      vertex  1.000000e+001  9.463221e+001 -3.489692e+001
    endloop
  endfacet
  facet normal  1.000000e+000  0.000000e+000  0.000000e+000
    outer loop
      vertex  1.000000e+001  1.044476e+002 -3.846672e+001
      vertex  1.000000e+001  9.463221e+001 -3.489692e+001
      vertex  1.000000e+001  9.553545e+001 -3.556575e+001
    endloop
  endfacet
  facet normal  1.000000e+000  0.000000e+000  0.000000e+000
    outer loop
      vertex  1.000000e+001  1.044476e+002 -3.846672e+001
      vertex  1.000000e+001  9.553545e+001 -3.556575e+001
      vertex  1.000000e+001  9.627736e+001 -3.641000e+001
    endloop
  endfacet
  facet normal  1.000000e+000  0.000000e+000  0.000000e+000
    outer loop
      vertex  1.000000e+001  1.044476e+002 -3.846672e+001
      vertex  1.000000e+001  9.627736e+001 -3.641000e+001
      vertex  1.000000e+001  9.682456e+001 -3.739170e+001
    endloop
  endfacet
  facet normal  1.000000e+000  0.000000e+000  0.000000e+000
    outer loop
      vertex  1.000000e+001  1.044476e+002 -3.846672e+001
      vertex  1.000000e+001  9.682456e+001 -3.739170e+001
      vertex  1.000000e+001  9.715245e+001 -3.846672e+001
    endloop
  endfacet
  facet normal -1.000000e+000  0.000000e+000 -2.664535e-015
    outer loop
      vertex  5.329071e-015  1.104476e+002 -3.246672e+001
      vertex  5.329071e-015  1.054476e+002 -3.246672e+001
      vertex  0.000000e+000  1.104476e+002 -3.046672e+001
    endloop
  endfacet
  facet normal -1.000000e+000  0.000000e+000  0.000000e+000
    outer loop
      vertex  0.000000e+000  1.044476e+002 -3.346672e+001
      vertex  0.000000e+000  1.044476e+002 -3.846672e+001
      vertex  0.000000e+000  9.360825e+001 -3.443359e+001
    endloop
  endfacet
  facet normal -1.000000e+000  0.000000e+000  0.000000e+000
    outer loop
      vertex  0.000000e+000  1.044476e+002 -3.346672e+001
      vertex  0.000000e+000  9.360825e+001 -3.443359e+001
      vertex  0.000000e+000  9.250961e+001 -3.419660e+001
    endloop
  endfacet
  facet normal -1.000000e+000  0.000000e+000  0.000000e+000
    outer loop
      vertex  0.000000e+000  1.044476e+002 -3.346672e+001
      vertex  0.000000e+000  9.250961e+001 -3.419660e+001
      vertex  0.000000e+000  9.138569e+001 -3.419660e+001
    endloop
  endfacet
  facet normal -1.000000e+000  0.000000e+000  -0.000000e+000
    outer loop
      vertex  0.000000e+000  7.944765e+001 -3.346672e+001
      vertex  0.000000e+000  8.244765e+001 -3.046672e+001
      vertex  0.000000e+000  1.104476e+002 -3.046672e+001
    endloop
  endfacet
  facet normal -9.999999e-001  3.401534e-016 -3.514919e-015
    outer loop
      vertex  0.000000e+000  7.944765e+001 -3.346672e+001
      vertex  0.000000e+000  1.104476e+002 -3.046672e+001
      vertex  5.329071e-015  1.054476e+002 -3.246672e+001
    endloop
  endfacet
  facet normal -9.999999e-001 -3.083883e-015  8.551004e-014
    outer loop
      vertex  0.000000e+000  7.944765e+001 -3.346672e+001
      vertex  5.329071e-015  1.054476e+002 -3.246672e+001
      vertex  0.000000e+000  1.050650e+002 -3.254285e+001
    endloop
  endfacet
  facet normal -1.000000e+000  0.000000e+000  0.000000e+000
    outer loop
      vertex  0.000000e+000  7.944765e+001 -3.346672e+001
      vertex  0.000000e+000  1.050650e+002 -3.254285e+001
      vertex  0.000000e+000  1.047405e+002 -3.275962e+001
    endloop
  endfacet
  facet normal -1.000000e+000  0.000000e+000  0.000000e+000
    outer loop
      vertex  0.000000e+000  7.944765e+001 -3.346672e+001
      vertex  0.000000e+000  1.047405e+002 -3.275962e+001
      vertex  0.000000e+000  1.045238e+002 -3.308404e+001
    endloop
  endfacet
  facet normal -1.000000e+000  0.000000e+000  0.000000e+000
    outer loop
      vertex  0.000000e+000  7.944765e+001 -3.346672e+001
      vertex  0.000000e+000  1.045238e+002 -3.308404e+001
      vertex  0.000000e+000  1.044476e+002 -3.346672e+001
    endloop
  endfacet
  facet normal -1.000000e+000  -0.000000e+000  0.000000e+000
    outer loop
      vertex  0.000000e+000  7.944765e+001 -3.346672e+001
      vertex  0.000000e+000  1.044476e+002 -3.346672e+001
      vertex  0.000000e+000  9.138569e+001 -3.419660e+001
    endloop
  endfacet
  facet normal -1.000000e+000  -0.000000e+000  0.000000e+000
    outer loop
      vertex  0.000000e+000  7.944765e+001 -3.346672e+001
      vertex  0.000000e+000  9.138569e+001 -3.419660e+001
      vertex  0.000000e+000  9.028705e+001 -3.443359e+001
    endloop
  endfacet
  facet normal -1.000000e+000  -0.000000e+000  0.000000e+000
    outer loop
      vertex  0.000000e+000  7.944765e+001 -3.346672e+001
      vertex  0.000000e+000  9.028705e+001 -3.443359e+001
      vertex  0.000000e+000  7.944765e+001 -3.846672e+001
    endloop
  endfacet
  facet normal -9.999999e-001  0.000000e+000  0.000000e+000
    outer loop
      vertex  0.000000e+000  7.944765e+001 -3.846672e+001
      vertex  0.000000e+000  9.028705e+001 -3.443359e+001
      vertex  0.000000e+000  8.926308e+001 -3.489692e+001
    endloop
  endfacet
  facet normal -1.000000e+000  0.000000e+000  0.000000e+000
    outer loop
      vertex  0.000000e+000  7.944765e+001 -3.846672e+001
      vertex  0.000000e+000  8.926308e+001 -3.489692e+001
      vertex  0.000000e+000  8.835984e+001 -3.556575e+001
    endloop
  endfacet
  facet normal -1.000000e+000  0.000000e+000  0.000000e+000
    outer loop
      vertex  0.000000e+000  7.944765e+001 -3.846672e+001
      vertex  0.000000e+000  8.835984e+001 -3.556575e+001
      vertex  0.000000e+000  8.761794e+001 -3.641000e+001
    endloop
  endfacet
  facet normal -1.000000e+000  0.000000e+000  0.000000e+000
    outer loop
      vertex  0.000000e+000  7.944765e+001 -3.846672e+001
      vertex  0.000000e+000  8.761794e+001 -3.641000e+001
      vertex  0.000000e+000  8.707073e+001 -3.739170e+001
    endloop
  endfacet
  facet normal -1.000000e+000  0.000000e+000  0.000000e+000
    outer loop
      vertex  0.000000e+000  7.944765e+001 -3.846672e+001
      vertex  0.000000e+000  8.707073e+001 -3.739170e+001
      vertex  0.000000e+000  8.674284e+001 -3.846672e+001
    endloop
  endfacet
  facet normal -1.000000e+000  0.000000e+000  0.000000e+000
    outer loop
      vertex  0.000000e+000  1.044476e+002 -3.846672e+001
      vertex  0.000000e+000  9.715245e+001 -3.846672e+001
      vertex  0.000000e+000  9.682456e+001 -3.739170e+001
    endloop
  endfacet
  facet normal -1.000000e+000  0.000000e+000  0.000000e+000
    outer loop
      vertex  0.000000e+000  1.044476e+002 -3.846672e+001
      vertex  0.000000e+000  9.682456e+001 -3.739170e+001
      vertex  0.000000e+000  9.627736e+001 -3.641000e+001
    endloop
  endfacet
  facet normal -1.000000e+000  0.000000e+000  0.000000e+000
    outer loop
      vertex  0.000000e+000  1.044476e+002 -3.846672e+001
      vertex  0.000000e+000  9.627736e+001 -3.641000e+001
      vertex  0.000000e+000  9.553545e+001 -3.556575e+001
    endloop
  endfacet
  facet normal -1.000000e+000  0.000000e+000  0.000000e+000
    outer loop
      vertex  0.000000e+000  1.044476e+002 -3.846672e+001
      vertex  0.000000e+000  9.553545e+001 -3.556575e+001
      vertex  0.000000e+000  9.463221e+001 -3.489692e+001
    endloop
  endfacet
  facet normal -9.999999e-001  0.000000e+000  0.000000e+000
    outer loop
      vertex  0.000000e+000  1.044476e+002 -3.846672e+001
      vertex  0.000000e+000  9.463221e+001 -3.489692e+001
      vertex  0.000000e+000  9.360825e+001 -3.443359e+001
    endloop
  endfacet
  facet normal  0.000000e+000  8.314692e-001 -5.555707e-001
    outer loop
      vertex  0.000000e+000  1.047405e+002 -3.275962e+001
      vertex  1.000000e+001  1.045238e+002 -3.308404e+001
      vertex  0.000000e+000  1.045238e+002 -3.308404e+001
    endloop
  endfacet
  facet normal  0.000000e+000  9.807861e-001 -1.950857e-001
    outer loop
      vertex  0.000000e+000  1.045238e+002 -3.308404e+001
      vertex  1.000000e+001  1.045238e+002 -3.308404e+001
      vertex  1.000000e+001  1.044476e+002 -3.346672e+001
    endloop
  endfacet
  facet normal  0.000000e+000  9.807861e-001 -1.950857e-001
    outer loop
      vertex  0.000000e+000  1.045238e+002 -3.308404e+001
      vertex  1.000000e+001  1.044476e+002 -3.346672e+001
      vertex  0.000000e+000  1.044476e+002 -3.346672e+001
    endloop
  endfacet
  facet normal  0.000000e+000  8.314692e-001 -5.555707e-001
    outer loop
      vertex  1.000000e+001  1.045238e+002 -3.308404e+001
      vertex  0.000000e+000  1.047405e+002 -3.275962e+001
      vertex  1.000000e+001  1.047405e+002 -3.275962e+001
    endloop
  endfacet
  facet normal  0.000000e+000  5.555640e-001 -8.314738e-001
    outer loop
      vertex  1.000000e+001  1.047405e+002 -3.275962e+001
      vertex  0.000000e+000  1.047405e+002 -3.275962e+001
      vertex  0.000000e+000  1.050650e+002 -3.254285e+001
    endloop
  endfacet
  facet normal  0.000000e+000  5.555640e-001 -8.314738e-001
    outer loop
      vertex  1.000000e+001  1.047405e+002 -3.275962e+001
      vertex  0.000000e+000  1.050650e+002 -3.254285e+001
      vertex  1.000000e+001  1.050650e+002 -3.254285e+001
    endloop
  endfacet
  facet normal  0.000000e+000  1.950951e-001 -9.807843e-001
    outer loop
      vertex  1.000000e+001  1.050650e+002 -3.254285e+001
      vertex  0.000000e+000  1.050650e+002 -3.254285e+001
      vertex  5.329071e-015  1.054476e+002 -3.246672e+001
    endloop
  endfacet
  facet normal  0.000000e+000  1.950951e-001 -9.807843e-001
    outer loop
      vertex  1.000000e+001  1.050650e+002 -3.254285e+001
      vertex  5.329071e-015  1.054476e+002 -3.246672e+001
      vertex  1.000000e+001  1.054476e+002 -3.246672e+001
    endloop
  endfacet
  facet normal  0.000000e+000  1.000000e+000  0.000000e+000
    outer loop
      vertex  8.000000e+000  1.124476e+002 -3.246672e+001
      vertex  2.000000e+000  1.124476e+002 -3.246672e+001
      vertex  8.000000e+000  1.124476e+002 -3.046672e+001
    endloop
  endfacet
  facet normal  0.000000e+000  1.000000e+000  0.000000e+000
    outer loop
      vertex  8.000000e+000  1.124476e+002 -3.046672e+001
      vertex  2.000000e+000  1.124476e+002 -3.246672e+001
      vertex  2.000000e+000  1.124476e+002 -3.046672e+001
    endloop
  endfacet
  facet normal -7.071068e-001  7.071068e-001  0.000000e+000
    outer loop
      vertex  2.000000e+000  1.124476e+002 -3.246672e+001
      vertex  5.329071e-015  1.104476e+002 -3.246672e+001
      vertex  2.000000e+000  1.124476e+002 -3.046672e+001
    endloop
  endfacet
  facet normal -7.071068e-001  7.071068e-001  0.000000e+000
    outer loop
      vertex  2.000000e+000  1.124476e+002 -3.046672e+001
      vertex  5.329071e-015  1.104476e+002 -3.246672e+001
      vertex  0.000000e+000  1.104476e+002 -3.046672e+001
    endloop
  endfacet
  facet normal  7.071068e-001  7.071068e-001  0.000000e+000
    outer loop
      vertex  8.000000e+000  1.124476e+002 -3.046672e+001
      vertex  1.000000e+001  1.104476e+002 -3.046672e+001
      vertex  8.000000e+000  1.124476e+002 -3.246672e+001
    endloop
  endfacet
  facet normal  7.071068e-001  7.071068e-001  0.000000e+000
    outer loop
      vertex  8.000000e+000  1.124476e+002 -3.246672e+001
      vertex  1.000000e+001  1.104476e+002 -3.046672e+001
      vertex  1.000000e+001  1.104476e+002 -3.246672e+001
    endloop
  endfacet
  facet normal  0.000000e+000 -7.071068e-001  7.071068e-001
    outer loop
      vertex  0.000000e+000  8.244765e+001 -3.046672e+001
      vertex  0.000000e+000  7.944765e+001 -3.346672e+001
      vertex  1.000000e+001  8.244765e+001 -3.046672e+001
    endloop
  endfacet
  facet normal  0.000000e+000 -7.071068e-001  7.071068e-001
    outer loop
      vertex  1.000000e+001  8.244765e+001 -3.046672e+001
      vertex  0.000000e+000  7.944765e+001 -3.346672e+001
      vertex  1.000000e+001  7.944765e+001 -3.346672e+001
    endloop
  endfacet
  facet normal  0.000000e+000 -1.000000e+000  0.000000e+000
    outer loop
      vertex  0.000000e+000  7.944765e+001 -3.346672e+001
      vertex  0.000000e+000  7.944765e+001 -3.846672e+001
      vertex  1.000000e+001  7.944765e+001 -3.346672e+001
    endloop
  endfacet
  facet normal  0.000000e+000 -1.000000e+000  -0.000000e+000
    outer loop
      vertex  1.000000e+001  7.944765e+001 -3.346672e+001
      vertex  0.000000e+000  7.944765e+001 -3.846672e+001
      vertex  1.000000e+001  7.944765e+001 -3.846672e+001
    endloop
  endfacet
  facet normal  0.000000e+000  2.108636e-001 -9.775156e-001
    outer loop
      vertex  0.000000e+000  9.138569e+001 -3.419660e+001
      vertex  1.000000e+001  9.028705e+001 -3.443359e+001
      vertex  0.000000e+000  9.028705e+001 -3.443359e+001
    endloop
  endfacet
  facet normal  0.000000e+000  4.122445e-001 -9.110733e-001
    outer loop
      vertex  0.000000e+000  9.028705e+001 -3.443359e+001
      vertex  1.000000e+001  9.028705e+001 -3.443359e+001
      vertex  1.000000e+001  8.926308e+001 -3.489692e+001
    endloop
  endfacet
  facet normal  0.000000e+000  4.122445e-001 -9.110733e-001
    outer loop
      vertex  0.000000e+000  9.028705e+001 -3.443359e+001
      vertex  1.000000e+001  8.926308e+001 -3.489692e+001
      vertex  0.000000e+000  8.926308e+001 -3.489692e+001
    endloop
  endfacet
  facet normal  0.000000e+000  5.950882e-001 -8.036604e-001
    outer loop
      vertex  0.000000e+000  8.926308e+001 -3.489692e+001
      vertex  1.000000e+001  8.926308e+001 -3.489692e+001
      vertex  1.000000e+001  8.835984e+001 -3.556575e+001
    endloop
  endfacet
  facet normal  0.000000e+000  5.950882e-001 -8.036604e-001
    outer loop
      vertex  0.000000e+000  8.926308e+001 -3.489692e+001
      vertex  1.000000e+001  8.835984e+001 -3.556575e+001
      vertex  0.000000e+000  8.835984e+001 -3.556575e+001
    endloop
  endfacet
  facet normal  0.000000e+000  7.511699e-001 -6.601090e-001
    outer loop
      vertex  0.000000e+000  8.835984e+001 -3.556575e+001
      vertex  1.000000e+001  8.835984e+001 -3.556575e+001
      vertex  1.000000e+001  8.761794e+001 -3.641000e+001
    endloop
  endfacet
  facet normal  0.000000e+000  7.511699e-001 -6.601090e-001
    outer loop
      vertex  0.000000e+000  8.835984e+001 -3.556575e+001
      vertex  1.000000e+001  8.761794e+001 -3.641000e+001
      vertex  0.000000e+000  8.761794e+001 -3.641000e+001
    endloop
  endfacet
  facet normal  0.000000e+000  8.734729e-001 -4.868727e-001
    outer loop
      vertex  0.000000e+000  8.761794e+001 -3.641000e+001
      vertex  1.000000e+001  8.761794e+001 -3.641000e+001
      vertex  1.000000e+001  8.707073e+001 -3.739170e+001
    endloop
  endfacet
  facet normal  0.000000e+000  8.734729e-001 -4.868727e-001
    outer loop
      vertex  0.000000e+000  8.761794e+001 -3.641000e+001
      vertex  1.000000e+001  8.707073e+001 -3.739170e+001
      vertex  0.000000e+000  8.707073e+001 -3.739170e+001
    endloop
  endfacet
  facet normal  0.000000e+000  9.564981e-001 -2.917385e-001
    outer loop
      vertex  0.000000e+000  8.707073e+001 -3.739170e+001
      vertex  1.000000e+001  8.707073e+001 -3.739170e+001
      vertex  1.000000e+001  8.674284e+001 -3.846672e+001
    endloop
  endfacet
  facet normal  0.000000e+000  9.564981e-001 -2.917385e-001
    outer loop
      vertex  0.000000e+000  8.707073e+001 -3.739170e+001
      vertex  1.000000e+001  8.674284e+001 -3.846672e+001
      vertex  0.000000e+000  8.674284e+001 -3.846672e+001
    endloop
  endfacet
  facet normal  0.000000e+000  2.108636e-001 -9.775156e-001
    outer loop
      vertex  1.000000e+001  9.028705e+001 -3.443359e+001
      vertex  0.000000e+000  9.138569e+001 -3.419660e+001
      vertex  1.000000e+001  9.138569e+001 -3.419660e+001
    endloop
  endfacet
  facet normal  0.000000e+000  0.000000e+000 -1.000000e+000
    outer loop
      vertex  1.000000e+001  9.138569e+001 -3.419660e+001
      vertex  0.000000e+000  9.138569e+001 -3.419660e+001
      vertex  0.000000e+000  9.250961e+001 -3.419660e+001
    endloop
  endfacet
  facet normal  0.000000e+000  0.000000e+000 -1.000000e+000
    outer loop
      vertex  1.000000e+001  9.138569e+001 -3.419660e+001
      vertex  0.000000e+000  9.250961e+001 -3.419660e+001
      vertex  1.000000e+001  9.250961e+001 -3.419660e+001
    endloop
  endfacet
  facet normal  -0.000000e+000 -2.108636e-001 -9.775156e-001
    outer loop
      vertex  1.000000e+001  9.250961e+001 -3.419660e+001
      vertex  0.000000e+000  9.250961e+001 -3.419660e+001
      vertex  0.000000e+000  9.360825e+001 -3.443359e+001
    endloop
  endfacet
  facet normal  0.000000e+000 -2.108636e-001 -9.775156e-001
    outer loop
      vertex  1.000000e+001  9.250961e+001 -3.419660e+001
      vertex  0.000000e+000  9.360825e+001 -3.443359e+001
      vertex  1.000000e+001  9.360825e+001 -3.443359e+001
    endloop
  endfacet
  facet normal  -0.000000e+000 -4.122445e-001 -9.110733e-001
    outer loop
      vertex  1.000000e+001  9.360825e+001 -3.443359e+001
      vertex  0.000000e+000  9.360825e+001 -3.443359e+001
      vertex  0.000000e+000  9.463221e+001 -3.489692e+001
    endloop
  endfacet
  facet normal  0.000000e+000 -4.122445e-001 -9.110733e-001
    outer loop
      vertex  1.000000e+001  9.360825e+001 -3.443359e+001
      vertex  0.000000e+000  9.463221e+001 -3.489692e+001
      vertex  1.000000e+001  9.463221e+001 -3.489692e+001
    endloop
  endfacet
  facet normal  -0.000000e+000 -5.950882e-001 -8.036604e-001
    outer loop
      vertex  1.000000e+001  9.463221e+001 -3.489692e+001
      vertex  0.000000e+000  9.463221e+001 -3.489692e+001
      vertex  0.000000e+000  9.553545e+001 -3.556575e+001
    endloop
  endfacet
  facet normal  0.000000e+000 -5.950882e-001 -8.036604e-001
    outer loop
      vertex  1.000000e+001  9.463221e+001 -3.489692e+001
      vertex  0.000000e+000  9.553545e+001 -3.556575e+001
      vertex  1.000000e+001  9.553545e+001 -3.556575e+001
    endloop
  endfacet
  facet normal  -0.000000e+000 -7.511699e-001 -6.601090e-001
    outer loop
      vertex  1.000000e+001  9.553545e+001 -3.556575e+001
      vertex  0.000000e+000  9.553545e+001 -3.556575e+001
      vertex  0.000000e+000  9.627736e+001 -3.641000e+001
    endloop
  endfacet
  facet normal  0.000000e+000 -7.511699e-001 -6.601090e-001
    outer loop
      vertex  1.000000e+001  9.553545e+001 -3.556575e+001
      vertex  0.000000e+000  9.627736e+001 -3.641000e+001
      vertex  1.000000e+001  9.627736e+001 -3.641000e+001
    endloop
  endfacet
  facet normal  -0.000000e+000 -8.734729e-001 -4.868727e-001
    outer loop
      vertex  1.000000e+001  9.627736e+001 -3.641000e+001
      vertex  0.000000e+000  9.627736e+001 -3.641000e+001
      vertex  0.000000e+000  9.682456e+001 -3.739170e+001
    endloop
  endfacet
  facet normal  0.000000e+000 -8.734729e-001 -4.868727e-001
    outer loop
      vertex  1.000000e+001  9.627736e+001 -3.641000e+001
      vertex  0.000000e+000  9.682456e+001 -3.739170e+001
      vertex  1.000000e+001  9.682456e+001 -3.739170e+001
    endloop
  endfacet
  facet normal  -0.000000e+000 -9.564981e-001 -2.917385e-001
    outer loop
      vertex  1.000000e+001  9.682456e+001 -3.739170e+001
      vertex  0.000000e+000  9.682456e+001 -3.739170e+001
      vertex  0.000000e+000  9.715245e+001 -3.846672e+001
    endloop
  endfacet
  facet normal  0.000000e+000 -9.564981e-001 -2.917385e-001
    outer loop
      vertex  1.000000e+001  9.682456e+001 -3.739170e+001
      vertex  0.000000e+000  9.715245e+001 -3.846672e+001
      vertex  1.000000e+001  9.715245e+001 -3.846672e+001
    endloop
  endfacet
endsolid CATIA STL
