solid CATIA STL
  facet normal  1.000000e+000  0.000000e+000  0.000000e+000
    outer loop
      vertex  1.800000e+001 -7.540105e+001  1.597671e+001
      vertex  1.800000e+001 -8.689676e+001  1.460733e+001
      vertex  1.800000e+001 -7.498112e+001  1.518328e+001
    endloop
  endfacet
  facet normal  1.000000e+000  0.000000e+000  0.000000e+000
    outer loop
      vertex  1.800000e+001 -7.437318e+001  1.452276e+001
      vertex  1.800000e+001 -7.498112e+001  1.518328e+001
      vertex  1.800000e+001 -8.689676e+001  1.460733e+001
    endloop
  endfacet
  facet normal  1.000000e+000  0.000000e+000  -0.000000e+000
    outer loop
      vertex  1.800000e+001 -7.080614e+001  2.044646e+001
      vertex  1.800000e+001 -7.002460e+001  2.000478e+001
      vertex  1.800000e+001 -5.742191e+001  2.018243e+001
    endloop
  endfacet
  facet normal  1.000000e+000  0.000000e+000  0.000000e+000
    outer loop
      vertex  1.800000e+001 -6.987318e+001  1.452276e+001
      vertex  1.800000e+001 -5.734959e+001  1.460733e+001
      vertex  1.800000e+001 -6.926523e+001  1.518328e+001
    endloop
  endfacet
  facet normal  9.999999e-001  0.000000e+000  0.000000e+000
    outer loop
      vertex  1.800000e+001 -8.708069e+001  1.833190e+001
      vertex  1.800000e+001 -8.710492e+001  1.646388e+001
      vertex  1.800000e+001 -7.558056e+001  1.774824e+001
    endloop
  endfacet
  facet normal  1.000000e+000  0.000000e+000  -0.000000e+000
    outer loop
      vertex  1.800000e+001 -8.708069e+001  1.833190e+001
      vertex  1.800000e+001 -7.558056e+001  1.774824e+001
      vertex  1.800000e+001 -7.532832e+001  1.860978e+001
    endloop
  endfacet
  facet normal  1.000000e+000  0.000000e+000  -0.000000e+000
    outer loop
      vertex  1.800000e+001 -8.708069e+001  1.833190e+001
      vertex  1.800000e+001 -7.532832e+001  1.860978e+001
      vertex  1.800000e+001 -7.486523e+001  1.937883e+001
    endloop
  endfacet
  facet normal  1.000000e+000  0.000000e+000  -0.000000e+000
    outer loop
      vertex  1.800000e+001 -8.708069e+001  1.833190e+001
      vertex  1.800000e+001 -7.486523e+001  1.937883e+001
      vertex  1.800000e+001 -7.422175e+001  2.000478e+001
    endloop
  endfacet
  facet normal  1.000000e+000  0.000000e+000  0.000000e+000
    outer loop
      vertex  1.800000e+001 -8.708069e+001  1.833190e+001
      vertex  1.800000e+001 -7.422175e+001  2.000478e+001
      vertex  1.800000e+001 -8.682444e+001  2.018243e+001
    endloop
  endfacet
  facet normal  9.999999e-001  0.000000e+000  0.000000e+000
    outer loop
      vertex  1.800000e+001 -7.437318e+001  2.373419e+000
      vertex  1.800000e+001 -7.437318e+001  1.452276e+001
      vertex  1.800000e+001 -8.689676e+001  1.460733e+001
    endloop
  endfacet
  facet normal  1.000000e+000  0.000000e+000  0.000000e+000
    outer loop
      vertex  1.800000e+001 -7.437318e+001  2.373419e+000
      vertex  1.800000e+001 -8.689676e+001  1.460733e+001
      vertex  1.800000e+001 -8.645944e+001  1.279106e+001
    endloop
  endfacet
  facet normal  1.000000e+000  0.000000e+000  0.000000e+000
    outer loop
      vertex  1.800000e+001 -7.437318e+001  2.373419e+000
      vertex  1.800000e+001 -8.645944e+001  1.279106e+001
      vertex  1.800000e+001 -8.579974e+001  1.104323e+001
    endloop
  endfacet
  facet normal  9.999999e-001  0.000000e+000  0.000000e+000
    outer loop
      vertex  1.800000e+001 -7.437318e+001  2.373419e+000
      vertex  1.800000e+001 -8.579974e+001  1.104323e+001
      vertex  1.800000e+001 -8.492790e+001  9.390965e+000
    endloop
  endfacet
  facet normal  1.000000e+000  0.000000e+000  0.000000e+000
    outer loop
      vertex  1.800000e+001 -7.437318e+001  2.373419e+000
      vertex  1.800000e+001 -8.492790e+001  9.390965e+000
      vertex  1.800000e+001 -8.385744e+001  7.859884e+000
    endloop
  endfacet
  facet normal  1.000000e+000  0.000000e+000  0.000000e+000
    outer loop
      vertex  1.800000e+001 -7.437318e+001  2.373419e+000
      vertex  1.800000e+001 -8.385744e+001  7.859884e+000
      vertex  1.800000e+001 -8.260496e+001  6.473741e+000
    endloop
  endfacet
  facet normal  1.000000e+000  0.000000e+000  0.000000e+000
    outer loop
      vertex  1.800000e+001 -7.437318e+001  2.373419e+000
      vertex  1.800000e+001 -8.260496e+001  6.473741e+000
      vertex  1.800000e+001 -8.118989e+001  5.254035e+000
    endloop
  endfacet
  facet normal  1.000000e+000  0.000000e+000  0.000000e+000
    outer loop
      vertex  1.800000e+001 -7.437318e+001  2.373419e+000
      vertex  1.800000e+001 -8.118989e+001  5.254035e+000
      vertex  1.800000e+001 -7.963419e+001  4.219689e+000
    endloop
  endfacet
  facet normal  1.000000e+000  0.000000e+000  0.000000e+000
    outer loop
      vertex  1.800000e+001 -7.437318e+001  2.373419e+000
      vertex  1.800000e+001 -7.963419e+001  4.219689e+000
      vertex  1.800000e+001 -7.796197e+001  3.386744e+000
    endloop
  endfacet
  facet normal  1.000000e+000  0.000000e+000  0.000000e+000
    outer loop
      vertex  1.800000e+001 -7.437318e+001  2.373419e+000
      vertex  1.800000e+001 -7.796197e+001  3.386744e+000
      vertex  1.800000e+001 -7.619919e+001  2.768122e+000
    endloop
  endfacet
  facet normal  1.000000e+000  0.000000e+000  -0.000000e+000
    outer loop
      vertex  1.800000e+001 -6.987318e+001  2.373419e+000
      vertex  1.800000e+001 -6.804716e+001  2.768122e+000
      vertex  1.800000e+001 -6.628439e+001  3.386744e+000
    endloop
  endfacet
  facet normal  1.000000e+000  0.000000e+000  -0.000000e+000
    outer loop
      vertex  1.800000e+001 -6.987318e+001  2.373419e+000
      vertex  1.800000e+001 -6.628439e+001  3.386744e+000
      vertex  1.800000e+001 -6.461217e+001  4.219689e+000
    endloop
  endfacet
  facet normal  1.000000e+000  0.000000e+000  -0.000000e+000
    outer loop
      vertex  1.800000e+001 -6.987318e+001  2.373419e+000
      vertex  1.800000e+001 -6.461217e+001  4.219689e+000
      vertex  1.800000e+001 -6.305646e+001  5.254035e+000
    endloop
  endfacet
  facet normal  1.000000e+000  0.000000e+000  -0.000000e+000
    outer loop
      vertex  1.800000e+001 -6.987318e+001  2.373419e+000
      vertex  1.800000e+001 -6.305646e+001  5.254035e+000
      vertex  1.800000e+001 -6.164139e+001  6.473741e+000
    endloop
  endfacet
  facet normal  1.000000e+000  0.000000e+000  -0.000000e+000
    outer loop
      vertex  1.800000e+001 -6.987318e+001  2.373419e+000
      vertex  1.800000e+001 -6.164139e+001  6.473741e+000
      vertex  1.800000e+001 -6.038891e+001  7.859884e+000
    endloop
  endfacet
  facet normal  1.000000e+000  0.000000e+000  -0.000000e+000
    outer loop
      vertex  1.800000e+001 -6.987318e+001  2.373419e+000
      vertex  1.800000e+001 -6.038891e+001  7.859884e+000
      vertex  1.800000e+001 -5.931845e+001  9.390965e+000
    endloop
  endfacet
  facet normal  9.999999e-001  0.000000e+000  -0.000000e+000
    outer loop
      vertex  1.800000e+001 -6.987318e+001  2.373419e+000
      vertex  1.800000e+001 -5.931845e+001  9.390965e+000
      vertex  1.800000e+001 -5.844661e+001  1.104323e+001
    endloop
  endfacet
  facet normal  1.000000e+000  0.000000e+000  -0.000000e+000
    outer loop
      vertex  1.800000e+001 -6.987318e+001  2.373419e+000
      vertex  1.800000e+001 -5.844661e+001  1.104323e+001
      vertex  1.800000e+001 -5.778691e+001  1.279106e+001
    endloop
  endfacet
  facet normal  1.000000e+000  0.000000e+000  -0.000000e+000
    outer loop
      vertex  1.800000e+001 -6.987318e+001  2.373419e+000
      vertex  1.800000e+001 -5.778691e+001  1.279106e+001
      vertex  1.800000e+001 -5.734959e+001  1.460733e+001
    endloop
  endfacet
  facet normal  1.000000e+000  0.000000e+000  0.000000e+000
    outer loop
      vertex  1.800000e+001 -6.987318e+001  2.373419e+000
      vertex  1.800000e+001 -5.734959e+001  1.460733e+001
      vertex  1.800000e+001 -6.987318e+001  1.452276e+001
    endloop
  endfacet
  facet normal  1.000000e+000  0.000000e+000  0.000000e+000
    outer loop
      vertex  1.800000e+001 -7.080614e+001  2.044646e+001
      vertex  1.800000e+001 -5.742191e+001  2.018243e+001
      vertex  1.800000e+001 -7.167432e+001  2.067481e+001
    endloop
  endfacet
  facet normal  1.000000e+000  -0.000000e+000  0.000000e+000
    outer loop
      vertex  1.800000e+001 -7.167432e+001  2.067481e+001
      vertex  1.800000e+001 -5.742191e+001  2.018243e+001
      vertex  1.800000e+001 -5.790620e+001  2.198675e+001
    endloop
  endfacet
  facet normal  1.000000e+000  0.000000e+000  0.000000e+000
    outer loop
      vertex  1.800000e+001 -7.167432e+001  2.067481e+001
      vertex  1.800000e+001 -5.790620e+001  2.198675e+001
      vertex  1.800000e+001 -7.257203e+001  2.067481e+001
    endloop
  endfacet
  facet normal  1.000000e+000  0.000000e+000  -0.000000e+000
    outer loop
      vertex  1.800000e+001 -7.257203e+001  2.067481e+001
      vertex  1.800000e+001 -5.790620e+001  2.198675e+001
      vertex  1.800000e+001 -8.634016e+001  2.198675e+001
    endloop
  endfacet
  facet normal  1.000000e+000  0.000000e+000  0.000000e+000
    outer loop
      vertex  1.800000e+001 -7.257203e+001  2.067481e+001
      vertex  1.800000e+001 -8.634016e+001  2.198675e+001
      vertex  1.800000e+001 -7.344022e+001  2.044646e+001
    endloop
  endfacet
  facet normal  1.000000e+000  0.000000e+000  0.000000e+000
    outer loop
      vertex  1.800000e+001 -7.344022e+001  2.044646e+001
      vertex  1.800000e+001 -8.634016e+001  2.198675e+001
      vertex  1.800000e+001 -8.682444e+001  2.018243e+001
    endloop
  endfacet
  facet normal  1.000000e+000  -0.000000e+000  0.000000e+000
    outer loop
      vertex  1.800000e+001 -7.344022e+001  2.044646e+001
      vertex  1.800000e+001 -8.682444e+001  2.018243e+001
      vertex  1.800000e+001 -7.422175e+001  2.000478e+001
    endloop
  endfacet
  facet normal  1.000000e+000  0.000000e+000  0.000000e+000
    outer loop
      vertex  1.800000e+001 -8.689676e+001  1.460733e+001
      vertex  1.800000e+001 -7.540105e+001  1.597671e+001
      vertex  1.800000e+001 -8.710492e+001  1.646388e+001
    endloop
  endfacet
  facet normal  9.999999e-001  -0.000000e+000  0.000000e+000
    outer loop
      vertex  1.800000e+001 -8.710492e+001  1.646388e+001
      vertex  1.800000e+001 -7.540105e+001  1.597671e+001
      vertex  1.800000e+001 -7.560535e+001  1.685087e+001
    endloop
  endfacet
  facet normal  1.000000e+000  0.000000e+000  -0.000000e+000
    outer loop
      vertex  1.800000e+001 -8.710492e+001  1.646388e+001
      vertex  1.800000e+001 -7.560535e+001  1.685087e+001
      vertex  1.800000e+001 -7.558056e+001  1.774824e+001
    endloop
  endfacet
  facet normal  1.000000e+000  0.000000e+000  0.000000e+000
    outer loop
      vertex  1.800000e+001 -8.634016e+001  2.198675e+001
      vertex  1.800000e+001 -5.790620e+001  2.198675e+001
      vertex  1.800000e+001 -8.563535e+001  2.371687e+001
    endloop
  endfacet
  facet normal  9.999999e-001  -0.000000e+000  0.000000e+000
    outer loop
      vertex  1.800000e+001 -8.563535e+001  2.371687e+001
      vertex  1.800000e+001 -5.790620e+001  2.198675e+001
      vertex  1.800000e+001 -5.861101e+001  2.371687e+001
    endloop
  endfacet
  facet normal  9.999999e-001  0.000000e+000  0.000000e+000
    outer loop
      vertex  1.800000e+001 -8.563535e+001  2.371687e+001
      vertex  1.800000e+001 -5.861101e+001  2.371687e+001
      vertex  1.800000e+001 -8.472094e+001  2.534597e+001
    endloop
  endfacet
  facet normal  1.000000e+000  -0.000000e+000  0.000000e+000
    outer loop
      vertex  1.800000e+001 -8.472094e+001  2.534597e+001
      vertex  1.800000e+001 -5.861101e+001  2.371687e+001
      vertex  1.800000e+001 -5.952542e+001  2.534597e+001
    endloop
  endfacet
  facet normal  1.000000e+000  0.000000e+000  0.000000e+000
    outer loop
      vertex  1.800000e+001 -8.472094e+001  2.534597e+001
      vertex  1.800000e+001 -5.952542e+001  2.534597e+001
      vertex  1.800000e+001 -8.361112e+001  2.684877e+001
    endloop
  endfacet
  facet normal  1.000000e+000  -0.000000e+000  0.000000e+000
    outer loop
      vertex  1.800000e+001 -8.361112e+001  2.684877e+001
      vertex  1.800000e+001 -5.952542e+001  2.534597e+001
      vertex  1.800000e+001 -6.063523e+001  2.684877e+001
    endloop
  endfacet
  facet normal  1.000000e+000  0.000000e+000  0.000000e+000
    outer loop
      vertex  1.800000e+001 -8.361112e+001  2.684877e+001
      vertex  1.800000e+001 -6.063523e+001  2.684877e+001
      vertex  1.800000e+001 -8.232310e+001  2.820196e+001
    endloop
  endfacet
  facet normal  1.000000e+000  -0.000000e+000  0.000000e+000
    outer loop
      vertex  1.800000e+001 -8.232310e+001  2.820196e+001
      vertex  1.800000e+001 -6.063523e+001  2.684877e+001
      vertex  1.800000e+001 -6.192325e+001  2.820196e+001
    endloop
  endfacet
  facet normal  9.999999e-001  0.000000e+000  0.000000e+000
    outer loop
      vertex  1.800000e+001 -8.232310e+001  2.820196e+001
      vertex  1.800000e+001 -6.192325e+001  2.820196e+001
      vertex  1.800000e+001 -8.087688e+001  2.938455e+001
    endloop
  endfacet
  facet normal  1.000000e+000  -0.000000e+000  0.000000e+000
    outer loop
      vertex  1.800000e+001 -8.087688e+001  2.938455e+001
      vertex  1.800000e+001 -6.192325e+001  2.820196e+001
      vertex  1.800000e+001 -6.336948e+001  2.938455e+001
    endloop
  endfacet
  facet normal  1.000000e+000  0.000000e+000  0.000000e+000
    outer loop
      vertex  1.800000e+001 -8.087688e+001  2.938455e+001
      vertex  1.800000e+001 -6.336948e+001  2.938455e+001
      vertex  1.800000e+001 -7.929486e+001  3.037819e+001
    endloop
  endfacet
  facet normal  1.000000e+000  -0.000000e+000  0.000000e+000
    outer loop
      vertex  1.800000e+001 -7.929486e+001  3.037819e+001
      vertex  1.800000e+001 -6.336948e+001  2.938455e+001
      vertex  1.800000e+001 -6.495149e+001  3.037819e+001
    endloop
  endfacet
  facet normal  9.999999e-001  0.000000e+000  0.000000e+000
    outer loop
      vertex  1.800000e+001 -7.929486e+001  3.037819e+001
      vertex  1.800000e+001 -6.495149e+001  3.037819e+001
      vertex  1.800000e+001 -7.760160e+001  3.116748e+001
    endloop
  endfacet
  facet normal  1.000000e+000  -0.000000e+000  0.000000e+000
    outer loop
      vertex  1.800000e+001 -7.760160e+001  3.116748e+001
      vertex  1.800000e+001 -6.495149e+001  3.037819e+001
      vertex  1.800000e+001 -6.664475e+001  3.116748e+001
    endloop
  endfacet
  facet normal  1.000000e+000  0.000000e+000  0.000000e+000
    outer loop
      vertex  1.800000e+001 -7.760160e+001  3.116748e+001
      vertex  1.800000e+001 -6.664475e+001  3.116748e+001
      vertex  1.800000e+001 -7.582336e+001  3.174017e+001
    endloop
  endfacet
  facet normal  1.000000e+000  -0.000000e+000  0.000000e+000
    outer loop
      vertex  1.800000e+001 -7.582336e+001  3.174017e+001
      vertex  1.800000e+001 -6.664475e+001  3.116748e+001
      vertex  1.800000e+001 -6.842299e+001  3.174017e+001
    endloop
  endfacet
  facet normal  1.000000e+000  0.000000e+000  0.000000e+000
    outer loop
      vertex  1.800000e+001 -7.582336e+001  3.174017e+001
      vertex  1.800000e+001 -6.842299e+001  3.174017e+001
      vertex  1.800000e+001 -7.398773e+001  3.208737e+001
    endloop
  endfacet
  facet normal  9.999999e-001  -0.000000e+000  0.000000e+000
    outer loop
      vertex  1.800000e+001 -7.398773e+001  3.208737e+001
      vertex  1.800000e+001 -6.842299e+001  3.174017e+001
      vertex  1.800000e+001 -7.025862e+001  3.208737e+001
    endloop
  endfacet
  facet normal  1.000000e+000  0.000000e+000  0.000000e+000
    outer loop
      vertex  1.800000e+001 -7.398773e+001  3.208737e+001
      vertex  1.800000e+001 -7.025862e+001  3.208737e+001
      vertex  1.800000e+001 -7.212318e+001  3.220371e+001
    endloop
  endfacet
  facet normal  1.000000e+000  -0.000000e+000  0.000000e+000
    outer loop
      vertex  1.800000e+001 -5.742191e+001  2.018243e+001
      vertex  1.800000e+001 -7.002460e+001  2.000478e+001
      vertex  1.800000e+001 -5.716566e+001  1.833190e+001
    endloop
  endfacet
  facet normal  1.000000e+000  0.000000e+000  0.000000e+000
    outer loop
      vertex  1.800000e+001 -5.716566e+001  1.833190e+001
      vertex  1.800000e+001 -7.002460e+001  2.000478e+001
      vertex  1.800000e+001 -6.938112e+001  1.937883e+001
    endloop
  endfacet
  facet normal  1.000000e+000  0.000000e+000  0.000000e+000
    outer loop
      vertex  1.800000e+001 -5.716566e+001  1.833190e+001
      vertex  1.800000e+001 -6.938112e+001  1.937883e+001
      vertex  1.800000e+001 -6.891803e+001  1.860978e+001
    endloop
  endfacet
  facet normal  1.000000e+000  0.000000e+000  0.000000e+000
    outer loop
      vertex  1.800000e+001 -5.716566e+001  1.833190e+001
      vertex  1.800000e+001 -6.891803e+001  1.860978e+001
      vertex  1.800000e+001 -5.714143e+001  1.646388e+001
    endloop
  endfacet
  facet normal  1.000000e+000  0.000000e+000  0.000000e+000
    outer loop
      vertex  1.800000e+001 -5.714143e+001  1.646388e+001
      vertex  1.800000e+001 -6.891803e+001  1.860978e+001
      vertex  1.800000e+001 -6.866579e+001  1.774824e+001
    endloop
  endfacet
  facet normal  1.000000e+000  0.000000e+000  0.000000e+000
    outer loop
      vertex  1.800000e+001 -5.714143e+001  1.646388e+001
      vertex  1.800000e+001 -6.866579e+001  1.774824e+001
      vertex  1.800000e+001 -6.864101e+001  1.685087e+001
    endloop
  endfacet
  facet normal  1.000000e+000  0.000000e+000  0.000000e+000
    outer loop
      vertex  1.800000e+001 -5.714143e+001  1.646388e+001
      vertex  1.800000e+001 -6.864101e+001  1.685087e+001
      vertex  1.800000e+001 -5.734959e+001  1.460733e+001
    endloop
  endfacet
  facet normal  1.000000e+000  0.000000e+000  0.000000e+000
    outer loop
      vertex  1.800000e+001 -5.734959e+001  1.460733e+001
      vertex  1.800000e+001 -6.864101e+001  1.685087e+001
      vertex  1.800000e+001 -6.884530e+001  1.597671e+001
    endloop
  endfacet
  facet normal  1.000000e+000  0.000000e+000  0.000000e+000
    outer loop
      vertex  1.800000e+001 -5.734959e+001  1.460733e+001
      vertex  1.800000e+001 -6.884530e+001  1.597671e+001
      vertex  1.800000e+001 -6.926523e+001  1.518328e+001
    endloop
  endfacet
  facet normal -1.000000e+000  0.000000e+000  0.000000e+000
    outer loop
      vertex  0.000000e+000 -7.498112e+001  1.518328e+001
      vertex  0.000000e+000 -8.689676e+001  1.460733e+001
      vertex  0.000000e+000 -7.540105e+001  1.597671e+001
    endloop
  endfacet
  facet normal -1.000000e+000  0.000000e+000  -0.000000e+000
    outer loop
      vertex  0.000000e+000 -8.689676e+001  1.460733e+001
      vertex  0.000000e+000 -7.498112e+001  1.518328e+001
      vertex  0.000000e+000 -7.437318e+001  1.452276e+001
    endloop
  endfacet
  facet normal -1.000000e+000  0.000000e+000  0.000000e+000
    outer loop
      vertex  0.000000e+000 -5.742191e+001  2.018243e+001
      vertex  0.000000e+000 -7.002460e+001  2.000478e+001
      vertex  0.000000e+000 -7.080614e+001  2.044646e+001
    endloop
  endfacet
  facet normal -1.000000e+000  -0.000000e+000  0.000000e+000
    outer loop
      vertex  0.000000e+000 -6.926523e+001  1.518328e+001
      vertex  0.000000e+000 -5.734959e+001  1.460733e+001
      vertex  0.000000e+000 -6.987318e+001  1.452276e+001
    endloop
  endfacet
  facet normal -1.000000e+000  0.000000e+000  -0.000000e+000
    outer loop
      vertex  0.000000e+000 -8.708069e+001  1.833190e+001
      vertex  0.000000e+000 -8.682444e+001  2.018243e+001
      vertex  0.000000e+000 -7.422175e+001  2.000478e+001
    endloop
  endfacet
  facet normal -1.000000e+000  0.000000e+000  0.000000e+000
    outer loop
      vertex  0.000000e+000 -8.708069e+001  1.833190e+001
      vertex  0.000000e+000 -7.422175e+001  2.000478e+001
      vertex  0.000000e+000 -7.486523e+001  1.937883e+001
    endloop
  endfacet
  facet normal -1.000000e+000  0.000000e+000  0.000000e+000
    outer loop
      vertex  0.000000e+000 -8.708069e+001  1.833190e+001
      vertex  0.000000e+000 -7.486523e+001  1.937883e+001
      vertex  0.000000e+000 -7.532832e+001  1.860978e+001
    endloop
  endfacet
  facet normal -1.000000e+000  0.000000e+000  0.000000e+000
    outer loop
      vertex  0.000000e+000 -8.708069e+001  1.833190e+001
      vertex  0.000000e+000 -7.532832e+001  1.860978e+001
      vertex  0.000000e+000 -7.558056e+001  1.774824e+001
    endloop
  endfacet
  facet normal -9.999999e-001  -0.000000e+000  0.000000e+000
    outer loop
      vertex  0.000000e+000 -8.708069e+001  1.833190e+001
      vertex  0.000000e+000 -7.558056e+001  1.774824e+001
      vertex  0.000000e+000 -8.710492e+001  1.646388e+001
    endloop
  endfacet
  facet normal -1.000000e+000  0.000000e+000  0.000000e+000
    outer loop
      vertex  0.000000e+000 -7.437318e+001  2.373419e+000
      vertex  0.000000e+000 -7.619919e+001  2.768122e+000
      vertex  0.000000e+000 -7.796197e+001  3.386744e+000
    endloop
  endfacet
  facet normal -1.000000e+000  0.000000e+000  0.000000e+000
    outer loop
      vertex  0.000000e+000 -7.437318e+001  2.373419e+000
      vertex  0.000000e+000 -7.796197e+001  3.386744e+000
      vertex  0.000000e+000 -7.963419e+001  4.219689e+000
    endloop
  endfacet
  facet normal -1.000000e+000  0.000000e+000  0.000000e+000
    outer loop
      vertex  0.000000e+000 -7.437318e+001  2.373419e+000
      vertex  0.000000e+000 -7.963419e+001  4.219689e+000
      vertex  0.000000e+000 -8.118989e+001  5.254035e+000
    endloop
  endfacet
  facet normal -1.000000e+000  0.000000e+000  0.000000e+000
    outer loop
      vertex  0.000000e+000 -7.437318e+001  2.373419e+000
      vertex  0.000000e+000 -8.118989e+001  5.254035e+000
      vertex  0.000000e+000 -8.260496e+001  6.473741e+000
    endloop
  endfacet
  facet normal -1.000000e+000  0.000000e+000  0.000000e+000
    outer loop
      vertex  0.000000e+000 -7.437318e+001  2.373419e+000
      vertex  0.000000e+000 -8.260496e+001  6.473741e+000
      vertex  0.000000e+000 -8.385744e+001  7.859884e+000
    endloop
  endfacet
  facet normal -1.000000e+000  0.000000e+000  0.000000e+000
    outer loop
      vertex  0.000000e+000 -7.437318e+001  2.373419e+000
      vertex  0.000000e+000 -8.385744e+001  7.859884e+000
      vertex  0.000000e+000 -8.492790e+001  9.390965e+000
    endloop
  endfacet
  facet normal -9.999999e-001  0.000000e+000  0.000000e+000
    outer loop
      vertex  0.000000e+000 -7.437318e+001  2.373419e+000
      vertex  0.000000e+000 -8.492790e+001  9.390965e+000
      vertex  0.000000e+000 -8.579974e+001  1.104323e+001
    endloop
  endfacet
  facet normal -1.000000e+000  0.000000e+000  0.000000e+000
    outer loop
      vertex  0.000000e+000 -7.437318e+001  2.373419e+000
      vertex  0.000000e+000 -8.579974e+001  1.104323e+001
      vertex  0.000000e+000 -8.645944e+001  1.279106e+001
    endloop
  endfacet
  facet normal -1.000000e+000  0.000000e+000  0.000000e+000
    outer loop
      vertex  0.000000e+000 -7.437318e+001  2.373419e+000
      vertex  0.000000e+000 -8.645944e+001  1.279106e+001
      vertex  0.000000e+000 -8.689676e+001  1.460733e+001
    endloop
  endfacet
  facet normal -9.999999e-001  0.000000e+000  0.000000e+000
    outer loop
      vertex  0.000000e+000 -7.437318e+001  2.373419e+000
      vertex  0.000000e+000 -8.689676e+001  1.460733e+001
      vertex  0.000000e+000 -7.437318e+001  1.452276e+001
    endloop
  endfacet
  facet normal -1.000000e+000  0.000000e+000  0.000000e+000
    outer loop
      vertex  0.000000e+000 -6.987318e+001  2.373419e+000
      vertex  0.000000e+000 -6.987318e+001  1.452276e+001
      vertex  0.000000e+000 -5.734959e+001  1.460733e+001
    endloop
  endfacet
  facet normal -1.000000e+000  0.000000e+000  0.000000e+000
    outer loop
      vertex  0.000000e+000 -6.987318e+001  2.373419e+000
      vertex  0.000000e+000 -5.734959e+001  1.460733e+001
      vertex  0.000000e+000 -5.778691e+001  1.279106e+001
    endloop
  endfacet
  facet normal -1.000000e+000  0.000000e+000  0.000000e+000
    outer loop
      vertex  0.000000e+000 -6.987318e+001  2.373419e+000
      vertex  0.000000e+000 -5.778691e+001  1.279106e+001
      vertex  0.000000e+000 -5.844661e+001  1.104323e+001
    endloop
  endfacet
  facet normal -9.999999e-001  0.000000e+000  0.000000e+000
    outer loop
      vertex  0.000000e+000 -6.987318e+001  2.373419e+000
      vertex  0.000000e+000 -5.844661e+001  1.104323e+001
      vertex  0.000000e+000 -5.931845e+001  9.390965e+000
    endloop
  endfacet
  facet normal -1.000000e+000  0.000000e+000  0.000000e+000
    outer loop
      vertex  0.000000e+000 -6.987318e+001  2.373419e+000
      vertex  0.000000e+000 -5.931845e+001  9.390965e+000
      vertex  0.000000e+000 -6.038891e+001  7.859884e+000
    endloop
  endfacet
  facet normal -1.000000e+000  0.000000e+000  0.000000e+000
    outer loop
      vertex  0.000000e+000 -6.987318e+001  2.373419e+000
      vertex  0.000000e+000 -6.038891e+001  7.859884e+000
      vertex  0.000000e+000 -6.164139e+001  6.473741e+000
    endloop
  endfacet
  facet normal -1.000000e+000  0.000000e+000  0.000000e+000
    outer loop
      vertex  0.000000e+000 -6.987318e+001  2.373419e+000
      vertex  0.000000e+000 -6.164139e+001  6.473741e+000
      vertex  0.000000e+000 -6.305646e+001  5.254035e+000
    endloop
  endfacet
  facet normal -1.000000e+000  0.000000e+000  0.000000e+000
    outer loop
      vertex  0.000000e+000 -6.987318e+001  2.373419e+000
      vertex  0.000000e+000 -6.305646e+001  5.254035e+000
      vertex  0.000000e+000 -6.461217e+001  4.219689e+000
    endloop
  endfacet
  facet normal -1.000000e+000  0.000000e+000  0.000000e+000
    outer loop
      vertex  0.000000e+000 -6.987318e+001  2.373419e+000
      vertex  0.000000e+000 -6.461217e+001  4.219689e+000
      vertex  0.000000e+000 -6.628439e+001  3.386744e+000
    endloop
  endfacet
  facet normal -1.000000e+000  0.000000e+000  0.000000e+000
    outer loop
      vertex  0.000000e+000 -6.987318e+001  2.373419e+000
      vertex  0.000000e+000 -6.628439e+001  3.386744e+000
      vertex  0.000000e+000 -6.804716e+001  2.768122e+000
    endloop
  endfacet
  facet normal -1.000000e+000  0.000000e+000  0.000000e+000
    outer loop
      vertex  0.000000e+000 -7.422175e+001  2.000478e+001
      vertex  0.000000e+000 -8.682444e+001  2.018243e+001
      vertex  0.000000e+000 -7.344022e+001  2.044646e+001
    endloop
  endfacet
  facet normal -1.000000e+000  -0.000000e+000  0.000000e+000
    outer loop
      vertex  0.000000e+000 -7.344022e+001  2.044646e+001
      vertex  0.000000e+000 -8.682444e+001  2.018243e+001
      vertex  0.000000e+000 -8.634016e+001  2.198675e+001
    endloop
  endfacet
  facet normal -1.000000e+000  0.000000e+000  0.000000e+000
    outer loop
      vertex  0.000000e+000 -7.344022e+001  2.044646e+001
      vertex  0.000000e+000 -8.634016e+001  2.198675e+001
      vertex  0.000000e+000 -7.257203e+001  2.067481e+001
    endloop
  endfacet
  facet normal -1.000000e+000  0.000000e+000  0.000000e+000
    outer loop
      vertex  0.000000e+000 -7.257203e+001  2.067481e+001
      vertex  0.000000e+000 -8.634016e+001  2.198675e+001
      vertex  0.000000e+000 -5.790620e+001  2.198675e+001
    endloop
  endfacet
  facet normal -1.000000e+000  0.000000e+000  0.000000e+000
    outer loop
      vertex  0.000000e+000 -7.257203e+001  2.067481e+001
      vertex  0.000000e+000 -5.790620e+001  2.198675e+001
      vertex  0.000000e+000 -7.167432e+001  2.067481e+001
    endloop
  endfacet
  facet normal -1.000000e+000  0.000000e+000  0.000000e+000
    outer loop
      vertex  0.000000e+000 -7.167432e+001  2.067481e+001
      vertex  0.000000e+000 -5.790620e+001  2.198675e+001
      vertex  0.000000e+000 -5.742191e+001  2.018243e+001
    endloop
  endfacet
  facet normal -1.000000e+000  0.000000e+000  0.000000e+000
    outer loop
      vertex  0.000000e+000 -7.167432e+001  2.067481e+001
      vertex  0.000000e+000 -5.742191e+001  2.018243e+001
      vertex  0.000000e+000 -7.080614e+001  2.044646e+001
    endloop
  endfacet
  facet normal -1.000000e+000  -0.000000e+000  0.000000e+000
    outer loop
      vertex  0.000000e+000 -7.558056e+001  1.774824e+001
      vertex  0.000000e+000 -7.560535e+001  1.685087e+001
      vertex  0.000000e+000 -8.710492e+001  1.646388e+001
    endloop
  endfacet
  facet normal -9.999999e-001  0.000000e+000  0.000000e+000
    outer loop
      vertex  0.000000e+000 -8.710492e+001  1.646388e+001
      vertex  0.000000e+000 -7.560535e+001  1.685087e+001
      vertex  0.000000e+000 -7.540105e+001  1.597671e+001
    endloop
  endfacet
  facet normal -1.000000e+000  -0.000000e+000  0.000000e+000
    outer loop
      vertex  0.000000e+000 -8.710492e+001  1.646388e+001
      vertex  0.000000e+000 -7.540105e+001  1.597671e+001
      vertex  0.000000e+000 -8.689676e+001  1.460733e+001
    endloop
  endfacet
  facet normal -1.000000e+000  0.000000e+000  0.000000e+000
    outer loop
      vertex  0.000000e+000 -7.212318e+001  3.220371e+001
      vertex  0.000000e+000 -7.025862e+001  3.208737e+001
      vertex  0.000000e+000 -7.398773e+001  3.208737e+001
    endloop
  endfacet
  facet normal -9.999999e-001  0.000000e+000  0.000000e+000
    outer loop
      vertex  0.000000e+000 -7.398773e+001  3.208737e+001
      vertex  0.000000e+000 -7.025862e+001  3.208737e+001
      vertex  0.000000e+000 -6.842299e+001  3.174017e+001
    endloop
  endfacet
  facet normal -1.000000e+000  0.000000e+000  0.000000e+000
    outer loop
      vertex  0.000000e+000 -7.398773e+001  3.208737e+001
      vertex  0.000000e+000 -6.842299e+001  3.174017e+001
      vertex  0.000000e+000 -7.582336e+001  3.174017e+001
    endloop
  endfacet
  facet normal -1.000000e+000  0.000000e+000  0.000000e+000
    outer loop
      vertex  0.000000e+000 -7.582336e+001  3.174017e+001
      vertex  0.000000e+000 -6.842299e+001  3.174017e+001
      vertex  0.000000e+000 -6.664475e+001  3.116748e+001
    endloop
  endfacet
  facet normal -1.000000e+000  0.000000e+000  0.000000e+000
    outer loop
      vertex  0.000000e+000 -7.582336e+001  3.174017e+001
      vertex  0.000000e+000 -6.664475e+001  3.116748e+001
      vertex  0.000000e+000 -7.760160e+001  3.116748e+001
    endloop
  endfacet
  facet normal -1.000000e+000  0.000000e+000  0.000000e+000
    outer loop
      vertex  0.000000e+000 -7.760160e+001  3.116748e+001
      vertex  0.000000e+000 -6.664475e+001  3.116748e+001
      vertex  0.000000e+000 -6.495149e+001  3.037819e+001
    endloop
  endfacet
  facet normal -9.999999e-001  0.000000e+000  0.000000e+000
    outer loop
      vertex  0.000000e+000 -7.760160e+001  3.116748e+001
      vertex  0.000000e+000 -6.495149e+001  3.037819e+001
      vertex  0.000000e+000 -7.929486e+001  3.037819e+001
    endloop
  endfacet
  facet normal -1.000000e+000  0.000000e+000  0.000000e+000
    outer loop
      vertex  0.000000e+000 -7.929486e+001  3.037819e+001
      vertex  0.000000e+000 -6.495149e+001  3.037819e+001
      vertex  0.000000e+000 -6.336948e+001  2.938455e+001
    endloop
  endfacet
  facet normal -1.000000e+000  0.000000e+000  0.000000e+000
    outer loop
      vertex  0.000000e+000 -7.929486e+001  3.037819e+001
      vertex  0.000000e+000 -6.336948e+001  2.938455e+001
      vertex  0.000000e+000 -8.087688e+001  2.938455e+001
    endloop
  endfacet
  facet normal -1.000000e+000  0.000000e+000  0.000000e+000
    outer loop
      vertex  0.000000e+000 -8.087688e+001  2.938455e+001
      vertex  0.000000e+000 -6.336948e+001  2.938455e+001
      vertex  0.000000e+000 -6.192325e+001  2.820196e+001
    endloop
  endfacet
  facet normal -9.999999e-001  0.000000e+000  0.000000e+000
    outer loop
      vertex  0.000000e+000 -8.087688e+001  2.938455e+001
      vertex  0.000000e+000 -6.192325e+001  2.820196e+001
      vertex  0.000000e+000 -8.232310e+001  2.820196e+001
    endloop
  endfacet
  facet normal -1.000000e+000  0.000000e+000  0.000000e+000
    outer loop
      vertex  0.000000e+000 -8.232310e+001  2.820196e+001
      vertex  0.000000e+000 -6.192325e+001  2.820196e+001
      vertex  0.000000e+000 -6.063523e+001  2.684877e+001
    endloop
  endfacet
  facet normal -1.000000e+000  0.000000e+000  0.000000e+000
    outer loop
      vertex  0.000000e+000 -8.232310e+001  2.820196e+001
      vertex  0.000000e+000 -6.063523e+001  2.684877e+001
      vertex  0.000000e+000 -8.361112e+001  2.684877e+001
    endloop
  endfacet
  facet normal -1.000000e+000  0.000000e+000  0.000000e+000
    outer loop
      vertex  0.000000e+000 -8.361112e+001  2.684877e+001
      vertex  0.000000e+000 -6.063523e+001  2.684877e+001
      vertex  0.000000e+000 -5.952542e+001  2.534597e+001
    endloop
  endfacet
  facet normal -1.000000e+000  0.000000e+000  0.000000e+000
    outer loop
      vertex  0.000000e+000 -8.361112e+001  2.684877e+001
      vertex  0.000000e+000 -5.952542e+001  2.534597e+001
      vertex  0.000000e+000 -8.472094e+001  2.534597e+001
    endloop
  endfacet
  facet normal -1.000000e+000  0.000000e+000  0.000000e+000
    outer loop
      vertex  0.000000e+000 -8.472094e+001  2.534597e+001
      vertex  0.000000e+000 -5.952542e+001  2.534597e+001
      vertex  0.000000e+000 -5.861101e+001  2.371687e+001
    endloop
  endfacet
  facet normal -9.999999e-001  0.000000e+000  0.000000e+000
    outer loop
      vertex  0.000000e+000 -8.472094e+001  2.534597e+001
      vertex  0.000000e+000 -5.861101e+001  2.371687e+001
      vertex  0.000000e+000 -8.563535e+001  2.371687e+001
    endloop
  endfacet
  facet normal -9.999999e-001  0.000000e+000  0.000000e+000
    outer loop
      vertex  0.000000e+000 -8.563535e+001  2.371687e+001
      vertex  0.000000e+000 -5.861101e+001  2.371687e+001
      vertex  0.000000e+000 -5.790620e+001  2.198675e+001
    endloop
  endfacet
  facet normal -1.000000e+000  0.000000e+000  0.000000e+000
    outer loop
      vertex  0.000000e+000 -8.563535e+001  2.371687e+001
      vertex  0.000000e+000 -5.790620e+001  2.198675e+001
      vertex  0.000000e+000 -8.634016e+001  2.198675e+001
    endloop
  endfacet
  facet normal -1.000000e+000  0.000000e+000  0.000000e+000
    outer loop
      vertex  0.000000e+000 -6.891803e+001  1.860978e+001
      vertex  0.000000e+000 -6.938112e+001  1.937883e+001
      vertex  0.000000e+000 -5.716566e+001  1.833190e+001
    endloop
  endfacet
  facet normal -1.000000e+000  0.000000e+000  0.000000e+000
    outer loop
      vertex  0.000000e+000 -5.716566e+001  1.833190e+001
      vertex  0.000000e+000 -6.938112e+001  1.937883e+001
      vertex  0.000000e+000 -7.002460e+001  2.000478e+001
    endloop
  endfacet
  facet normal -1.000000e+000  0.000000e+000  0.000000e+000
    outer loop
      vertex  0.000000e+000 -5.716566e+001  1.833190e+001
      vertex  0.000000e+000 -7.002460e+001  2.000478e+001
      vertex  0.000000e+000 -5.742191e+001  2.018243e+001
    endloop
  endfacet
  facet normal -1.000000e+000  0.000000e+000  0.000000e+000
    outer loop
      vertex  0.000000e+000 -6.864101e+001  1.685087e+001
      vertex  0.000000e+000 -6.866579e+001  1.774824e+001
      vertex  0.000000e+000 -5.714143e+001  1.646388e+001
    endloop
  endfacet
  facet normal -1.000000e+000  0.000000e+000  0.000000e+000
    outer loop
      vertex  0.000000e+000 -5.714143e+001  1.646388e+001
      vertex  0.000000e+000 -6.866579e+001  1.774824e+001
      vertex  0.000000e+000 -6.891803e+001  1.860978e+001
    endloop
  endfacet
  facet normal -1.000000e+000  0.000000e+000  0.000000e+000
    outer loop
      vertex  0.000000e+000 -5.714143e+001  1.646388e+001
      vertex  0.000000e+000 -6.891803e+001  1.860978e+001
      vertex  0.000000e+000 -5.716566e+001  1.833190e+001
    endloop
  endfacet
  facet normal -1.000000e+000  0.000000e+000  -0.000000e+000
    outer loop
      vertex  0.000000e+000 -6.926523e+001  1.518328e+001
      vertex  0.000000e+000 -6.884530e+001  1.597671e+001
      vertex  0.000000e+000 -5.734959e+001  1.460733e+001
    endloop
  endfacet
  facet normal -1.000000e+000  0.000000e+000  0.000000e+000
    outer loop
      vertex  0.000000e+000 -5.734959e+001  1.460733e+001
      vertex  0.000000e+000 -6.884530e+001  1.597671e+001
      vertex  0.000000e+000 -6.864101e+001  1.685087e+001
    endloop
  endfacet
  facet normal -1.000000e+000  0.000000e+000  0.000000e+000
    outer loop
      vertex  0.000000e+000 -5.734959e+001  1.460733e+001
      vertex  0.000000e+000 -6.864101e+001  1.685087e+001
      vertex  0.000000e+000 -5.714143e+001  1.646388e+001
    endloop
  endfacet
  facet normal  0.000000e+000 -1.000000e+000  0.000000e+000
    outer loop
      vertex  0.000000e+000 -6.987318e+001  2.373419e+000
      vertex  1.800000e+001 -6.987318e+001  2.373419e+000
      vertex  0.000000e+000 -6.987318e+001  1.452276e+001
    endloop
  endfacet
  facet normal  0.000000e+000 -1.000000e+000  0.000000e+000
    outer loop
      vertex  0.000000e+000 -6.987318e+001  1.452276e+001
      vertex  1.800000e+001 -6.987318e+001  2.373419e+000
      vertex  1.800000e+001 -6.987318e+001  1.452276e+001
    endloop
  endfacet
  facet normal  0.000000e+000  2.543697e-001 -9.671071e-001
    outer loop
      vertex  0.000000e+000 -7.257203e+001  2.067481e+001
      vertex  1.800000e+001 -7.344022e+001  2.044646e+001
      vertex  0.000000e+000 -7.344022e+001  2.044646e+001
    endloop
  endfacet
  facet normal  0.000000e+000  4.920094e-001 -8.705899e-001
    outer loop
      vertex  0.000000e+000 -7.344022e+001  2.044646e+001
      vertex  1.800000e+001 -7.344022e+001  2.044646e+001
      vertex  1.800000e+001 -7.422175e+001  2.000478e+001
    endloop
  endfacet
  facet normal  0.000000e+000  4.920094e-001 -8.705899e-001
    outer loop
      vertex  0.000000e+000 -7.344022e+001  2.044646e+001
      vertex  1.800000e+001 -7.422175e+001  2.000478e+001
      vertex  0.000000e+000 -7.422175e+001  2.000478e+001
    endloop
  endfacet
  facet normal  0.000000e+000  6.972733e-001 -7.168054e-001
    outer loop
      vertex  0.000000e+000 -7.422175e+001  2.000478e+001
      vertex  1.800000e+001 -7.422175e+001  2.000478e+001
      vertex  1.800000e+001 -7.486523e+001  1.937883e+001
    endloop
  endfacet
  facet normal  0.000000e+000  6.972733e-001 -7.168054e-001
    outer loop
      vertex  0.000000e+000 -7.422175e+001  2.000478e+001
      vertex  1.800000e+001 -7.486523e+001  1.937883e+001
      vertex  0.000000e+000 -7.486523e+001  1.937883e+001
    endloop
  endfacet
  facet normal  0.000000e+000  8.566750e-001 -5.158565e-001
    outer loop
      vertex  0.000000e+000 -7.486523e+001  1.937883e+001
      vertex  1.800000e+001 -7.486523e+001  1.937883e+001
      vertex  1.800000e+001 -7.532832e+001  1.860978e+001
    endloop
  endfacet
  facet normal  0.000000e+000  8.566750e-001 -5.158565e-001
    outer loop
      vertex  0.000000e+000 -7.486523e+001  1.937883e+001
      vertex  1.800000e+001 -7.532832e+001  1.860978e+001
      vertex  0.000000e+000 -7.532832e+001  1.860978e+001
    endloop
  endfacet
  facet normal  0.000000e+000  9.597147e-001 -2.809765e-001
    outer loop
      vertex  0.000000e+000 -7.532832e+001  1.860978e+001
      vertex  1.800000e+001 -7.532832e+001  1.860978e+001
      vertex  1.800000e+001 -7.558056e+001  1.774824e+001
    endloop
  endfacet
  facet normal  0.000000e+000  9.597147e-001 -2.809765e-001
    outer loop
      vertex  0.000000e+000 -7.532832e+001  1.860978e+001
      vertex  1.800000e+001 -7.558056e+001  1.774824e+001
      vertex  0.000000e+000 -7.558056e+001  1.774824e+001
    endloop
  endfacet
  facet normal  0.000000e+000  9.996188e-001 -2.761238e-002
    outer loop
      vertex  0.000000e+000 -7.558056e+001  1.774824e+001
      vertex  1.800000e+001 -7.558056e+001  1.774824e+001
      vertex  1.800000e+001 -7.560535e+001  1.685087e+001
    endloop
  endfacet
  facet normal  0.000000e+000  9.996188e-001 -2.761238e-002
    outer loop
      vertex  0.000000e+000 -7.558056e+001  1.774824e+001
      vertex  1.800000e+001 -7.560535e+001  1.685087e+001
      vertex  0.000000e+000 -7.560535e+001  1.685087e+001
    endloop
  endfacet
  facet normal  -0.000000e+000  9.737616e-001  2.275704e-001
    outer loop
      vertex  0.000000e+000 -7.560535e+001  1.685087e+001
      vertex  1.800000e+001 -7.560535e+001  1.685087e+001
      vertex  1.800000e+001 -7.540105e+001  1.597671e+001
    endloop
  endfacet
  facet normal  0.000000e+000  9.737616e-001  2.275704e-001
    outer loop
      vertex  0.000000e+000 -7.560535e+001  1.685087e+001
      vertex  1.800000e+001 -7.540105e+001  1.597671e+001
      vertex  0.000000e+000 -7.540105e+001  1.597671e+001
    endloop
  endfacet
  facet normal  -0.000000e+000  8.838454e-001  4.677790e-001
    outer loop
      vertex  0.000000e+000 -7.540105e+001  1.597671e+001
      vertex  1.800000e+001 -7.540105e+001  1.597671e+001
      vertex  1.800000e+001 -7.498112e+001  1.518328e+001
    endloop
  endfacet
  facet normal  0.000000e+000  8.838454e-001  4.677790e-001
    outer loop
      vertex  0.000000e+000 -7.540105e+001  1.597671e+001
      vertex  1.800000e+001 -7.498112e+001  1.518328e+001
      vertex  0.000000e+000 -7.498112e+001  1.518328e+001
    endloop
  endfacet
  facet normal  -0.000000e+000  7.357805e-001  6.772201e-001
    outer loop
      vertex  0.000000e+000 -7.498112e+001  1.518328e+001
      vertex  1.800000e+001 -7.498112e+001  1.518328e+001
      vertex  1.800000e+001 -7.437318e+001  1.452276e+001
    endloop
  endfacet
  facet normal  0.000000e+000  7.357805e-001  6.772201e-001
    outer loop
      vertex  0.000000e+000 -7.498112e+001  1.518328e+001
      vertex  1.800000e+001 -7.437318e+001  1.452276e+001
      vertex  0.000000e+000 -7.437318e+001  1.452276e+001
    endloop
  endfacet
  facet normal  0.000000e+000  2.543697e-001 -9.671071e-001
    outer loop
      vertex  1.800000e+001 -7.344022e+001  2.044646e+001
      vertex  0.000000e+000 -7.257203e+001  2.067481e+001
      vertex  1.800000e+001 -7.257203e+001  2.067481e+001
    endloop
  endfacet
  facet normal  0.000000e+000  0.000000e+000 -1.000000e+000
    outer loop
      vertex  1.800000e+001 -7.257203e+001  2.067481e+001
      vertex  0.000000e+000 -7.257203e+001  2.067481e+001
      vertex  0.000000e+000 -7.167432e+001  2.067481e+001
    endloop
  endfacet
  facet normal  0.000000e+000  0.000000e+000 -1.000000e+000
    outer loop
      vertex  1.800000e+001 -7.257203e+001  2.067481e+001
      vertex  0.000000e+000 -7.167432e+001  2.067481e+001
      vertex  1.800000e+001 -7.167432e+001  2.067481e+001
    endloop
  endfacet
  facet normal  -0.000000e+000 -2.543697e-001 -9.671071e-001
    outer loop
      vertex  1.800000e+001 -7.167432e+001  2.067481e+001
      vertex  0.000000e+000 -7.167432e+001  2.067481e+001
      vertex  0.000000e+000 -7.080614e+001  2.044646e+001
    endloop
  endfacet
  facet normal  0.000000e+000 -2.543697e-001 -9.671071e-001
    outer loop
      vertex  1.800000e+001 -7.167432e+001  2.067481e+001
      vertex  0.000000e+000 -7.080614e+001  2.044646e+001
      vertex  1.800000e+001 -7.080614e+001  2.044646e+001
    endloop
  endfacet
  facet normal  -0.000000e+000 -4.920094e-001 -8.705899e-001
    outer loop
      vertex  1.800000e+001 -7.080614e+001  2.044646e+001
      vertex  0.000000e+000 -7.080614e+001  2.044646e+001
      vertex  0.000000e+000 -7.002460e+001  2.000478e+001
    endloop
  endfacet
  facet normal  0.000000e+000 -4.920094e-001 -8.705899e-001
    outer loop
      vertex  1.800000e+001 -7.080614e+001  2.044646e+001
      vertex  0.000000e+000 -7.002460e+001  2.000478e+001
      vertex  1.800000e+001 -7.002460e+001  2.000478e+001
    endloop
  endfacet
  facet normal  -0.000000e+000 -6.972733e-001 -7.168054e-001
    outer loop
      vertex  1.800000e+001 -7.002460e+001  2.000478e+001
      vertex  0.000000e+000 -7.002460e+001  2.000478e+001
      vertex  0.000000e+000 -6.938112e+001  1.937883e+001
    endloop
  endfacet
  facet normal  0.000000e+000 -6.972733e-001 -7.168054e-001
    outer loop
      vertex  1.800000e+001 -7.002460e+001  2.000478e+001
      vertex  0.000000e+000 -6.938112e+001  1.937883e+001
      vertex  1.800000e+001 -6.938112e+001  1.937883e+001
    endloop
  endfacet
  facet normal  -0.000000e+000 -8.566750e-001 -5.158565e-001
    outer loop
      vertex  1.800000e+001 -6.938112e+001  1.937883e+001
      vertex  0.000000e+000 -6.938112e+001  1.937883e+001
      vertex  0.000000e+000 -6.891803e+001  1.860978e+001
    endloop
  endfacet
  facet normal  0.000000e+000 -8.566750e-001 -5.158565e-001
    outer loop
      vertex  1.800000e+001 -6.938112e+001  1.937883e+001
      vertex  0.000000e+000 -6.891803e+001  1.860978e+001
      vertex  1.800000e+001 -6.891803e+001  1.860978e+001
    endloop
  endfacet
  facet normal  -0.000000e+000 -9.597147e-001 -2.809765e-001
    outer loop
      vertex  1.800000e+001 -6.891803e+001  1.860978e+001
      vertex  0.000000e+000 -6.891803e+001  1.860978e+001
      vertex  0.000000e+000 -6.866579e+001  1.774824e+001
    endloop
  endfacet
  facet normal  0.000000e+000 -9.597147e-001 -2.809765e-001
    outer loop
      vertex  1.800000e+001 -6.891803e+001  1.860978e+001
      vertex  0.000000e+000 -6.866579e+001  1.774824e+001
      vertex  1.800000e+001 -6.866579e+001  1.774824e+001
    endloop
  endfacet
  facet normal  -0.000000e+000 -9.996188e-001 -2.761238e-002
    outer loop
      vertex  1.800000e+001 -6.866579e+001  1.774824e+001
      vertex  0.000000e+000 -6.866579e+001  1.774824e+001
      vertex  0.000000e+000 -6.864101e+001  1.685087e+001
    endloop
  endfacet
  facet normal  0.000000e+000 -9.996188e-001 -2.761238e-002
    outer loop
      vertex  1.800000e+001 -6.866579e+001  1.774824e+001
      vertex  0.000000e+000 -6.864101e+001  1.685087e+001
      vertex  1.800000e+001 -6.864101e+001  1.685087e+001
    endloop
  endfacet
  facet normal  0.000000e+000 -9.737616e-001  2.275704e-001
    outer loop
      vertex  1.800000e+001 -6.864101e+001  1.685087e+001
      vertex  0.000000e+000 -6.864101e+001  1.685087e+001
      vertex  0.000000e+000 -6.884530e+001  1.597671e+001
    endloop
  endfacet
  facet normal  0.000000e+000 -9.737616e-001  2.275704e-001
    outer loop
      vertex  1.800000e+001 -6.864101e+001  1.685087e+001
      vertex  0.000000e+000 -6.884530e+001  1.597671e+001
      vertex  1.800000e+001 -6.884530e+001  1.597671e+001
    endloop
  endfacet
  facet normal  0.000000e+000 -8.838454e-001  4.677790e-001
    outer loop
      vertex  1.800000e+001 -6.884530e+001  1.597671e+001
      vertex  0.000000e+000 -6.884530e+001  1.597671e+001
      vertex  0.000000e+000 -6.926523e+001  1.518328e+001
    endloop
  endfacet
  facet normal  0.000000e+000 -8.838454e-001  4.677790e-001
    outer loop
      vertex  1.800000e+001 -6.884530e+001  1.597671e+001
      vertex  0.000000e+000 -6.926523e+001  1.518328e+001
      vertex  1.800000e+001 -6.926523e+001  1.518328e+001
    endloop
  endfacet
  facet normal  0.000000e+000 -7.357805e-001  6.772201e-001
    outer loop
      vertex  1.800000e+001 -6.926523e+001  1.518328e+001
      vertex  0.000000e+000 -6.926523e+001  1.518328e+001
      vertex  0.000000e+000 -6.987318e+001  1.452276e+001
    endloop
  endfacet
  facet normal  0.000000e+000 -7.357805e-001  6.772201e-001
    outer loop
      vertex  1.800000e+001 -6.926523e+001  1.518328e+001
      vertex  0.000000e+000 -6.987318e+001  1.452276e+001
      vertex  1.800000e+001 -6.987318e+001  1.452276e+001
    endloop
  endfacet
  facet normal  0.000000e+000  1.000000e+000  0.000000e+000
    outer loop
      vertex  0.000000e+000 -7.437318e+001  1.452276e+001
      vertex  1.800000e+001 -7.437318e+001  1.452276e+001
      vertex  0.000000e+000 -7.437318e+001  2.373419e+000
    endloop
  endfacet
  facet normal  0.000000e+000  1.000000e+000  0.000000e+000
    outer loop
      vertex  0.000000e+000 -7.437318e+001  2.373419e+000
      vertex  1.800000e+001 -7.437318e+001  1.452276e+001
      vertex  1.800000e+001 -7.437318e+001  2.373419e+000
    endloop
  endfacet
  facet normal  -0.000000e+000 -2.112767e-001 -9.774262e-001
    outer loop
      vertex  0.000000e+000 -7.437318e+001  2.373419e+000
      vertex  1.800000e+001 -7.437318e+001  2.373419e+000
      vertex  0.000000e+000 -7.619919e+001  2.768122e+000
    endloop
  endfacet
  facet normal  0.000000e+000 -2.112767e-001 -9.774262e-001
    outer loop
      vertex  0.000000e+000 -7.619919e+001  2.768122e+000
      vertex  1.800000e+001 -7.437318e+001  2.373419e+000
      vertex  1.800000e+001 -7.619919e+001  2.768122e+000
    endloop
  endfacet
  facet normal  -0.000000e+000 -3.311367e-001 -9.435828e-001
    outer loop
      vertex  0.000000e+000 -7.619919e+001  2.768122e+000
      vertex  1.800000e+001 -7.619919e+001  2.768122e+000
      vertex  0.000000e+000 -7.796197e+001  3.386744e+000
    endloop
  endfacet
  facet normal  0.000000e+000 -3.311367e-001 -9.435828e-001
    outer loop
      vertex  0.000000e+000 -7.796197e+001  3.386744e+000
      vertex  1.800000e+001 -7.619919e+001  2.768122e+000
      vertex  1.800000e+001 -7.796197e+001  3.386744e+000
    endloop
  endfacet
  facet normal  -0.000000e+000 -4.458580e-001 -8.951038e-001
    outer loop
      vertex  0.000000e+000 -7.796197e+001  3.386744e+000
      vertex  1.800000e+001 -7.796197e+001  3.386744e+000
      vertex  0.000000e+000 -7.963419e+001  4.219689e+000
    endloop
  endfacet
  facet normal  0.000000e+000 -4.458580e-001 -8.951038e-001
    outer loop
      vertex  0.000000e+000 -7.963419e+001  4.219689e+000
      vertex  1.800000e+001 -7.796197e+001  3.386744e+000
      vertex  1.800000e+001 -7.963419e+001  4.219689e+000
    endloop
  endfacet
  facet normal  -0.000000e+000 -5.536665e-001 -8.327385e-001
    outer loop
      vertex  0.000000e+000 -7.963419e+001  4.219689e+000
      vertex  1.800000e+001 -7.963419e+001  4.219689e+000
      vertex  0.000000e+000 -8.118989e+001  5.254035e+000
    endloop
  endfacet
  facet normal  0.000000e+000 -5.536665e-001 -8.327385e-001
    outer loop
      vertex  0.000000e+000 -8.118989e+001  5.254035e+000
      vertex  1.800000e+001 -7.963419e+001  4.219689e+000
      vertex  1.800000e+001 -8.118989e+001  5.254035e+000
    endloop
  endfacet
  facet normal  -0.000000e+000 -6.528836e-001 -7.574582e-001
    outer loop
      vertex  0.000000e+000 -8.118989e+001  5.254035e+000
      vertex  1.800000e+001 -8.118989e+001  5.254035e+000
      vertex  0.000000e+000 -8.260496e+001  6.473741e+000
    endloop
  endfacet
  facet normal  0.000000e+000 -6.528836e-001 -7.574582e-001
    outer loop
      vertex  0.000000e+000 -8.260496e+001  6.473741e+000
      vertex  1.800000e+001 -8.118989e+001  5.254035e+000
      vertex  1.800000e+001 -8.260496e+001  6.473741e+000
    endloop
  endfacet
  facet normal  -0.000000e+000 -7.419750e-001 -6.704275e-001
    outer loop
      vertex  0.000000e+000 -8.260496e+001  6.473741e+000
      vertex  1.800000e+001 -8.260496e+001  6.473741e+000
      vertex  0.000000e+000 -8.385744e+001  7.859884e+000
    endloop
  endfacet
  facet normal  0.000000e+000 -7.419750e-001 -6.704275e-001
    outer loop
      vertex  0.000000e+000 -8.385744e+001  7.859884e+000
      vertex  1.800000e+001 -8.260496e+001  6.473741e+000
      vertex  1.800000e+001 -8.385744e+001  7.859884e+000
    endloop
  endfacet
  facet normal  -0.000000e+000 -8.195565e-001 -5.729983e-001
    outer loop
      vertex  0.000000e+000 -8.385744e+001  7.859884e+000
      vertex  1.800000e+001 -8.385744e+001  7.859884e+000
      vertex  0.000000e+000 -8.492790e+001  9.390965e+000
    endloop
  endfacet
  facet normal  0.000000e+000 -8.195565e-001 -5.729983e-001
    outer loop
      vertex  0.000000e+000 -8.492790e+001  9.390965e+000
      vertex  1.800000e+001 -8.385744e+001  7.859884e+000
      vertex  1.800000e+001 -8.492790e+001  9.390965e+000
    endloop
  endfacet
  facet normal  -0.000000e+000 -8.844264e-001 -4.666796e-001
    outer loop
      vertex  0.000000e+000 -8.492790e+001  9.390965e+000
      vertex  1.800000e+001 -8.492790e+001  9.390965e+000
      vertex  0.000000e+000 -8.579974e+001  1.104323e+001
    endloop
  endfacet
  facet normal  0.000000e+000 -8.844264e-001 -4.666796e-001
    outer loop
      vertex  0.000000e+000 -8.579974e+001  1.104323e+001
      vertex  1.800000e+001 -8.492790e+001  9.390965e+000
      vertex  1.800000e+001 -8.579974e+001  1.104323e+001
    endloop
  endfacet
  facet normal  -0.000000e+000 -9.355768e-001 -3.531233e-001
    outer loop
      vertex  0.000000e+000 -8.579974e+001  1.104323e+001
      vertex  1.800000e+001 -8.579974e+001  1.104323e+001
      vertex  0.000000e+000 -8.645944e+001  1.279106e+001
    endloop
  endfacet
  facet normal  0.000000e+000 -9.355768e-001 -3.531233e-001
    outer loop
      vertex  0.000000e+000 -8.645944e+001  1.279106e+001
      vertex  1.800000e+001 -8.579974e+001  1.104323e+001
      vertex  1.800000e+001 -8.645944e+001  1.279106e+001
    endloop
  endfacet
  facet normal  -0.000000e+000 -9.722157e-001 -2.340872e-001
    outer loop
      vertex  0.000000e+000 -8.645944e+001  1.279106e+001
      vertex  1.800000e+001 -8.645944e+001  1.279106e+001
      vertex  0.000000e+000 -8.689676e+001  1.460733e+001
    endloop
  endfacet
  facet normal  0.000000e+000 -9.722157e-001 -2.340872e-001
    outer loop
      vertex  0.000000e+000 -8.689676e+001  1.460733e+001
      vertex  1.800000e+001 -8.645944e+001  1.279106e+001
      vertex  1.800000e+001 -8.689676e+001  1.460733e+001
    endloop
  endfacet
  facet normal  -0.000000e+000 -9.937730e-001 -1.114241e-001
    outer loop
      vertex  0.000000e+000 -8.689676e+001  1.460733e+001
      vertex  1.800000e+001 -8.689676e+001  1.460733e+001
      vertex  0.000000e+000 -8.710492e+001  1.646388e+001
    endloop
  endfacet
  facet normal  0.000000e+000 -9.937730e-001 -1.114241e-001
    outer loop
      vertex  0.000000e+000 -8.710492e+001  1.646388e+001
      vertex  1.800000e+001 -8.689676e+001  1.460733e+001
      vertex  1.800000e+001 -8.710492e+001  1.646388e+001
    endloop
  endfacet
  facet normal  0.000000e+000 -9.999158e-001  1.297035e-002
    outer loop
      vertex  0.000000e+000 -8.710492e+001  1.646388e+001
      vertex  1.800000e+001 -8.710492e+001  1.646388e+001
      vertex  0.000000e+000 -8.708069e+001  1.833190e+001
    endloop
  endfacet
  facet normal  0.000000e+000 -9.999158e-001  1.297035e-002
    outer loop
      vertex  0.000000e+000 -8.708069e+001  1.833190e+001
      vertex  1.800000e+001 -8.710492e+001  1.646388e+001
      vertex  1.800000e+001 -8.708069e+001  1.833190e+001
    endloop
  endfacet
  facet normal  0.000000e+000 -9.905483e-001  1.371646e-001
    outer loop
      vertex  0.000000e+000 -8.708069e+001  1.833190e+001
      vertex  1.800000e+001 -8.708069e+001  1.833190e+001
      vertex  0.000000e+000 -8.682444e+001  2.018243e+001
    endloop
  endfacet
  facet normal  0.000000e+000 -9.905483e-001  1.371646e-001
    outer loop
      vertex  0.000000e+000 -8.682444e+001  2.018243e+001
      vertex  1.800000e+001 -8.708069e+001  1.833190e+001
      vertex  1.800000e+001 -8.682444e+001  2.018243e+001
    endloop
  endfacet
  facet normal  0.000000e+000 -9.658163e-001  2.592276e-001
    outer loop
      vertex  0.000000e+000 -8.682444e+001  2.018243e+001
      vertex  1.800000e+001 -8.682444e+001  2.018243e+001
      vertex  0.000000e+000 -8.634016e+001  2.198675e+001
    endloop
  endfacet
  facet normal  0.000000e+000 -9.658163e-001  2.592276e-001
    outer loop
      vertex  0.000000e+000 -8.634016e+001  2.198675e+001
      vertex  1.800000e+001 -8.682444e+001  2.018243e+001
      vertex  1.800000e+001 -8.634016e+001  2.198675e+001
    endloop
  endfacet
  facet normal  0.000000e+000 -9.261029e-001  3.772714e-001
    outer loop
      vertex  0.000000e+000 -8.634016e+001  2.198675e+001
      vertex  1.800000e+001 -8.634016e+001  2.198675e+001
      vertex  0.000000e+000 -8.563535e+001  2.371687e+001
    endloop
  endfacet
  facet normal  0.000000e+000 -9.261029e-001  3.772714e-001
    outer loop
      vertex  0.000000e+000 -8.563535e+001  2.371687e+001
      vertex  1.800000e+001 -8.634016e+001  2.198675e+001
      vertex  1.800000e+001 -8.563535e+001  2.371687e+001
    endloop
  endfacet
  facet normal  0.000000e+000 -8.720238e-001  4.894636e-001
    outer loop
      vertex  0.000000e+000 -8.563535e+001  2.371687e+001
      vertex  1.800000e+001 -8.563535e+001  2.371687e+001
      vertex  0.000000e+000 -8.472094e+001  2.534597e+001
    endloop
  endfacet
  facet normal  0.000000e+000 -8.720238e-001  4.894636e-001
    outer loop
      vertex  0.000000e+000 -8.472094e+001  2.534597e+001
      vertex  1.800000e+001 -8.563535e+001  2.371687e+001
      vertex  1.800000e+001 -8.472094e+001  2.534597e+001
    endloop
  endfacet
  facet normal  0.000000e+000 -8.044181e-001  5.940634e-001
    outer loop
      vertex  0.000000e+000 -8.472094e+001  2.534597e+001
      vertex  1.800000e+001 -8.472094e+001  2.534597e+001
      vertex  0.000000e+000 -8.361112e+001  2.684877e+001
    endloop
  endfacet
  facet normal  0.000000e+000 -8.044181e-001  5.940634e-001
    outer loop
      vertex  0.000000e+000 -8.361112e+001  2.684877e+001
      vertex  1.800000e+001 -8.472094e+001  2.534597e+001
      vertex  1.800000e+001 -8.361112e+001  2.684877e+001
    endloop
  endfacet
  facet normal  0.000000e+000 -7.243342e-001  6.894489e-001
    outer loop
      vertex  0.000000e+000 -8.361112e+001  2.684877e+001
      vertex  1.800000e+001 -8.361112e+001  2.684877e+001
      vertex  0.000000e+000 -8.232310e+001  2.820196e+001
    endloop
  endfacet
  facet normal  0.000000e+000 -7.243342e-001  6.894489e-001
    outer loop
      vertex  0.000000e+000 -8.232310e+001  2.820196e+001
      vertex  1.800000e+001 -8.361112e+001  2.684877e+001
      vertex  1.800000e+001 -8.232310e+001  2.820196e+001
    endloop
  endfacet
  facet normal  0.000000e+000 -6.330168e-001  7.741380e-001
    outer loop
      vertex  0.000000e+000 -8.232310e+001  2.820196e+001
      vertex  1.800000e+001 -8.232310e+001  2.820196e+001
      vertex  0.000000e+000 -8.087688e+001  2.938455e+001
    endloop
  endfacet
  facet normal  0.000000e+000 -6.330168e-001  7.741380e-001
    outer loop
      vertex  0.000000e+000 -8.087688e+001  2.938455e+001
      vertex  1.800000e+001 -8.232310e+001  2.820196e+001
      vertex  1.800000e+001 -8.087688e+001  2.938455e+001
    endloop
  endfacet
  facet normal  0.000000e+000 -5.318779e-001  8.468211e-001
    outer loop
      vertex  0.000000e+000 -8.087688e+001  2.938455e+001
      vertex  1.800000e+001 -8.087688e+001  2.938455e+001
      vertex  0.000000e+000 -7.929486e+001  3.037819e+001
    endloop
  endfacet
  facet normal  0.000000e+000 -5.318779e-001  8.468211e-001
    outer loop
      vertex  0.000000e+000 -7.929486e+001  3.037819e+001
      vertex  1.800000e+001 -8.087688e+001  2.938455e+001
      vertex  1.800000e+001 -7.929486e+001  3.037819e+001
    endloop
  endfacet
  facet normal  0.000000e+000 -4.224896e-001  9.063678e-001
    outer loop
      vertex  0.000000e+000 -7.929486e+001  3.037819e+001
      vertex  1.800000e+001 -7.929486e+001  3.037819e+001
      vertex  0.000000e+000 -7.760160e+001  3.116748e+001
    endloop
  endfacet
  facet normal  0.000000e+000 -4.224896e-001  9.063678e-001
    outer loop
      vertex  0.000000e+000 -7.760160e+001  3.116748e+001
      vertex  1.800000e+001 -7.929486e+001  3.037819e+001
      vertex  1.800000e+001 -7.760160e+001  3.116748e+001
    endloop
  endfacet
  facet normal  0.000000e+000 -3.065482e-001  9.518551e-001
    outer loop
      vertex  0.000000e+000 -7.760160e+001  3.116748e+001
      vertex  1.800000e+001 -7.760160e+001  3.116748e+001
      vertex  0.000000e+000 -7.582336e+001  3.174017e+001
    endloop
  endfacet
  facet normal  0.000000e+000 -3.065482e-001  9.518551e-001
    outer loop
      vertex  0.000000e+000 -7.582336e+001  3.174017e+001
      vertex  1.800000e+001 -7.760160e+001  3.116748e+001
      vertex  1.800000e+001 -7.582336e+001  3.174017e+001
    endloop
  endfacet
  facet normal  0.000000e+000 -1.858526e-001  9.825776e-001
    outer loop
      vertex  0.000000e+000 -7.582336e+001  3.174017e+001
      vertex  1.800000e+001 -7.582336e+001  3.174017e+001
      vertex  0.000000e+000 -7.398773e+001  3.208737e+001
    endloop
  endfacet
  facet normal  0.000000e+000 -1.858526e-001  9.825776e-001
    outer loop
      vertex  0.000000e+000 -7.398773e+001  3.208737e+001
      vertex  1.800000e+001 -7.582336e+001  3.174017e+001
      vertex  1.800000e+001 -7.398773e+001  3.208737e+001
    endloop
  endfacet
  facet normal  0.000000e+000 -6.227277e-002  9.980592e-001
    outer loop
      vertex  0.000000e+000 -7.398773e+001  3.208737e+001
      vertex  1.800000e+001 -7.398773e+001  3.208737e+001
      vertex  0.000000e+000 -7.212318e+001  3.220371e+001
    endloop
  endfacet
  facet normal  0.000000e+000 -6.227277e-002  9.980592e-001
    outer loop
      vertex  0.000000e+000 -7.212318e+001  3.220371e+001
      vertex  1.800000e+001 -7.398773e+001  3.208737e+001
      vertex  1.800000e+001 -7.212318e+001  3.220371e+001
    endloop
  endfacet
  facet normal  0.000000e+000  6.227277e-002  9.980592e-001
    outer loop
      vertex  0.000000e+000 -7.212318e+001  3.220371e+001
      vertex  1.800000e+001 -7.212318e+001  3.220371e+001
      vertex  0.000000e+000 -7.025862e+001  3.208737e+001
    endloop
  endfacet
  facet normal  -0.000000e+000  6.227277e-002  9.980592e-001
    outer loop
      vertex  0.000000e+000 -7.025862e+001  3.208737e+001
      vertex  1.800000e+001 -7.212318e+001  3.220371e+001
      vertex  1.800000e+001 -7.025862e+001  3.208737e+001
    endloop
  endfacet
  facet normal  0.000000e+000  1.858526e-001  9.825776e-001
    outer loop
      vertex  0.000000e+000 -7.025862e+001  3.208737e+001
      vertex  1.800000e+001 -7.025862e+001  3.208737e+001
      vertex  0.000000e+000 -6.842299e+001  3.174017e+001
    endloop
  endfacet
  facet normal  -0.000000e+000  1.858526e-001  9.825776e-001
    outer loop
      vertex  0.000000e+000 -6.842299e+001  3.174017e+001
      vertex  1.800000e+001 -7.025862e+001  3.208737e+001
      vertex  1.800000e+001 -6.842299e+001  3.174017e+001
    endloop
  endfacet
  facet normal  0.000000e+000  3.065482e-001  9.518551e-001
    outer loop
      vertex  0.000000e+000 -6.842299e+001  3.174017e+001
      vertex  1.800000e+001 -6.842299e+001  3.174017e+001
      vertex  0.000000e+000 -6.664475e+001  3.116748e+001
    endloop
  endfacet
  facet normal  -0.000000e+000  3.065482e-001  9.518551e-001
    outer loop
      vertex  0.000000e+000 -6.664475e+001  3.116748e+001
      vertex  1.800000e+001 -6.842299e+001  3.174017e+001
      vertex  1.800000e+001 -6.664475e+001  3.116748e+001
    endloop
  endfacet
  facet normal  0.000000e+000  4.224896e-001  9.063678e-001
    outer loop
      vertex  0.000000e+000 -6.664475e+001  3.116748e+001
      vertex  1.800000e+001 -6.664475e+001  3.116748e+001
      vertex  0.000000e+000 -6.495149e+001  3.037819e+001
    endloop
  endfacet
  facet normal  -0.000000e+000  4.224896e-001  9.063678e-001
    outer loop
      vertex  0.000000e+000 -6.495149e+001  3.037819e+001
      vertex  1.800000e+001 -6.664475e+001  3.116748e+001
      vertex  1.800000e+001 -6.495149e+001  3.037819e+001
    endloop
  endfacet
  facet normal  0.000000e+000  5.318788e-001  8.468205e-001
    outer loop
      vertex  0.000000e+000 -6.495149e+001  3.037819e+001
      vertex  1.800000e+001 -6.495149e+001  3.037819e+001
      vertex  0.000000e+000 -6.336948e+001  2.938455e+001
    endloop
  endfacet
  facet normal  -0.000000e+000  5.318788e-001  8.468205e-001
    outer loop
      vertex  0.000000e+000 -6.336948e+001  2.938455e+001
      vertex  1.800000e+001 -6.495149e+001  3.037819e+001
      vertex  1.800000e+001 -6.336948e+001  2.938455e+001
    endloop
  endfacet
  facet normal  0.000000e+000  6.330159e-001  7.741389e-001
    outer loop
      vertex  0.000000e+000 -6.336948e+001  2.938455e+001
      vertex  1.800000e+001 -6.336948e+001  2.938455e+001
      vertex  0.000000e+000 -6.192325e+001  2.820196e+001
    endloop
  endfacet
  facet normal  -0.000000e+000  6.330159e-001  7.741389e-001
    outer loop
      vertex  0.000000e+000 -6.192325e+001  2.820196e+001
      vertex  1.800000e+001 -6.336948e+001  2.938455e+001
      vertex  1.800000e+001 -6.192325e+001  2.820196e+001
    endloop
  endfacet
  facet normal  0.000000e+000  7.243353e-001  6.894479e-001
    outer loop
      vertex  0.000000e+000 -6.192325e+001  2.820196e+001
      vertex  1.800000e+001 -6.192325e+001  2.820196e+001
      vertex  0.000000e+000 -6.063523e+001  2.684877e+001
    endloop
  endfacet
  facet normal  -0.000000e+000  7.243353e-001  6.894479e-001
    outer loop
      vertex  0.000000e+000 -6.063523e+001  2.684877e+001
      vertex  1.800000e+001 -6.192325e+001  2.820196e+001
      vertex  1.800000e+001 -6.063523e+001  2.684877e+001
    endloop
  endfacet
  facet normal  0.000000e+000  8.044181e-001  5.940634e-001
    outer loop
      vertex  0.000000e+000 -6.063523e+001  2.684877e+001
      vertex  1.800000e+001 -6.063523e+001  2.684877e+001
      vertex  0.000000e+000 -5.952542e+001  2.534597e+001
    endloop
  endfacet
  facet normal  -0.000000e+000  8.044181e-001  5.940634e-001
    outer loop
      vertex  0.000000e+000 -5.952542e+001  2.534597e+001
      vertex  1.800000e+001 -6.063523e+001  2.684877e+001
      vertex  1.800000e+001 -5.952542e+001  2.534597e+001
    endloop
  endfacet
  facet normal  0.000000e+000  8.720229e-001  4.894651e-001
    outer loop
      vertex  0.000000e+000 -5.952542e+001  2.534597e+001
      vertex  1.800000e+001 -5.952542e+001  2.534597e+001
      vertex  0.000000e+000 -5.861101e+001  2.371687e+001
    endloop
  endfacet
  facet normal  -0.000000e+000  8.720229e-001  4.894651e-001
    outer loop
      vertex  0.000000e+000 -5.861101e+001  2.371687e+001
      vertex  1.800000e+001 -5.952542e+001  2.534597e+001
      vertex  1.800000e+001 -5.861101e+001  2.371687e+001
    endloop
  endfacet
  facet normal  0.000000e+000  9.261029e-001  3.772714e-001
    outer loop
      vertex  0.000000e+000 -5.861101e+001  2.371687e+001
      vertex  1.800000e+001 -5.861101e+001  2.371687e+001
      vertex  0.000000e+000 -5.790620e+001  2.198675e+001
    endloop
  endfacet
  facet normal  -0.000000e+000  9.261029e-001  3.772714e-001
    outer loop
      vertex  0.000000e+000 -5.790620e+001  2.198675e+001
      vertex  1.800000e+001 -5.861101e+001  2.371687e+001
      vertex  1.800000e+001 -5.790620e+001  2.198675e+001
    endloop
  endfacet
  facet normal  0.000000e+000  9.658158e-001  2.592295e-001
    outer loop
      vertex  0.000000e+000 -5.790620e+001  2.198675e+001
      vertex  1.800000e+001 -5.790620e+001  2.198675e+001
      vertex  0.000000e+000 -5.742191e+001  2.018243e+001
    endloop
  endfacet
  facet normal  -0.000000e+000  9.658158e-001  2.592295e-001
    outer loop
      vertex  0.000000e+000 -5.742191e+001  2.018243e+001
      vertex  1.800000e+001 -5.790620e+001  2.198675e+001
      vertex  1.800000e+001 -5.742191e+001  2.018243e+001
    endloop
  endfacet
  facet normal  0.000000e+000  9.905486e-001  1.371626e-001
    outer loop
      vertex  0.000000e+000 -5.742191e+001  2.018243e+001
      vertex  1.800000e+001 -5.742191e+001  2.018243e+001
      vertex  0.000000e+000 -5.716566e+001  1.833190e+001
    endloop
  endfacet
  facet normal  -0.000000e+000  9.905486e-001  1.371626e-001
    outer loop
      vertex  0.000000e+000 -5.716566e+001  1.833190e+001
      vertex  1.800000e+001 -5.742191e+001  2.018243e+001
      vertex  1.800000e+001 -5.716566e+001  1.833190e+001
    endloop
  endfacet
  facet normal  0.000000e+000  9.999158e-001  1.297035e-002
    outer loop
      vertex  0.000000e+000 -5.716566e+001  1.833190e+001
      vertex  1.800000e+001 -5.716566e+001  1.833190e+001
      vertex  0.000000e+000 -5.714143e+001  1.646388e+001
    endloop
  endfacet
  facet normal  -0.000000e+000  9.999158e-001  1.297035e-002
    outer loop
      vertex  0.000000e+000 -5.714143e+001  1.646388e+001
      vertex  1.800000e+001 -5.716566e+001  1.833190e+001
      vertex  1.800000e+001 -5.714143e+001  1.646388e+001
    endloop
  endfacet
  facet normal  0.000000e+000  9.937731e-001 -1.114221e-001
    outer loop
      vertex  0.000000e+000 -5.714143e+001  1.646388e+001
      vertex  1.800000e+001 -5.714143e+001  1.646388e+001
      vertex  0.000000e+000 -5.734959e+001  1.460733e+001
    endloop
  endfacet
  facet normal  0.000000e+000  9.937731e-001 -1.114221e-001
    outer loop
      vertex  0.000000e+000 -5.734959e+001  1.460733e+001
      vertex  1.800000e+001 -5.714143e+001  1.646388e+001
      vertex  1.800000e+001 -5.734959e+001  1.460733e+001
    endloop
  endfacet
  facet normal  0.000000e+000  9.722152e-001 -2.340891e-001
    outer loop
      vertex  0.000000e+000 -5.734959e+001  1.460733e+001
      vertex  1.800000e+001 -5.734959e+001  1.460733e+001
      vertex  0.000000e+000 -5.778691e+001  1.279106e+001
    endloop
  endfacet
  facet normal  0.000000e+000  9.722152e-001 -2.340891e-001
    outer loop
      vertex  0.000000e+000 -5.778691e+001  1.279106e+001
      vertex  1.800000e+001 -5.734959e+001  1.460733e+001
      vertex  1.800000e+001 -5.778691e+001  1.279106e+001
    endloop
  endfacet
  facet normal  0.000000e+000  9.355768e-001 -3.531233e-001
    outer loop
      vertex  0.000000e+000 -5.778691e+001  1.279106e+001
      vertex  1.800000e+001 -5.778691e+001  1.279106e+001
      vertex  0.000000e+000 -5.844661e+001  1.104323e+001
    endloop
  endfacet
  facet normal  0.000000e+000  9.355768e-001 -3.531233e-001
    outer loop
      vertex  0.000000e+000 -5.844661e+001  1.104323e+001
      vertex  1.800000e+001 -5.778691e+001  1.279106e+001
      vertex  1.800000e+001 -5.844661e+001  1.104323e+001
    endloop
  endfacet
  facet normal  0.000000e+000  8.844264e-001 -4.666796e-001
    outer loop
      vertex  0.000000e+000 -5.844661e+001  1.104323e+001
      vertex  1.800000e+001 -5.844661e+001  1.104323e+001
      vertex  0.000000e+000 -5.931845e+001  9.390965e+000
    endloop
  endfacet
  facet normal  0.000000e+000  8.844264e-001 -4.666796e-001
    outer loop
      vertex  0.000000e+000 -5.931845e+001  9.390965e+000
      vertex  1.800000e+001 -5.844661e+001  1.104323e+001
      vertex  1.800000e+001 -5.931845e+001  9.390965e+000
    endloop
  endfacet
  facet normal  0.000000e+000  8.195575e-001 -5.729970e-001
    outer loop
      vertex  0.000000e+000 -5.931845e+001  9.390965e+000
      vertex  1.800000e+001 -5.931845e+001  9.390965e+000
      vertex  0.000000e+000 -6.038891e+001  7.859884e+000
    endloop
  endfacet
  facet normal  0.000000e+000  8.195575e-001 -5.729970e-001
    outer loop
      vertex  0.000000e+000 -6.038891e+001  7.859884e+000
      vertex  1.800000e+001 -5.931845e+001  9.390965e+000
      vertex  1.800000e+001 -6.038891e+001  7.859884e+000
    endloop
  endfacet
  facet normal  0.000000e+000  7.419750e-001 -6.704275e-001
    outer loop
      vertex  0.000000e+000 -6.038891e+001  7.859884e+000
      vertex  1.800000e+001 -6.038891e+001  7.859884e+000
      vertex  0.000000e+000 -6.164139e+001  6.473741e+000
    endloop
  endfacet
  facet normal  0.000000e+000  7.419750e-001 -6.704275e-001
    outer loop
      vertex  0.000000e+000 -6.164139e+001  6.473741e+000
      vertex  1.800000e+001 -6.038891e+001  7.859884e+000
      vertex  1.800000e+001 -6.164139e+001  6.473741e+000
    endloop
  endfacet
  facet normal  0.000000e+000  6.528836e-001 -7.574582e-001
    outer loop
      vertex  0.000000e+000 -6.164139e+001  6.473741e+000
      vertex  1.800000e+001 -6.164139e+001  6.473741e+000
      vertex  0.000000e+000 -6.305646e+001  5.254035e+000
    endloop
  endfacet
  facet normal  0.000000e+000  6.528836e-001 -7.574582e-001
    outer loop
      vertex  0.000000e+000 -6.305646e+001  5.254035e+000
      vertex  1.800000e+001 -6.164139e+001  6.473741e+000
      vertex  1.800000e+001 -6.305646e+001  5.254035e+000
    endloop
  endfacet
  facet normal  0.000000e+000  5.536656e-001 -8.327391e-001
    outer loop
      vertex  0.000000e+000 -6.305646e+001  5.254035e+000
      vertex  1.800000e+001 -6.305646e+001  5.254035e+000
      vertex  0.000000e+000 -6.461217e+001  4.219689e+000
    endloop
  endfacet
  facet normal  0.000000e+000  5.536656e-001 -8.327391e-001
    outer loop
      vertex  0.000000e+000 -6.461217e+001  4.219689e+000
      vertex  1.800000e+001 -6.305646e+001  5.254035e+000
      vertex  1.800000e+001 -6.461217e+001  4.219689e+000
    endloop
  endfacet
  facet normal  0.000000e+000  4.458580e-001 -8.951038e-001
    outer loop
      vertex  0.000000e+000 -6.461217e+001  4.219689e+000
      vertex  1.800000e+001 -6.461217e+001  4.219689e+000
      vertex  0.000000e+000 -6.628439e+001  3.386744e+000
    endloop
  endfacet
  facet normal  0.000000e+000  4.458580e-001 -8.951038e-001
    outer loop
      vertex  0.000000e+000 -6.628439e+001  3.386744e+000
      vertex  1.800000e+001 -6.461217e+001  4.219689e+000
      vertex  1.800000e+001 -6.628439e+001  3.386744e+000
    endloop
  endfacet
  facet normal  0.000000e+000  3.311367e-001 -9.435828e-001
    outer loop
      vertex  0.000000e+000 -6.628439e+001  3.386744e+000
      vertex  1.800000e+001 -6.628439e+001  3.386744e+000
      vertex  0.000000e+000 -6.804716e+001  2.768122e+000
    endloop
  endfacet
  facet normal  0.000000e+000  3.311367e-001 -9.435828e-001
    outer loop
      vertex  0.000000e+000 -6.804716e+001  2.768122e+000
      vertex  1.800000e+001 -6.628439e+001  3.386744e+000
      vertex  1.800000e+001 -6.804716e+001  2.768122e+000
    endloop
  endfacet
  facet normal  0.000000e+000  2.112767e-001 -9.774262e-001
    outer loop
      vertex  0.000000e+000 -6.804716e+001  2.768122e+000
      vertex  1.800000e+001 -6.804716e+001  2.768122e+000
      vertex  0.000000e+000 -6.987318e+001  2.373419e+000
    endloop
  endfacet
  facet normal  0.000000e+000  2.112767e-001 -9.774262e-001
    outer loop
      vertex  0.000000e+000 -6.987318e+001  2.373419e+000
      vertex  1.800000e+001 -6.804716e+001  2.768122e+000
      vertex  1.800000e+001 -6.987318e+001  2.373419e+000
    endloop
  endfacet
endsolid CATIA STL
